<svg width="305" height="133" viewBox="0 0 305 133" fill="none" xmlns="http://www.w3.org/2000/svg">
<g clip-path="url(#clip0_26_86)">
<path d="M171.894 61.949C171.894 64.2836 171.182 67.3993 169.757 71.296C168.71 74.1456 167.182 77.6561 165.174 81.8275C163.766 84.6771 162.367 87.5267 160.977 90.3763C160.702 90.9256 160.444 91.5264 160.204 92.1788C159.981 92.8482 159.844 93.2259 159.792 93.3117C159.741 93.4147 159.672 93.4662 159.586 93.4662C159.5 93.4662 159.406 93.3976 159.303 93.2602C159.217 93.1401 158.831 92.3161 158.144 90.7883C157.234 88.797 156.05 86.0504 154.591 82.5485C153.149 79.0466 151.999 76.197 151.14 73.9997C150.351 75.7678 149.553 77.536 148.746 79.3041C147.767 81.4327 146.789 83.5527 145.81 85.6642C144.66 88.1876 143.862 89.9643 143.416 90.9943C143.364 91.1316 143.218 91.5608 142.978 92.2818C142.841 92.7109 142.712 93.0199 142.592 93.2087C142.54 93.3289 142.463 93.389 142.36 93.389C142.291 93.389 142.231 93.3461 142.18 93.2602C142.145 93.2087 142.085 93.0542 141.999 92.7968C141.828 92.2989 141.665 91.8698 141.51 91.5093C140.36 88.6769 139.218 85.8358 138.085 82.9862C136.214 78.2827 134.781 74.3173 133.785 71.09C132.378 66.5238 131.674 63.0133 131.674 60.5585C131.674 58.8934 132.043 57.4257 132.781 56.1554C133.639 54.6619 134.798 53.9152 136.257 53.9152C137.184 53.9152 137.931 54.1727 138.497 54.6877C138.995 55.134 139.21 55.5975 139.141 56.0781C139.055 56.2498 139.004 56.3442 138.987 56.3614C138.901 56.4472 138.798 56.4386 138.678 56.3356C138.54 56.1983 138.334 56.0781 138.06 55.9751C137.802 55.8721 137.442 55.8206 136.978 55.8206C136.24 55.8206 135.674 56.2755 135.279 57.1854C134.97 57.9063 134.815 58.7732 134.815 59.786C134.815 61.125 134.996 62.5927 135.356 64.1892C135.648 65.4767 136.086 66.9873 136.669 68.7211C137.201 70.2145 137.734 71.6994 138.266 73.1757C138.952 75.0812 139.673 77.0038 140.429 78.9436C140.978 80.3341 141.587 81.8533 142.257 83.5012C142.617 84.411 142.986 85.3123 143.364 86.2049L149.956 71.5278C149.149 69.4678 148.565 67.7598 148.205 66.4036C147.759 64.7042 147.535 63.0991 147.535 61.5885C147.535 59.7345 147.922 58.284 148.694 57.2369C149.484 56.1897 150.591 55.6661 152.016 55.6661C153.303 55.6661 154.316 56.1382 155.054 57.0824C155.81 58.0093 156.187 59.2539 156.187 60.816C156.187 61.7773 155.87 63.185 155.235 65.0389C154.617 66.8757 153.938 68.4893 153.2 69.8798L160.359 86.7199C161.337 84.9174 162.384 82.7888 163.5 80.3341C164.994 77.021 166.178 73.9997 167.054 71.2703C168.186 67.6997 168.753 64.7814 168.753 62.5155C168.753 61.0392 168.461 59.7689 167.877 58.7046C167.208 57.4686 166.281 56.8506 165.097 56.8506C164.273 56.8506 163.672 57.0309 163.294 57.3914C162.916 57.7518 162.728 58.3784 162.728 59.2711C162.728 59.5114 162.676 59.6316 162.573 59.6316C162.539 59.6316 162.453 59.5972 162.316 59.5286C161.526 59.1337 161.131 58.4299 161.131 57.4171C161.131 56.267 161.663 55.3829 162.728 54.7649C163.586 54.2671 164.547 54.0182 165.612 54.0182C167.517 54.0182 169.053 54.7993 170.221 56.3614C171.336 57.8548 171.894 59.7174 171.894 61.949ZM154.23 61.125C154.23 60.2667 154.084 59.5371 153.793 58.9363C153.432 58.1982 152.909 57.8291 152.222 57.8291C151.552 57.8291 151.046 58.1381 150.703 58.7561C150.376 59.3741 150.213 60.095 150.213 60.919C150.213 62.0863 150.411 63.288 150.806 64.5239C151.132 65.5196 151.587 66.5496 152.17 67.6139C152.754 66.3779 153.2 65.3222 153.509 64.4467C153.99 63.0906 154.23 61.9833 154.23 61.125Z" fill="#009846"/>
<path d="M169.757 71.296L169.926 71.3579L169.926 71.3576L169.757 71.296ZM165.174 81.8275L165.335 81.907L165.335 81.9054L165.174 81.8275ZM160.977 90.3763L161.137 90.4566L161.138 90.455L160.977 90.3763ZM160.204 92.1788L160.036 92.1167L160.034 92.122L160.204 92.1788ZM159.792 93.3117L159.638 93.2191L159.632 93.2315L159.792 93.3117ZM159.303 93.2602L159.157 93.3646L159.159 93.3679L159.303 93.2602ZM158.144 90.7883L158.308 90.7147L158.307 90.7137L158.144 90.7883ZM154.591 82.5485L154.425 82.6168L154.425 82.6175L154.591 82.5485ZM151.14 73.9997L151.308 73.9344L151.151 73.5348L150.977 73.9265L151.14 73.9997ZM148.746 79.3041L148.909 79.379L148.909 79.3786L148.746 79.3041ZM145.81 85.6642L145.647 85.5887L145.647 85.5897L145.81 85.6642ZM143.416 90.9943L143.251 90.9229L143.248 90.9313L143.416 90.9943ZM142.978 92.2818L142.808 92.225L142.807 92.2271L142.978 92.2818ZM142.592 93.2087L142.44 93.1124L142.432 93.1247L142.427 93.1381L142.592 93.2087ZM142.18 93.2602L142.334 93.1678L142.329 93.1607L142.18 93.2602ZM141.999 92.7967L142.17 92.74L142.169 92.7383L141.999 92.7967ZM141.51 91.5093L141.344 91.5768L141.345 91.58L141.51 91.5093ZM138.085 82.9862L138.252 82.9199L138.252 82.9199L138.085 82.9862ZM133.785 71.09L133.614 71.1429L133.614 71.1429L133.785 71.09ZM132.781 56.1554L132.936 56.2455L132.937 56.2448L132.781 56.1554ZM138.497 54.6877L138.377 54.8205L138.378 54.8213L138.497 54.6877ZM139.141 56.0781L139.302 56.1584L139.315 56.1323L139.319 56.1035L139.141 56.0781ZM138.987 56.3614L139.114 56.4883L138.987 56.3614ZM138.678 56.3356L138.55 56.4629L138.561 56.4719L138.678 56.3356ZM138.06 55.9751L137.993 56.1418L137.997 56.1432L138.06 55.9751ZM135.279 57.1854L135.114 57.1139L135.114 57.1147L135.279 57.1854ZM135.356 64.1892L135.181 64.2287L135.181 64.2289L135.356 64.1892ZM136.669 68.7211L136.499 68.7783L136.5 68.7813L136.669 68.7211ZM138.266 73.1757L138.435 73.1149L138.435 73.1149L138.266 73.1757ZM140.429 78.9436L140.261 79.0087L140.262 79.0095L140.429 78.9436ZM142.257 83.5012L142.424 83.4351L142.423 83.4337L142.257 83.5012ZM143.364 86.2049L143.199 86.2748L143.359 86.6539L143.528 86.2784L143.364 86.2049ZM149.956 71.5278L150.12 71.6013L150.151 71.5325L150.123 71.4623L149.956 71.5278ZM148.205 66.4036L148.031 66.4492L148.032 66.4497L148.205 66.4036ZM148.694 57.2369L148.551 57.1288L148.55 57.1303L148.694 57.2369ZM155.054 57.0824L154.913 57.1929L154.915 57.1957L155.054 57.0824ZM155.235 65.0389L155.065 64.9808L155.064 64.9817L155.235 65.0389ZM153.2 69.8798L153.042 69.7957L153.002 69.8712L153.035 69.95L153.2 69.8798ZM160.359 86.7199L160.194 86.7901L160.339 87.1323L160.516 86.8055L160.359 86.7199ZM163.5 80.3341L163.663 80.4083L163.664 80.4078L163.5 80.3341ZM167.054 71.2703L167.224 71.3251L167.225 71.3245L167.054 71.2703ZM167.877 58.7046L167.72 58.79L167.72 58.7909L167.877 58.7046ZM162.316 59.5286L162.396 59.368L162.316 59.5286ZM162.728 54.7649L162.638 54.6097L162.638 54.6097L162.728 54.7649ZM170.221 56.3614L170.364 56.254L170.364 56.254L170.221 56.3614ZM153.793 58.9363L153.954 58.8579L153.954 58.8576L153.793 58.9363ZM150.703 58.7561L150.546 58.6689L150.544 58.6723L150.703 58.7561ZM150.806 64.5239L150.635 64.5785L150.635 64.5798L150.806 64.5239ZM152.17 67.6139L152.013 67.7001L152.182 68.0088L152.333 67.6905L152.17 67.6139ZM153.509 64.4467L153.34 64.3867L153.34 64.387L153.509 64.4467ZM171.715 61.949C171.715 64.2522 171.011 67.3445 169.589 71.2344L169.926 71.3576C171.353 67.454 172.074 64.315 172.074 61.949H171.715ZM169.589 71.2341C168.544 74.0763 167.019 77.5811 165.012 81.7497L165.335 81.9054C167.345 77.7312 168.876 74.215 169.926 71.3579L169.589 71.2341ZM165.013 81.748C163.605 84.5979 162.206 87.4478 160.815 90.2976L161.138 90.455C162.528 87.6057 163.927 84.7563 165.335 81.907L165.013 81.748ZM160.816 90.2961C160.538 90.852 160.278 91.459 160.036 92.1167L160.373 92.2408C160.611 91.5939 160.866 90.9992 161.137 90.4566L160.816 90.2961ZM160.034 92.122C159.923 92.4562 159.833 92.7162 159.765 92.9028C159.694 93.0978 159.653 93.1947 159.638 93.2194L159.946 93.4041C159.983 93.343 160.036 93.2081 160.102 93.0254C160.172 92.8344 160.263 92.5708 160.374 92.2355L160.034 92.122ZM159.632 93.2315C159.614 93.2662 159.6 93.2797 159.594 93.284C159.592 93.286 159.591 93.2863 159.591 93.2863C159.591 93.2864 159.589 93.2868 159.586 93.2868V93.6457C159.763 93.6457 159.883 93.5315 159.953 93.392L159.632 93.2315ZM159.586 93.2868C159.593 93.2868 159.584 93.2895 159.557 93.2696C159.529 93.2495 159.492 93.213 159.447 93.1526L159.159 93.3679C159.217 93.4448 159.279 93.5113 159.345 93.5599C159.412 93.6086 159.494 93.6457 159.586 93.6457V93.2868ZM159.449 93.1559C159.437 93.1397 159.404 93.0797 159.343 92.9579C159.285 92.8419 159.208 92.6814 159.111 92.476C158.919 92.0653 158.651 91.4784 158.308 90.7147L157.981 90.8619C158.324 91.626 158.593 92.215 158.786 92.6283C158.883 92.8348 158.962 92.9984 159.022 93.1184C159.079 93.2327 159.126 93.3207 159.157 93.3645L159.449 93.1559ZM158.307 90.7137C157.399 88.7251 156.215 85.9807 154.756 82.4795L154.425 82.6175C155.885 86.1202 157.07 88.8689 157.981 90.8629L158.307 90.7137ZM154.757 82.4802C153.315 78.9787 152.165 76.1303 151.308 73.9344L150.973 74.065C151.832 76.2637 152.983 79.1144 154.425 82.6168L154.757 82.4802ZM150.977 73.9265C150.187 75.6942 149.389 77.4619 148.582 79.2296L148.909 79.3786C149.716 77.61 150.514 75.8414 151.304 74.0729L150.977 73.9265ZM148.583 79.2291C147.604 81.3576 146.626 83.4774 145.647 85.5887L145.973 85.7396C146.952 83.628 147.93 81.5078 148.909 79.379L148.583 79.2291ZM145.647 85.5897C144.497 88.1132 143.698 89.8913 143.251 90.9229L143.58 91.0656C144.026 90.0374 144.823 88.2621 145.974 85.7386L145.647 85.5897ZM143.248 90.9313C143.195 91.0725 143.047 91.5057 142.808 92.225L143.148 92.3385C143.389 91.6158 143.534 91.1907 143.584 91.0573L143.248 90.9313ZM142.807 92.2271C142.671 92.6532 142.547 92.9439 142.44 93.1124L142.743 93.3051C142.876 93.0959 143.01 92.7686 143.149 92.3365L142.807 92.2271ZM142.427 93.1381C142.409 93.1792 142.393 93.1961 142.385 93.2023C142.379 93.2065 142.374 93.2095 142.36 93.2095V93.5684C142.449 93.5684 142.533 93.5415 142.605 93.4856C142.675 93.4317 142.723 93.3584 142.757 93.2794L142.427 93.1381ZM142.36 93.2095C142.362 93.2095 142.364 93.2099 142.367 93.2107C142.369 93.2115 142.369 93.212 142.368 93.2108C142.363 93.2077 142.351 93.1968 142.333 93.1679L142.026 93.3526C142.093 93.4654 142.202 93.5684 142.36 93.5684V93.2095ZM142.329 93.1607C142.329 93.1609 142.328 93.1586 142.324 93.1523C142.321 93.1464 142.317 93.1382 142.312 93.1275C142.302 93.1061 142.29 93.0774 142.276 93.0407C142.248 92.9674 142.212 92.8675 142.17 92.74L141.829 92.8535C141.872 92.9835 141.91 93.0896 141.942 93.1708C141.971 93.2465 142.001 93.3155 142.03 93.3598L142.329 93.1607ZM142.169 92.7383C141.996 92.2376 141.832 91.8042 141.675 91.4386L141.345 91.58C141.497 91.9354 141.659 92.3603 141.83 92.8553L142.169 92.7383ZM141.676 91.4418C140.526 88.6097 139.385 85.7691 138.252 82.9199L137.919 83.0525C139.052 85.9025 140.194 88.744 141.344 91.5768L141.676 91.4418ZM138.252 82.9199C136.382 78.2188 134.951 74.2582 133.957 71.0371L133.614 71.1429C134.611 74.3764 136.047 78.3465 137.919 83.0526L138.252 82.9199ZM133.957 71.0372C132.55 66.4751 131.853 62.9856 131.853 60.5585H131.494C131.494 63.041 132.205 66.5725 133.614 71.1429L133.957 71.0372ZM131.853 60.5585C131.853 58.9208 132.216 57.485 132.936 56.2455L132.626 56.0652C131.87 57.3664 131.494 58.866 131.494 60.5585H131.853ZM132.937 56.2448C133.77 54.7951 134.875 54.0946 136.257 54.0946V53.7357C134.721 53.7357 133.509 54.5288 132.625 56.066L132.937 56.2448ZM136.257 54.0946C137.149 54.0946 137.85 54.3416 138.377 54.8205L138.618 54.5549C138.012 54.0038 137.219 53.7357 136.257 53.7357V54.0946ZM138.378 54.8213C138.849 55.2441 139.021 55.6523 138.964 56.0528L139.319 56.1035C139.399 55.5426 139.141 55.0239 138.617 54.5541L138.378 54.8213ZM138.981 55.9979C138.938 56.083 138.905 56.1473 138.881 56.1918C138.868 56.2141 138.859 56.2298 138.853 56.24C138.844 56.2556 138.847 56.2472 138.86 56.2345L139.114 56.4883C139.135 56.467 139.151 56.4404 139.159 56.4281C139.17 56.4103 139.182 56.3885 139.196 56.3636C139.223 56.3136 139.258 56.2449 139.302 56.1584L138.981 55.9979ZM138.86 56.2345C138.852 56.2422 138.849 56.2429 138.851 56.242C138.854 56.2407 138.858 56.2403 138.86 56.2405C138.861 56.2406 138.84 56.2386 138.794 56.1994L138.561 56.4719C138.635 56.5357 138.726 56.5895 138.83 56.5982C138.944 56.6076 139.041 56.5613 139.114 56.4883L138.86 56.2345ZM138.805 56.2087C138.642 56.0465 138.41 55.9149 138.123 55.8071L137.997 56.1432C138.258 56.2413 138.438 56.3502 138.551 56.4625L138.805 56.2087ZM138.126 55.8085C137.838 55.6932 137.451 55.6412 136.978 55.6412V56.0001C137.432 56.0001 137.766 56.0511 137.993 56.1418L138.126 55.8085ZM136.978 55.6412C136.569 55.6412 136.203 55.7684 135.887 56.0219C135.575 56.273 135.319 56.6416 135.114 57.1139L135.443 57.2568C135.633 56.8193 135.858 56.5055 136.112 56.3017C136.363 56.1003 136.649 56.0001 136.978 56.0001V55.6412ZM135.114 57.1147C134.793 57.8635 134.636 58.7557 134.636 59.786H134.995C134.995 58.7908 135.147 57.9492 135.444 57.2561L135.114 57.1147ZM134.636 59.786C134.636 61.1409 134.818 62.622 135.181 64.2287L135.531 64.1497C135.173 62.5634 134.995 61.1092 134.995 59.786H134.636ZM135.181 64.2289C135.475 65.524 135.914 67.0408 136.499 68.7783L136.839 68.6638C136.257 66.9338 135.821 65.4293 135.531 64.1495L135.181 64.2289ZM136.5 68.7813C137.032 70.275 137.565 71.7601 138.097 73.2366L138.435 73.1149C137.902 71.6388 137.37 70.1541 136.838 68.6608L136.5 68.7813ZM138.097 73.2366C138.784 75.1435 139.506 77.0675 140.261 79.0087L140.596 78.8785C139.841 76.9401 139.121 75.0189 138.435 73.1149L138.097 73.2366ZM140.262 79.0095C140.811 80.4006 141.421 81.9204 142.091 83.5688L142.423 83.4337C141.754 81.7862 141.145 80.2675 140.596 78.8776L140.262 79.0095ZM142.09 83.5673C142.451 84.4784 142.821 85.3809 143.199 86.2748L143.529 86.135C143.152 85.2436 142.784 84.3437 142.424 83.4351L142.09 83.5673ZM143.528 86.2784L150.12 71.6013L149.792 71.4542L143.2 86.1314L143.528 86.2784ZM150.123 71.4623C149.317 69.4055 148.736 67.7045 148.378 66.3575L148.032 66.4497C148.394 67.8151 148.981 69.5301 149.789 71.5932L150.123 71.4623ZM148.379 66.3581C147.935 64.6711 147.715 63.0815 147.715 61.5885H147.356C147.356 63.1168 147.582 64.7372 148.031 66.4492L148.379 66.3581ZM147.715 61.5885C147.715 59.7571 148.097 58.349 148.839 57.3434L148.55 57.1303C147.747 58.219 147.356 59.712 147.356 61.5885H147.715ZM148.837 57.3449C149.59 56.347 150.642 55.8456 152.016 55.8456V55.4867C150.54 55.4867 149.378 56.0324 148.551 57.1288L148.837 57.3449ZM152.016 55.8456C153.253 55.8456 154.212 56.2958 154.913 57.1929L155.196 56.9718C154.421 55.9806 153.354 55.4867 152.016 55.4867V55.8456ZM154.915 57.1957C155.637 58.082 156.008 59.2824 156.008 60.816H156.367C156.367 59.2254 155.982 57.9367 155.193 56.969L154.915 57.1957ZM156.008 60.816C156.008 61.7461 155.699 63.1303 155.065 64.9808L155.404 65.0971C156.041 63.2397 156.367 61.8086 156.367 60.816H156.008ZM155.064 64.9817C154.449 66.8112 153.774 68.4155 153.042 69.7957L153.359 69.9639C154.102 68.5631 154.784 66.9402 155.405 65.0961L155.064 64.9817ZM153.035 69.95L160.194 86.7901L160.524 86.6497L153.365 69.8096L153.035 69.95ZM160.516 86.8055C161.497 84.9984 162.546 82.8658 163.663 80.4083L163.337 80.2598C162.222 82.7118 161.177 84.8365 160.201 86.6343L160.516 86.8055ZM163.664 80.4078C165.159 77.0901 166.346 74.0624 167.224 71.3251L166.883 71.2155C166.01 73.937 164.828 76.9518 163.336 80.2603L163.664 80.4078ZM167.225 71.3245C168.36 67.7463 168.932 64.8079 168.932 62.5155H168.574C168.574 64.7549 168.013 67.6531 166.882 71.216L167.225 71.3245ZM168.932 62.5155C168.932 61.0155 168.636 59.7142 168.035 58.6183L167.72 58.7909C168.286 59.8236 168.574 61.0629 168.574 62.5155H168.932ZM168.035 58.6191C167.341 57.3382 166.36 56.6712 165.097 56.6712V57.0301C166.202 57.0301 167.075 57.599 167.72 58.79L168.035 58.6191ZM165.097 56.6712C164.252 56.6712 163.596 56.855 163.17 57.2615L163.418 57.5212C163.747 57.2067 164.293 57.0301 165.097 57.0301V56.6712ZM163.17 57.2615C162.739 57.6733 162.548 58.3621 162.548 59.2711H162.907C162.907 58.3947 163.094 57.8304 163.418 57.5212L163.17 57.2615ZM162.548 59.2711C162.548 59.3839 162.535 59.4446 162.524 59.4707C162.519 59.4819 162.519 59.4762 162.531 59.4674C162.544 59.4565 162.561 59.4521 162.573 59.4521V59.811C162.637 59.811 162.698 59.7915 162.751 59.7507C162.801 59.7118 162.833 59.661 162.854 59.6121C162.894 59.5181 162.907 59.3986 162.907 59.2711H162.548ZM162.573 59.4521C162.59 59.4521 162.597 59.4554 162.587 59.4526C162.58 59.4505 162.568 59.4465 162.55 59.4392C162.513 59.4247 162.463 59.4014 162.396 59.368L162.235 59.6891C162.306 59.7244 162.367 59.7526 162.416 59.7724C162.441 59.7823 162.465 59.7911 162.488 59.7977C162.509 59.8034 162.539 59.811 162.573 59.811V59.4521ZM162.396 59.368C162.03 59.1851 161.762 58.9344 161.584 58.6168C161.405 58.2977 161.311 57.9005 161.311 57.4171H160.952C160.952 57.9465 161.055 58.4076 161.271 58.7924C161.487 59.1785 161.812 59.4772 162.235 59.6891L162.396 59.368ZM161.311 57.4171C161.311 56.3362 161.804 55.5087 162.818 54.9201L162.638 54.6097C161.523 55.2571 160.952 56.1977 160.952 57.4171H161.311ZM162.818 54.9202C163.647 54.4393 164.576 54.1976 165.612 54.1976V53.8387C164.518 53.8387 163.525 54.0948 162.638 54.6097L162.818 54.9202ZM165.612 54.1976C167.459 54.1976 168.943 54.9508 170.077 56.4688L170.364 56.254C169.164 54.6477 167.575 53.8387 165.612 53.8387V54.1976ZM170.077 56.4688C171.165 57.9255 171.715 59.7483 171.715 61.949H172.074C172.074 59.6865 171.508 57.7842 170.364 56.254L170.077 56.4688ZM154.41 61.125C154.41 60.247 154.261 59.4891 153.954 58.8579L153.631 59.0147C153.908 59.5852 154.051 60.2864 154.051 61.125H154.41ZM153.954 58.8576C153.764 58.4688 153.525 58.1654 153.233 57.9592C152.939 57.7518 152.599 57.6496 152.222 57.6496V58.0085C152.531 58.0085 152.797 58.0909 153.026 58.2526C153.257 58.4155 153.461 58.6657 153.631 59.0151L153.954 58.8576ZM152.222 57.6496C151.858 57.6496 151.531 57.7338 151.246 57.9077C150.962 58.0812 150.73 58.338 150.546 58.6689L150.86 58.8432C151.019 58.5561 151.211 58.3495 151.433 58.214C151.655 58.0788 151.916 58.0085 152.222 58.0085V57.6496ZM150.544 58.6723C150.202 59.3204 150.034 60.0711 150.034 60.919H150.393C150.393 60.119 150.551 59.4277 150.861 58.8398L150.544 58.6723ZM150.034 60.919C150.034 62.1068 150.235 63.3269 150.635 64.5785L150.977 64.4693C150.587 63.2491 150.393 62.0659 150.393 60.919H150.034ZM150.635 64.5798C150.965 65.5875 151.425 66.6276 152.013 67.7001L152.328 67.5276C151.749 66.4715 151.298 65.4517 150.976 64.4681L150.635 64.5798ZM152.333 67.6905C152.918 66.4513 153.367 65.3896 153.679 64.5064L153.34 64.387C153.034 65.2547 152.59 66.3045 152.008 67.5372L152.333 67.6905ZM153.678 64.5066C154.162 63.1424 154.41 62.013 154.41 61.125H154.051C154.051 61.9537 153.818 63.0387 153.34 64.3867L153.678 64.5066Z" fill="#009846"/>
<path d="M31.1251 -0.951613L54.2471 40.8703H34.2176L31.4719 35.5811H21.7607L13.2055 35.5522L11.7604 35.5233L9.85282 39.0494C9.29404 40.1092 8.89904 40.7643 8.66782 41.0148C8.45587 41.2846 8.18611 41.4194 7.85855 41.4194C7.20343 41.4194 6.87587 41.1304 6.87587 40.5524C6.87587 40.3019 7.05892 39.8394 7.42501 39.1651C7.81038 38.4714 9.13026 36.217 11.3847 32.4019L28.8707 2.95022L31.1251 -0.951613ZM22.1364 17.9795L17.0784 26.5058L13.0321 33.5291L21.7028 33.6447L30.4025 33.558L22.1364 17.9795ZM92.3116 20.6096V15.7829L92.2538 8.12377L92.2249 4.62657L92.196 2.42998C92.196 1.38949 92.5525 0.869244 93.2654 0.869244C93.6893 0.869244 93.9784 0.994488 94.1325 1.24498C94.3059 1.4762 94.3926 1.929 94.3926 2.60339V3.00803C94.3734 3.41266 94.3637 4.07742 94.3637 5.0023L94.2481 14.7424L94.1614 23.6733L94.2481 33.0666L94.3637 42.4888C90.3945 40.0032 84.585 36.5735 76.9355 32.1996C69.286 27.8064 63.0912 24.3573 58.3512 21.8525L58.3801 23.2687L58.6691 38.1824L58.698 40.1766C58.698 41.0052 58.3127 41.4194 57.5419 41.4194C56.7519 41.4194 56.3569 40.9088 56.3569 39.8876L56.3858 37.8644L56.4147 34.5985L56.5304 19.7715L56.2991 -0.200148C64.1028 4.6362 76.107 11.5728 92.3116 20.6096ZM126.561 3.35486L126.417 12.4013L126.33 20.9854L126.417 40.8703H108.786L108.959 17.835L108.873 10.0024L108.786 3.35486L104.971 3.44157L99.5084 3.55718L98.6991 3.58608C97.7742 3.58608 97.3118 3.23925 97.3118 2.54559C97.3118 1.929 97.5815 1.58217 98.1211 1.5051C98.2752 1.46656 98.7473 1.43766 99.5373 1.41839H135.001C136.234 1.43766 136.966 1.49547 137.197 1.59181C137.583 1.74595 137.775 2.07351 137.775 2.57449C137.775 3.22961 137.284 3.55718 136.301 3.55718L133.787 3.47047L127.139 3.35486H126.561ZM157.66 -0.951613L180.782 40.8703H160.753L158.007 35.5811H148.296L139.741 35.5522L138.296 35.5233L136.388 39.0494C135.829 40.1092 135.434 40.7643 135.203 41.0148C134.991 41.2846 134.721 41.4194 134.394 41.4194C133.739 41.4194 133.411 41.1304 133.411 40.5524C133.411 40.3019 133.594 39.8394 133.96 39.1651C134.346 38.4714 135.665 36.217 137.92 32.4019L155.406 2.95022L157.66 -0.951613ZM148.672 17.9795L143.614 26.5058L139.567 33.5291L148.238 33.6447L156.938 33.558L148.672 17.9795ZM201.187 1.41839L201.072 7.45901L200.956 17.0835L200.985 24.1069L201.101 38.9916L203.182 39.0205L215.552 38.8471L217.806 38.8182C218.943 38.8182 219.512 39.1554 219.512 39.8298C219.512 40.4271 219.203 40.7547 218.587 40.8125C218.452 40.8318 218.009 40.851 217.257 40.8703H183.412L183.499 29.8874L183.557 23.1531L183.615 15.5228L183.499 3.90401L183.528 1.41839H201.187ZM245.379 16.4766L254.57 3.03693C255.187 2.05425 255.611 1.44729 255.842 1.21607C256.073 0.984854 256.372 0.869244 256.738 0.869244C257.066 0.869244 257.335 0.955952 257.547 1.12937C257.778 1.30278 257.894 1.51473 257.894 1.76522C257.894 2.01571 257.778 2.31437 257.547 2.6612C257.393 2.91169 257.2 3.18144 256.969 3.47047L256.044 4.71328L232.547 37.7488L231.593 39.0494C230.764 40.2055 230.234 40.8896 230.003 41.1015C229.791 41.3135 229.493 41.4194 229.107 41.4194C228.491 41.4194 228.182 41.1497 228.182 40.6102C228.182 40.3212 228.462 39.8491 229.02 39.194L235.61 30.2342L234.801 29.1359C228.943 21.2551 224.801 15.7637 222.373 12.6615C219.964 9.55926 216.901 5.81157 213.182 1.41839H234.136L245.379 16.4766ZM273.328 -0.951613L296.45 40.8703H276.421L273.675 35.5811H263.964L255.408 35.5522L253.963 35.5233L252.056 39.0494C251.497 40.1092 251.102 40.7643 250.871 41.0148C250.659 41.2846 250.389 41.4194 250.061 41.4194C249.406 41.4194 249.079 41.1304 249.079 40.5524C249.079 40.3019 249.262 39.8394 249.628 39.1651C250.013 38.4714 251.333 36.217 253.588 32.4019L271.074 2.95022L273.328 -0.951613ZM264.339 17.9795L259.281 26.5058L255.235 33.5291L263.906 33.6447L272.605 33.558L264.339 17.9795Z" fill="#EF7F1A"/>
<path d="M31.1251 -0.951613L31.2511 -1.02129L31.1278 -1.24423L31.0004 -1.02365L31.1251 -0.951613ZM54.2471 40.8703V41.0143H54.4912L54.3731 40.8006L54.2471 40.8703ZM34.2176 40.8703L34.0898 40.9366L34.1301 41.0143H34.2176V40.8703ZM31.4719 35.5811L31.5997 35.5148L31.5594 35.4371H31.4719V35.5811ZM21.7607 35.5811L21.7602 35.7251H21.7607V35.5811ZM13.2055 35.5522L13.2026 35.6962L13.205 35.6962L13.2055 35.5522ZM11.7604 35.5233L11.7633 35.3794L11.6755 35.3776L11.6337 35.4548L11.7604 35.5233ZM9.85282 39.0494L9.72616 38.9809L9.72545 38.9823L9.85282 39.0494ZM8.66782 41.0148L8.56168 40.9168L8.55459 40.9258L8.66782 41.0148ZM7.42501 39.1651L7.29913 39.0951L7.29846 39.0964L7.42501 39.1651ZM11.3847 32.4019L11.2608 32.3284L11.2607 32.3286L11.3847 32.4019ZM28.8707 2.95022L28.9945 3.02374L28.9954 3.02226L28.8707 2.95022ZM22.1364 17.9795L22.2636 17.912L22.1434 17.6855L22.0125 17.9061L22.1364 17.9795ZM17.0784 26.5058L16.9546 26.4323L16.9537 26.4339L17.0784 26.5058ZM13.0321 33.5291L12.9073 33.4572L12.7848 33.6698L13.0302 33.6731L13.0321 33.5291ZM21.7028 33.6447L21.7009 33.7887L21.7043 33.7887L21.7028 33.6447ZM30.4025 33.558L30.4039 33.702L30.6407 33.6996L30.5297 33.4905L30.4025 33.558ZM30.999 -0.88194L54.121 40.94L54.3731 40.8006L31.2511 -1.02129L30.999 -0.88194ZM54.2471 40.7263H34.2176V41.0143H54.2471V40.7263ZM34.3454 40.804L31.5997 35.5148L31.3441 35.6475L34.0898 40.9366L34.3454 40.804ZM31.4719 35.4371H21.7607V35.7251H31.4719V35.4371ZM21.7611 35.4371L13.206 35.4082L13.205 35.6962L21.7602 35.7251L21.7611 35.4371ZM13.2084 35.4083L11.7633 35.3794L11.7575 35.6673L13.2026 35.6962L13.2084 35.4083ZM11.6337 35.4548L9.72617 38.9809L9.97948 39.118L11.887 35.5919L11.6337 35.4548ZM9.72545 38.9823C9.44671 39.5109 9.20969 39.937 9.01417 40.2612C8.81707 40.5881 8.66688 40.8035 8.56201 40.9171L8.77363 41.1125C8.89998 40.9756 9.06291 40.7382 9.26081 40.41C9.46029 40.0791 9.70016 39.6477 9.9802 39.1166L9.72545 38.9823ZM8.55459 40.9258C8.36844 41.1628 8.13956 41.2754 7.85855 41.2754V41.5634C8.23267 41.5634 8.5433 41.4064 8.78105 41.1038L8.55459 40.9258ZM7.85855 41.2754C7.54906 41.2754 7.34384 41.2068 7.21681 41.0947C7.09322 40.9857 7.01987 40.8142 7.01987 40.5524H6.73187C6.73187 40.8686 6.82229 41.1307 7.02627 41.3107C7.2268 41.4876 7.51292 41.5634 7.85855 41.5634V41.2754ZM7.01987 40.5524C7.01987 40.4555 7.05693 40.2983 7.14705 40.0707C7.23563 39.8469 7.36997 39.5683 7.55157 39.2338L7.29846 39.0964C7.11396 39.4362 6.97373 39.726 6.87926 39.9647C6.78632 40.1995 6.73187 40.3987 6.73187 40.5524H7.01987ZM7.55089 39.235C7.93508 38.5435 9.25367 36.2912 11.5086 32.4751L11.2607 32.3286C9.00686 36.1428 7.68569 38.3993 7.29914 39.0951L7.55089 39.235ZM11.5085 32.4754L28.9945 3.02374L28.7468 2.87671L11.2608 32.3284L11.5085 32.4754ZM28.9954 3.02226L31.2497 -0.879573L31.0004 -1.02365L28.746 2.87818L28.9954 3.02226ZM22.0125 17.9061L16.9546 26.4323L17.2023 26.5792L22.2602 18.053L22.0125 17.9061ZM16.9537 26.4339L12.9073 33.4572L13.1569 33.601L17.2032 26.5776L16.9537 26.4339ZM13.0302 33.6731L21.7009 33.7887L21.7048 33.5007L13.034 33.3851L13.0302 33.6731ZM21.7043 33.7887L30.4039 33.702L30.4011 33.414L21.7014 33.5007L21.7043 33.7887ZM30.5297 33.4905L22.2636 17.912L22.0092 18.047L30.2753 33.6255L30.5297 33.4905ZM92.3116 20.6096L92.2415 20.7354L92.4557 20.8548V20.6096H92.3116ZM92.3116 15.7829H92.4557L92.4556 15.7818L92.3116 15.7829ZM92.2538 8.12377L92.3978 8.12268V8.12258L92.2538 8.12377ZM92.2249 4.62657L92.3689 4.62538L92.3689 4.62467L92.2249 4.62657ZM92.196 2.42998H92.052L92.0521 2.43187L92.196 2.42998ZM94.1325 1.24498L94.0093 1.32077L94.0173 1.33138L94.1325 1.24498ZM94.3926 3.00803L94.5366 3.01489V3.00803H94.3926ZM94.3637 5.0023L94.5077 5.00401V5.0023H94.3637ZM94.2481 14.7424L94.1041 14.7407V14.741L94.2481 14.7424ZM94.1614 23.6733L94.0174 23.6719L94.0174 23.6746L94.1614 23.6733ZM94.2481 33.0666L94.1041 33.068L94.1041 33.0684L94.2481 33.0666ZM94.3637 42.4888L94.2873 42.6109L94.511 42.7509L94.5077 42.4871L94.3637 42.4888ZM76.9355 32.1996L76.8638 32.3244L76.864 32.3246L76.9355 32.1996ZM58.3512 21.8525L58.4185 21.7251L58.2023 21.6109L58.2072 21.8554L58.3512 21.8525ZM58.3801 23.2687L58.5241 23.2659L58.5241 23.2657L58.3801 23.2687ZM58.6691 38.1824L58.8131 38.1803L58.8131 38.1796L58.6691 38.1824ZM58.698 40.1766H58.8421L58.842 40.1746L58.698 40.1766ZM56.3569 39.8876L56.2129 39.8856V39.8876H56.3569ZM56.3858 37.8644L56.5298 37.8665L56.5298 37.8657L56.3858 37.8644ZM56.4147 34.5985L56.5587 34.5997V34.5996L56.4147 34.5985ZM56.5304 19.7715L56.6744 19.7726L56.6743 19.7698L56.5304 19.7715ZM56.2991 -0.200149L56.375 -0.322548L56.1521 -0.46068L56.1551 -0.198482L56.2991 -0.200149ZM92.4557 20.6096V15.7829H92.1676V20.6096H92.4557ZM92.4556 15.7818L92.3978 8.12268L92.1098 8.12486L92.1677 15.784L92.4556 15.7818ZM92.3978 8.12258L92.3689 4.62538L92.0809 4.62776L92.1098 8.12496L92.3978 8.12258ZM92.3689 4.62467L92.34 2.42808L92.0521 2.43187L92.081 4.62846L92.3689 4.62467ZM92.34 2.42998C92.34 1.9217 92.4279 1.56596 92.5822 1.34082C92.7297 1.12548 92.9492 1.01324 93.2654 1.01324V0.725245C92.8687 0.725245 92.5535 0.873131 92.3446 1.17803C92.1424 1.47314 92.052 1.89777 92.052 2.42998H92.34ZM93.2654 1.01324C93.6634 1.01324 93.8925 1.12967 94.0099 1.32045L94.2551 1.16951C94.0643 0.859303 93.7152 0.725245 93.2654 0.725245V1.01324ZM94.0173 1.33138C94.0853 1.42208 94.1447 1.56877 94.1862 1.78508C94.2272 1.9995 94.2486 2.27153 94.2486 2.60339H94.5366C94.5366 2.26087 94.5147 1.9693 94.469 1.73091C94.4237 1.49442 94.3531 1.2991 94.2477 1.15858L94.0173 1.33138ZM94.2486 2.60339V3.00803H94.5366V2.60339H94.2486ZM94.2488 3.00118C94.2293 3.40953 94.2197 4.07727 94.2197 5.0023H94.5077C94.5077 4.07757 94.5174 3.4158 94.5365 3.01488L94.2488 3.00118ZM94.2197 5.00059L94.1041 14.7407L94.3921 14.7442L94.5077 5.00401L94.2197 5.00059ZM94.1041 14.741L94.0174 23.6719L94.3054 23.6747L94.3921 14.7438L94.1041 14.741ZM94.0174 23.6746L94.1041 33.068L94.3921 33.0653L94.3054 23.672L94.0174 23.6746ZM94.1041 33.0684L94.2197 42.4906L94.5077 42.4871L94.3921 33.0649L94.1041 33.0684ZM94.4402 42.3668C90.4684 39.8796 84.657 36.4487 77.007 32.0745L76.864 32.3246C84.5131 36.6982 90.3205 40.1268 94.2873 42.6109L94.4402 42.3668ZM77.0072 32.0747C69.357 27.6811 63.1606 24.2312 58.4185 21.7251L58.2839 21.9798C63.0218 24.4835 69.2149 27.9316 76.8638 32.3244L77.0072 32.0747ZM58.2072 21.8554L58.2361 23.2716L58.5241 23.2657L58.4952 21.8495L58.2072 21.8554ZM58.2361 23.2715L58.5252 38.1852L58.8131 38.1796L58.5241 23.2659L58.2361 23.2715ZM58.5252 38.1845L58.5541 40.1787L58.842 40.1746L58.8131 38.1803L58.5252 38.1845ZM58.554 40.1766C58.554 40.5712 58.4621 40.8403 58.3036 41.0107C58.1469 41.1791 57.9023 41.2754 57.5419 41.2754V41.5634C57.9523 41.5634 58.2858 41.4527 58.5145 41.2068C58.7413 40.9629 58.842 40.6106 58.842 40.1766H58.554ZM57.5419 41.2754C57.1804 41.2754 56.9312 41.1605 56.7671 40.9484C56.5976 40.7292 56.5009 40.3837 56.5009 39.8876H56.2129C56.2129 40.4128 56.3138 40.8331 56.5393 41.1246C56.7702 41.4231 57.1135 41.5634 57.5419 41.5634V41.2754ZM56.5009 39.8897L56.5298 37.8665L56.2419 37.8624L56.213 39.8856L56.5009 39.8897ZM56.5298 37.8657L56.5587 34.5997L56.2708 34.5972L56.2419 37.8632L56.5298 37.8657ZM56.5587 34.5996L56.6744 19.7726L56.3864 19.7704L56.2708 34.5973L56.5587 34.5996ZM56.6743 19.7698L56.4431 -0.201816L56.1551 -0.198482L56.3864 19.7731L56.6743 19.7698ZM56.2233 -0.0777483C64.0299 4.76042 76.0364 11.6983 92.2415 20.7354L92.3818 20.4839C76.1775 11.4473 64.1757 4.51198 56.375 -0.322548L56.2233 -0.0777483ZM126.561 3.35486V3.21086H126.419L126.417 3.35256L126.561 3.35486ZM126.417 12.4013L126.273 12.399L126.273 12.3999L126.417 12.4013ZM126.33 20.9854L126.186 20.9839L126.186 20.986L126.33 20.9854ZM126.417 40.8703V41.0143H126.561L126.561 40.8697L126.417 40.8703ZM108.786 40.8703L108.642 40.8692L108.641 41.0143H108.786V40.8703ZM108.959 17.835L109.104 17.8361L109.103 17.8334L108.959 17.835ZM108.873 10.0024L109.017 10.0008L109.017 10.0006L108.873 10.0024ZM108.786 3.35486L108.93 3.35298L108.928 3.20759L108.783 3.2109L108.786 3.35486ZM104.971 3.44157L104.974 3.58554L104.974 3.58553L104.971 3.44157ZM99.5084 3.55718L99.5053 3.41319L99.5032 3.41327L99.5084 3.55718ZM98.6991 3.58608V3.73017L98.7042 3.72999L98.6991 3.58608ZM98.1211 1.5051L98.1414 1.64765L98.1488 1.6466L98.156 1.6448L98.1211 1.5051ZM99.5373 1.41839V1.27435L99.5338 1.27443L99.5373 1.41839ZM135.001 1.41839L135.003 1.27439H135.001V1.41839ZM137.197 1.59181L137.142 1.72474L137.144 1.72551L137.197 1.59181ZM136.301 3.55718L136.296 3.70118H136.301V3.55718ZM133.787 3.47047L133.792 3.32653L133.789 3.32649L133.787 3.47047ZM127.139 3.35486L127.142 3.21086H127.139V3.35486ZM126.417 3.35256L126.273 12.399L126.561 12.4036L126.705 3.35716L126.417 3.35256ZM126.273 12.3999L126.186 20.9839L126.474 20.9868L126.561 12.4028L126.273 12.3999ZM126.186 20.986L126.273 40.8709L126.561 40.8697L126.474 20.9848L126.186 20.986ZM126.417 40.7263H108.786V41.0143H126.417V40.7263ZM108.93 40.8714L109.103 17.8361L108.815 17.8339L108.642 40.8692L108.93 40.8714ZM109.103 17.8334L109.017 10.0008L108.729 10.004L108.815 17.8366L109.103 17.8334ZM109.017 10.0006L108.93 3.35298L108.642 3.35674L108.729 10.0043L109.017 10.0006ZM108.783 3.2109L104.968 3.2976L104.974 3.58553L108.789 3.49882L108.783 3.2109ZM104.968 3.2976L99.5053 3.41321L99.5114 3.70115L104.974 3.58554L104.968 3.2976ZM99.5032 3.41327L98.694 3.44217L98.7042 3.72999L99.5135 3.70108L99.5032 3.41327ZM98.6991 3.44208C98.2505 3.44208 97.9403 3.35724 97.745 3.21076C97.5575 3.07012 97.4558 2.85728 97.4558 2.54559H97.1678C97.1678 2.92755 97.2973 3.23496 97.5722 3.44116C97.8393 3.64151 98.2228 3.73008 98.6991 3.73008V3.44208ZM97.4558 2.54559C97.4558 2.25667 97.5191 2.05113 97.6278 1.91143C97.7345 1.77417 97.8993 1.68225 98.1414 1.64765L98.1007 1.36255C97.8033 1.40502 97.5634 1.52505 97.4004 1.73462C97.2393 1.94175 97.1678 2.21792 97.1678 2.54559H97.4558ZM98.156 1.6448C98.218 1.62928 98.3613 1.61284 98.5995 1.59825C98.833 1.58395 99.1466 1.57196 99.5408 1.56235L99.5338 1.27443C99.138 1.28409 98.8205 1.29618 98.5819 1.31079C98.3481 1.32511 98.1782 1.34238 98.0861 1.3654L98.156 1.6448ZM99.5373 1.56239H135.001V1.27439H99.5373V1.56239ZM134.998 1.56237C135.614 1.57199 136.102 1.59119 136.463 1.61975C136.644 1.63403 136.792 1.65053 136.907 1.66897C137.025 1.68779 137.1 1.70739 137.142 1.72473L137.253 1.45888C137.179 1.42806 137.076 1.40429 136.953 1.38458C136.827 1.36449 136.671 1.34726 136.486 1.33264C136.116 1.3034 135.621 1.28406 135.003 1.27441L134.998 1.56237ZM137.144 1.72551C137.31 1.79189 137.428 1.89239 137.507 2.0261C137.586 2.16178 137.631 2.34173 137.631 2.57449H137.919C137.919 2.30627 137.868 2.07195 137.755 1.88008C137.641 1.68623 137.47 1.54587 137.251 1.45811L137.144 1.72551ZM137.631 2.57449C137.631 2.86011 137.528 3.05788 137.327 3.19169C137.116 3.33237 136.781 3.41318 136.301 3.41318V3.70118C136.804 3.70118 137.206 3.6182 137.487 3.43132C137.777 3.23757 137.919 2.944 137.919 2.57449H137.631ZM136.306 3.41326L133.792 3.32656L133.782 3.61438L136.296 3.70109L136.306 3.41326ZM133.789 3.32649L127.142 3.21088L127.137 3.49884L133.784 3.61445L133.789 3.32649ZM127.139 3.21086H126.561V3.49886H127.139V3.21086ZM157.66 -0.951613L157.786 -1.02129L157.663 -1.24423L157.536 -1.02365L157.66 -0.951613ZM180.782 40.8703V41.0143H181.026L180.908 40.8006L180.782 40.8703ZM160.753 40.8703L160.625 40.9366L160.665 41.0143H160.753V40.8703ZM158.007 35.5811L158.135 35.5148L158.095 35.4371H158.007V35.5811ZM148.296 35.5811L148.295 35.7251H148.296V35.5811ZM139.741 35.5522L139.738 35.6962L139.74 35.6962L139.741 35.5522ZM138.296 35.5233L138.298 35.3794L138.211 35.3776L138.169 35.4548L138.296 35.5233ZM136.388 39.0494L136.261 38.9809L136.261 38.9823L136.388 39.0494ZM135.203 41.0148L135.097 40.9168L135.09 40.9258L135.203 41.0148ZM133.96 39.1651L133.834 39.0951L133.834 39.0964L133.96 39.1651ZM137.92 32.4019L137.796 32.3284L137.796 32.3286L137.92 32.4019ZM155.406 2.95022L155.53 3.02374L155.53 3.02226L155.406 2.95022ZM148.672 17.9795L148.799 17.912L148.679 17.6855L148.548 17.9061L148.672 17.9795ZM143.614 26.5058L143.49 26.4323L143.489 26.4339L143.614 26.5058ZM139.567 33.5291L139.442 33.4572L139.32 33.6698L139.565 33.6731L139.567 33.5291ZM148.238 33.6447L148.236 33.7887L148.239 33.7887L148.238 33.6447ZM156.938 33.558L156.939 33.702L157.176 33.6996L157.065 33.4905L156.938 33.558ZM157.534 -0.88194L180.656 40.94L180.908 40.8006L157.786 -1.02129L157.534 -0.88194ZM180.782 40.7263H160.753V41.0143H180.782V40.7263ZM160.881 40.804L158.135 35.5148L157.879 35.6475L160.625 40.9366L160.881 40.804ZM158.007 35.4371H148.296V35.7251H158.007V35.4371ZM148.296 35.4371L139.741 35.4082L139.74 35.6962L148.295 35.7251L148.296 35.4371ZM139.744 35.4083L138.298 35.3794L138.293 35.6673L139.738 35.6962L139.744 35.4083ZM138.169 35.4548L136.261 38.9809L136.515 39.118L138.422 35.5919L138.169 35.4548ZM136.261 38.9823C135.982 39.5109 135.745 39.937 135.549 40.2612C135.352 40.5881 135.202 40.8035 135.097 40.9171L135.309 41.1125C135.435 40.9756 135.598 40.7382 135.796 40.41C135.995 40.0791 136.235 39.6477 136.515 39.1166L136.261 38.9823ZM135.09 40.9258C134.904 41.1628 134.675 41.2754 134.394 41.2754V41.5634C134.768 41.5634 135.078 41.4064 135.316 41.1038L135.09 40.9258ZM134.394 41.2754C134.084 41.2754 133.879 41.2068 133.752 41.0947C133.628 40.9857 133.555 40.8142 133.555 40.5524H133.267C133.267 40.8686 133.357 41.1307 133.561 41.3107C133.762 41.4876 134.048 41.5634 134.394 41.5634V41.2754ZM133.555 40.5524C133.555 40.4555 133.592 40.2983 133.682 40.0707C133.771 39.8469 133.905 39.5683 134.087 39.2338L133.834 39.0964C133.649 39.4362 133.509 39.726 133.414 39.9647C133.321 40.1995 133.267 40.3987 133.267 40.5524H133.555ZM134.086 39.235C134.47 38.5435 135.789 36.2912 138.044 32.4751L137.796 32.3286C135.542 36.1428 134.221 38.3993 133.834 39.0951L134.086 39.235ZM138.044 32.4754L155.53 3.02374L155.282 2.87671L137.796 32.3284L138.044 32.4754ZM155.53 3.02226L157.785 -0.879573L157.536 -1.02365L155.281 2.87818L155.53 3.02226ZM148.548 17.9061L143.49 26.4323L143.737 26.5792L148.795 18.053L148.548 17.9061ZM143.489 26.4339L139.442 33.4572L139.692 33.601L143.738 26.5776L143.489 26.4339ZM139.565 33.6731L148.236 33.7887L148.24 33.5007L139.569 33.3851L139.565 33.6731ZM148.239 33.7887L156.939 33.702L156.936 33.414L148.237 33.5007L148.239 33.7887ZM157.065 33.4905L148.799 17.912L148.544 18.047L156.81 33.6255L157.065 33.4905ZM201.187 1.41839L201.331 1.42115L201.334 1.27439H201.187V1.41839ZM201.072 7.45901L200.928 7.45626L200.928 7.45728L201.072 7.45901ZM200.956 17.0835L200.812 17.0818V17.0841L200.956 17.0835ZM200.985 24.1069L200.841 24.1074L200.841 24.108L200.985 24.1069ZM201.101 38.9916L200.957 38.9928L200.958 39.1337L201.099 39.1356L201.101 38.9916ZM203.182 39.0205L203.18 39.1646L203.184 39.1645L203.182 39.0205ZM215.552 38.8471L215.55 38.7031L215.55 38.7031L215.552 38.8471ZM217.806 38.8182V38.6742L217.804 38.6742L217.806 38.8182ZM218.587 40.8125L218.573 40.669L218.566 40.6699L218.587 40.8125ZM217.257 40.8703V41.0143L217.261 41.0143L217.257 40.8703ZM183.412 40.8703L183.268 40.8692L183.267 41.0143H183.412V40.8703ZM183.499 29.8874L183.355 29.8861V29.8862L183.499 29.8874ZM183.557 23.1531L183.701 23.1543L183.701 23.1542L183.557 23.1531ZM183.615 15.5228L183.759 15.5239L183.759 15.5214L183.615 15.5228ZM183.499 3.90401L183.355 3.90233L183.355 3.90544L183.499 3.90401ZM183.528 1.41839V1.27439H183.386L183.384 1.41672L183.528 1.41839ZM201.043 1.41564L200.928 7.45626L201.216 7.46177L201.331 1.42115L201.043 1.41564ZM200.928 7.45728L200.812 17.0818L201.1 17.0853L201.216 7.46074L200.928 7.45728ZM200.812 17.0841L200.841 24.1074L201.129 24.1063L201.1 17.083L200.812 17.0841ZM200.841 24.108L200.957 38.9928L201.245 38.9905L201.129 24.1057L200.841 24.108ZM201.099 39.1356L203.18 39.1645L203.184 38.8766L201.103 38.8477L201.099 39.1356ZM203.184 39.1645L215.554 38.9911L215.55 38.7031L203.18 38.8766L203.184 39.1645ZM215.554 38.9911L217.808 38.9622L217.804 38.6742L215.55 38.7031L215.554 38.9911ZM217.806 38.9622C218.365 38.9622 218.761 39.0459 219.012 39.195C219.251 39.337 219.368 39.5422 219.368 39.8298H219.656C219.656 39.4431 219.488 39.1425 219.159 38.9473C218.841 38.7591 218.384 38.6742 217.806 38.6742V38.9622ZM219.368 39.8298C219.368 40.1041 219.297 40.2955 219.175 40.4248C219.053 40.5548 218.86 40.6423 218.573 40.6691L218.6 40.9559C218.93 40.9249 219.199 40.8197 219.385 40.6222C219.572 40.4239 219.656 40.1528 219.656 39.8298H219.368ZM218.566 40.6699C218.442 40.6877 218.01 40.707 217.253 40.7263L217.261 41.0143C218.007 40.9951 218.462 40.9758 218.607 40.955L218.566 40.6699ZM217.257 40.7263H183.412V41.0143H217.257V40.7263ZM183.556 40.8714L183.643 29.8885L183.355 29.8862L183.268 40.8692L183.556 40.8714ZM183.643 29.8886L183.701 23.1543L183.413 23.1518L183.355 29.8861L183.643 29.8886ZM183.701 23.1542L183.759 15.5239L183.471 15.5217L183.413 23.152L183.701 23.1542ZM183.759 15.5214L183.643 3.90257L183.355 3.90544L183.471 15.5242L183.759 15.5214ZM183.643 3.90568L183.672 1.42007L183.384 1.41672L183.355 3.90233L183.643 3.90568ZM183.528 1.56239H201.187V1.27439H183.528V1.56239ZM245.379 16.4766L245.264 16.5627L245.384 16.7242L245.498 16.5579L245.379 16.4766ZM254.57 3.03693L254.689 3.11828L254.692 3.11347L254.57 3.03693ZM257.547 1.12937L257.456 1.24092L257.461 1.24457L257.547 1.12937ZM257.547 2.6612L257.427 2.58127L257.425 2.58573L257.547 2.6612ZM256.969 3.47047L256.857 3.38046L256.854 3.3845L256.969 3.47047ZM256.044 4.71328L255.929 4.62729L255.927 4.62981L256.044 4.71328ZM232.547 37.7488L232.663 37.834L232.664 37.8323L232.547 37.7488ZM231.593 39.0494L231.477 38.9643L231.476 38.9656L231.593 39.0494ZM230.003 41.1015L229.906 40.9953L229.901 40.9997L230.003 41.1015ZM229.02 39.194L229.13 39.2876L229.136 39.2793L229.02 39.194ZM235.61 30.2342L235.726 30.3195L235.789 30.2341L235.726 30.1488L235.61 30.2342ZM234.801 29.1359L234.917 29.0505L234.917 29.05L234.801 29.1359ZM222.373 12.6615L222.259 12.7498L222.259 12.7502L222.373 12.6615ZM213.182 1.41839V1.27439H212.871L213.072 1.51143L213.182 1.41839ZM234.136 1.41839L234.252 1.33224L234.208 1.27439H234.136V1.41839ZM245.498 16.5579L254.689 3.11822L254.451 2.95564L245.26 16.3953L245.498 16.5579ZM254.692 3.11347C255.311 2.12671 255.726 1.53526 255.944 1.3179L255.74 1.11425C255.495 1.35933 255.062 1.98179 254.448 2.9604L254.692 3.11347ZM255.944 1.3179C256.145 1.11702 256.405 1.01324 256.738 1.01324V0.725245C256.339 0.725245 256.002 0.852689 255.74 1.11425L255.944 1.3179ZM256.738 1.01324C257.039 1.01324 257.275 1.09238 257.456 1.24082L257.638 1.01792C257.396 0.819523 257.092 0.725245 256.738 0.725245V1.01324ZM257.461 1.24457C257.662 1.39555 257.75 1.56745 257.75 1.76522H258.038C258.038 1.46202 257.895 1.21002 257.634 1.01417L257.461 1.24457ZM257.75 1.76522C257.75 1.97406 257.652 2.24402 257.427 2.58132L257.667 2.74108C257.905 2.38472 258.038 2.05736 258.038 1.76522H257.75ZM257.425 2.58573C257.274 2.8301 257.085 3.09498 256.857 3.38051L257.082 3.56042C257.316 3.2679 257.512 2.99328 257.67 2.73667L257.425 2.58573ZM256.854 3.3845L255.929 4.62731L256.16 4.79925L257.085 3.55644L256.854 3.3845ZM255.927 4.62981L232.429 37.6654L232.664 37.8323L256.162 4.79674L255.927 4.62981ZM232.43 37.6637L231.477 38.9643L231.709 39.1346L232.663 37.834L232.43 37.6637ZM231.476 38.9656C231.062 39.5429 230.723 40.0014 230.46 40.3414C230.194 40.6844 230.011 40.8989 229.906 40.9954L230.1 41.2077C230.226 41.0922 230.424 40.8587 230.688 40.5177C230.954 40.1737 231.295 39.712 231.71 39.1333L231.476 38.9656ZM229.901 40.9997C229.723 41.1775 229.466 41.2754 229.107 41.2754V41.5634C229.519 41.5634 229.859 41.4494 230.105 41.2033L229.901 40.9997ZM229.107 41.2754C228.817 41.2754 228.626 41.2115 228.508 41.1088C228.395 41.0092 228.326 40.8524 228.326 40.6102H228.038C228.038 40.9075 228.124 41.1553 228.319 41.3255C228.51 41.4925 228.781 41.5634 229.107 41.5634V41.2754ZM228.326 40.6102C228.326 40.5057 228.379 40.3432 228.516 40.1127C228.65 39.8866 228.853 39.6118 229.13 39.2874L228.911 39.1005C228.629 39.4312 228.413 39.7201 228.268 39.966C228.125 40.2075 228.038 40.4256 228.038 40.6102H228.326ZM229.136 39.2793L235.726 30.3195L235.494 30.1489L228.904 39.1086L229.136 39.2793ZM235.726 30.1488L234.917 29.0505L234.685 29.2213L235.494 30.3196L235.726 30.1488ZM234.917 29.05C229.059 21.1693 224.915 15.6765 222.486 12.5727L222.259 12.7502C224.686 15.8508 228.828 21.341 234.685 29.2218L234.917 29.05ZM222.487 12.5732C220.076 9.4688 217.011 5.71944 213.292 1.32535L213.072 1.51143C216.79 5.9037 219.852 9.64972 222.259 12.7498L222.487 12.5732ZM213.182 1.56239H234.136V1.27439H213.182V1.56239ZM234.021 1.50454L245.264 16.5627L245.495 16.3904L234.252 1.33224L234.021 1.50454ZM273.328 -0.951613L273.454 -1.02129L273.331 -1.24423L273.203 -1.02365L273.328 -0.951613ZM296.45 40.8703V41.0143H296.694L296.576 40.8006L296.45 40.8703ZM276.421 40.8703L276.293 40.9366L276.333 41.0143H276.421V40.8703ZM273.675 35.5811L273.803 35.5148L273.762 35.4371H273.675V35.5811ZM263.964 35.5811L263.963 35.7251H263.964V35.5811ZM255.408 35.5522L255.406 35.6962L255.408 35.6962L255.408 35.5522ZM253.963 35.5233L253.966 35.3794L253.878 35.3776L253.837 35.4548L253.963 35.5233ZM252.056 39.0494L251.929 38.9809L251.928 38.9823L252.056 39.0494ZM250.871 41.0148L250.765 40.9168L250.758 40.9258L250.871 41.0148ZM249.628 39.1651L249.502 39.0951L249.501 39.0964L249.628 39.1651ZM253.588 32.4019L253.464 32.3284L253.464 32.3286L253.588 32.4019ZM271.074 2.95022L271.197 3.02374L271.198 3.02226L271.074 2.95022ZM264.339 17.9795L264.467 17.912L264.346 17.6855L264.215 17.9061L264.339 17.9795ZM259.281 26.5058L259.158 26.4323L259.157 26.4339L259.281 26.5058ZM255.235 33.5291L255.11 33.4572L254.988 33.6698L255.233 33.6731L255.235 33.5291ZM263.906 33.6447L263.904 33.7887L263.907 33.7887L263.906 33.6447ZM272.605 33.558L272.607 33.702L272.844 33.6996L272.733 33.4905L272.605 33.558ZM273.202 -0.88194L296.324 40.94L296.576 40.8006L273.454 -1.02129L273.202 -0.88194ZM296.45 40.7263H276.421V41.0143H296.45V40.7263ZM276.548 40.804L273.803 35.5148L273.547 35.6475L276.293 40.9366L276.548 40.804ZM273.675 35.4371H263.964V35.7251H273.675V35.4371ZM263.964 35.4371L255.409 35.4082L255.408 35.6962L263.963 35.7251L263.964 35.4371ZM255.411 35.4083L253.966 35.3794L253.96 35.6673L255.406 35.6962L255.411 35.4083ZM253.837 35.4548L251.929 38.9809L252.182 39.118L254.09 35.5919L253.837 35.4548ZM251.928 38.9823C251.65 39.5109 251.413 39.937 251.217 40.2612C251.02 40.5881 250.87 40.8035 250.765 40.9171L250.977 41.1125C251.103 40.9756 251.266 40.7382 251.464 40.41C251.663 40.0791 251.903 39.6477 252.183 39.1166L251.928 38.9823ZM250.758 40.9258C250.571 41.1628 250.342 41.2754 250.061 41.2754V41.5634C250.436 41.5634 250.746 41.4064 250.984 41.1038L250.758 40.9258ZM250.061 41.2754C249.752 41.2754 249.547 41.2068 249.42 41.0947C249.296 40.9857 249.223 40.8142 249.223 40.5524H248.935C248.935 40.8686 249.025 41.1307 249.229 41.3107C249.43 41.4876 249.716 41.5634 250.061 41.5634V41.2754ZM249.223 40.5524C249.223 40.4555 249.26 40.2983 249.35 40.0707C249.439 39.8469 249.573 39.5683 249.755 39.2338L249.501 39.0964C249.317 39.4362 249.177 39.726 249.082 39.9647C248.989 40.1995 248.935 40.3987 248.935 40.5524H249.223ZM249.754 39.235C250.138 38.5435 251.457 36.2912 253.712 32.4751L253.464 32.3286C251.21 36.1428 249.889 38.3993 249.502 39.0951L249.754 39.235ZM253.711 32.4754L271.197 3.02374L270.95 2.87671L253.464 32.3284L253.711 32.4754ZM271.198 3.02226L273.453 -0.879573L273.203 -1.02365L270.949 2.87818L271.198 3.02226ZM264.215 17.9061L259.158 26.4323L259.405 26.5792L264.463 18.053L264.215 17.9061ZM259.157 26.4339L255.11 33.4572L255.36 33.601L259.406 26.5776L259.157 26.4339ZM255.233 33.6731L263.904 33.7887L263.908 33.5007L255.237 33.3851L255.233 33.6731ZM263.907 33.7887L272.607 33.702L272.604 33.414L263.904 33.5007L263.907 33.7887ZM272.733 33.4905L264.467 17.912L264.212 18.047L272.478 33.6255L272.733 33.4905Z" fill="#EF7F1A"/>
<path d="M94.0129 84.2301L93.8665 93.3961L93.7787 102.094L93.8665 122.241H76.0031L76.1788 98.9016L76.0909 90.9655L76.0031 84.2301L72.1375 84.318L66.6028 84.4351L65.7828 84.4644C64.8458 84.4644 64.3772 84.113 64.3772 83.4102C64.3772 82.7854 64.6505 82.434 65.1972 82.3559C65.3533 82.3169 65.8317 82.2876 66.6321 82.2681H102.564C103.813 82.2876 104.555 82.3462 104.79 82.4438C105.18 82.6 105.375 82.9319 105.375 83.4395C105.375 84.1032 104.877 84.4351 103.882 84.4351L101.334 84.3473L94.5986 84.2301H94.0129ZM124.556 81.0674C127.641 81.0674 130.618 81.7215 133.488 83.0295C137.705 84.9623 140.926 87.9395 143.152 91.9612C144.929 95.1825 145.817 98.6868 145.817 102.474C145.817 105.52 145.143 108.468 143.796 111.318C141.785 115.574 138.652 118.805 134.396 121.011C131.272 122.632 127.993 123.442 124.556 123.442C120.925 123.442 117.489 122.524 114.248 120.689C109.934 118.268 106.859 114.871 105.024 110.498C103.892 107.824 103.325 105.061 103.325 102.211C103.325 98.638 104.214 95.2313 105.99 91.9905C108.177 88.0078 111.369 85.0306 115.566 83.0588C118.358 81.7507 121.355 81.087 124.556 81.0674ZM122.243 83.0295L122.067 102.094L122.214 117.936L122.243 121.509C122.907 121.626 123.541 121.685 124.147 121.685C128.461 121.685 132.317 120.494 135.714 118.112C138.818 115.926 141.063 113.114 142.449 109.678C143.425 107.277 143.913 104.788 143.913 102.211C143.913 98.8137 143.093 95.651 141.454 92.7226C139.443 89.1304 136.612 86.485 132.961 84.7865C130.228 83.498 127.348 82.8538 124.322 82.8538C123.619 82.8538 122.926 82.9123 122.243 83.0295ZM168.542 82.2681L168.395 97.4374L168.337 113.368L168.424 121.48C169.42 121.558 170.289 121.597 171.031 121.597C177.883 121.597 182.471 120.006 184.794 116.824C185.985 115.184 186.766 112.86 187.137 109.854C187.528 106.828 187.723 101.342 187.723 93.3961L187.635 85.6358L187.518 83.2345C187.518 82.2193 187.938 81.7117 188.777 81.7117C189.519 81.7117 189.89 82.1998 189.89 83.1759C189.89 83.7421 189.861 84.5132 189.802 85.4894L189.568 97.1738C189.49 102.094 189.402 105.442 189.304 107.218C189.207 108.975 189.011 110.625 188.718 112.167C188.113 115.35 186.717 117.888 184.531 119.781C181.739 122.222 176.956 123.442 170.181 123.442C164.247 123.442 159.766 122.641 156.74 121.041C154.358 119.811 152.669 117.731 151.674 114.803C151.225 113.456 150.961 112.07 150.883 110.645C150.805 109.219 150.756 104.876 150.737 97.6131L150.62 82.2681H168.542ZM220.111 115.623C221.985 116.911 224.006 118.014 226.173 118.932C228.36 119.83 230.702 120.533 233.201 121.041C233.807 121.158 234.109 121.451 234.109 121.919C234.109 122.563 233.66 122.885 232.762 122.885C230.712 122.885 227.833 121.987 224.123 120.191C221.039 118.688 217.505 116.365 213.522 113.222V114.422L213.552 119.401V122.241H195.717V120.923L195.776 111.377L195.864 99.9558L195.805 82.2681H207.578C212.849 82.2681 216.831 82.4145 219.526 82.7074C222.22 83.0002 224.514 83.5468 226.407 84.3473C229.492 85.6358 231.932 87.754 233.728 90.702C235.388 93.4352 236.218 96.305 236.218 99.3116C236.218 102.513 235.29 105.53 233.436 108.36C230.449 112.909 226.007 115.33 220.111 115.623ZM217.329 113.807L218.735 113.837C222.757 113.837 226.154 112.714 228.926 110.469C230.683 109.063 232.03 107.306 232.967 105.198C233.846 103.265 234.285 101.293 234.285 99.2823C234.285 95.8658 233.172 92.8104 230.946 90.1163C229.248 88.0273 227.12 86.5534 224.562 85.6944C222.005 84.8354 218.403 84.3766 213.757 84.318L213.493 103.938V109.239L213.522 110.615C214.713 111.767 215.982 112.831 217.329 113.807Z" fill="#0F74BA"/>
<path d="M94.0129 84.2301V84.0861H93.8712L93.869 84.2278L94.0129 84.2301ZM93.8665 93.3961L93.7225 93.3938L93.7225 93.3947L93.8665 93.3961ZM93.7787 102.094L93.6347 102.092L93.6347 102.094L93.7787 102.094ZM93.8665 122.241V122.385H94.0111L94.0105 122.241L93.8665 122.241ZM76.0031 122.241L75.8591 122.24L75.858 122.385H76.0031V122.241ZM76.1788 98.9016L76.3228 98.9027L76.3228 98.9L76.1788 98.9016ZM76.0909 90.9655L76.2349 90.9639L76.2349 90.9637L76.0909 90.9655ZM76.0031 84.2301L76.1471 84.2283L76.1452 84.0829L75.9998 84.0862L76.0031 84.2301ZM72.1375 84.318L72.1406 84.462L72.1408 84.462L72.1375 84.318ZM66.6028 84.4351L66.5998 84.2911L66.5977 84.2912L66.6028 84.4351ZM65.7828 84.4644V84.6085L65.788 84.6083L65.7828 84.4644ZM65.1972 82.3559L65.2175 82.4985L65.2249 82.4974L65.2321 82.4956L65.1972 82.3559ZM66.6321 82.2681V82.1241L66.6286 82.1241L66.6321 82.2681ZM102.564 82.2681L102.566 82.1241H102.564V82.2681ZM104.79 82.4438L104.734 82.5767L104.736 82.5775L104.79 82.4438ZM103.882 84.4351L103.877 84.5791H103.882V84.4351ZM101.334 84.3473L101.339 84.2033L101.337 84.2033L101.334 84.3473ZM94.5986 84.2301L94.6011 84.0861H94.5986V84.2301ZM93.869 84.2278L93.7225 93.3938L94.0105 93.3984L94.1569 84.2324L93.869 84.2278ZM93.7225 93.3947L93.6347 102.092L93.9227 102.095L94.0105 93.3976L93.7225 93.3947ZM93.6347 102.094L93.7225 122.242L94.0105 122.241L93.9227 102.093L93.6347 102.094ZM93.8665 122.097H76.0031V122.385H93.8665V122.097ZM76.1471 122.242L76.3228 98.9027L76.0348 98.9005L75.8591 122.24L76.1471 122.242ZM76.3228 98.9L76.2349 90.9639L75.9469 90.9671L76.0348 98.9032L76.3228 98.9ZM76.2349 90.9637L76.1471 84.2283L75.8591 84.232L75.9469 90.9674L76.2349 90.9637ZM75.9998 84.0862L72.1343 84.174L72.1408 84.462L76.0063 84.3741L75.9998 84.0862ZM72.1345 84.174L66.5998 84.2912L66.6059 84.5791L72.1406 84.462L72.1345 84.174ZM66.5977 84.2912L65.7777 84.3205L65.788 84.6083L66.6079 84.579L66.5977 84.2912ZM65.7828 84.3204C65.3281 84.3204 65.0134 84.2344 64.815 84.0857C64.6244 83.9427 64.5212 83.7265 64.5212 83.4102H64.2332C64.2332 83.7967 64.3642 84.1076 64.6422 84.3161C64.9124 84.5187 65.3005 84.6084 65.7828 84.6084V84.3204ZM64.5212 83.4102C64.5212 83.1172 64.5854 82.9085 64.6959 82.7665C64.8044 82.6269 64.9718 82.5336 65.2175 82.4985L65.1768 82.2134C64.8759 82.2564 64.6333 82.3778 64.4685 82.5897C64.3056 82.7991 64.2332 83.0784 64.2332 83.4102H64.5212ZM65.2321 82.4956C65.2952 82.4799 65.4405 82.4632 65.6818 82.4484C65.9185 82.4339 66.2362 82.4218 66.6356 82.4121L66.6286 82.1241C66.2276 82.1339 65.9059 82.1462 65.6642 82.161C65.4273 82.1755 65.2553 82.193 65.1622 82.2162L65.2321 82.4956ZM66.6321 82.4121H102.564V82.1241H66.6321V82.4121ZM102.562 82.4121C103.185 82.4218 103.68 82.4413 104.046 82.4702C104.229 82.4847 104.379 82.5014 104.496 82.5201C104.615 82.5392 104.692 82.5591 104.734 82.5767L104.845 82.3109C104.77 82.2797 104.666 82.2557 104.541 82.2357C104.414 82.2154 104.256 82.1979 104.069 82.1831C103.693 82.1535 103.192 82.1339 102.566 82.1241L102.562 82.4121ZM104.736 82.5775C104.905 82.6449 105.025 82.747 105.105 82.8829C105.186 83.0207 105.231 83.2034 105.231 83.4395H105.519C105.519 83.1679 105.467 82.9309 105.353 82.7368C105.238 82.5408 105.065 82.3989 104.843 82.3101L104.736 82.5775ZM105.231 83.4395C105.231 83.7294 105.126 83.9304 104.922 84.0664C104.708 84.2092 104.368 84.2911 103.882 84.2911V84.5791C104.391 84.5791 104.798 84.4951 105.082 84.306C105.376 84.1101 105.519 83.8133 105.519 83.4395H105.231ZM103.887 84.2912L101.339 84.2034L101.329 84.4912L103.877 84.579L103.887 84.2912ZM101.337 84.2033L94.6011 84.0862L94.5961 84.3741L101.332 84.4913L101.337 84.2033ZM94.5986 84.0861H94.0129V84.3741H94.5986V84.0861ZM124.556 81.0674V80.9234L124.556 80.9234L124.556 81.0674ZM133.488 83.0295L133.548 82.8986L133.548 82.8985L133.488 83.0295ZM143.152 91.9612L143.278 91.8917L143.278 91.8915L143.152 91.9612ZM143.796 111.318L143.666 111.257V111.257L143.796 111.318ZM134.396 121.011L134.33 120.883L134.33 120.883L134.396 121.011ZM114.248 120.689L114.319 120.564L114.319 120.564L114.248 120.689ZM105.024 110.498L105.157 110.442L105.156 110.442L105.024 110.498ZM105.99 91.9905L105.864 91.9212L105.864 91.9213L105.99 91.9905ZM115.566 83.0588L115.505 82.9284L115.505 82.9284L115.566 83.0588ZM122.243 83.0295L122.219 82.8876L122.1 82.9079L122.099 83.0282L122.243 83.0295ZM122.067 102.094L121.923 102.092L121.923 102.095L122.067 102.094ZM122.214 117.936L122.358 117.935V117.935L122.214 117.936ZM122.243 121.509L122.099 121.51L122.1 121.63L122.218 121.651L122.243 121.509ZM135.714 118.112L135.796 118.23L135.797 118.23L135.714 118.112ZM142.449 109.678L142.316 109.624L142.316 109.624L142.449 109.678ZM141.454 92.7226L141.328 92.7929L141.328 92.793L141.454 92.7226ZM132.961 84.7865L132.9 84.9168L132.9 84.9171L132.961 84.7865ZM124.556 81.2114C127.62 81.2114 130.577 81.8608 133.428 83.1605L133.548 82.8985C130.66 81.5821 127.662 80.9234 124.556 80.9234V81.2114ZM133.428 83.1604C137.617 85.0805 140.815 88.0364 143.026 92.0309L143.278 91.8915C141.037 87.8426 137.793 84.844 133.548 82.8986L133.428 83.1604ZM143.026 92.0307C144.79 95.2301 145.673 98.7104 145.673 102.474H145.961C145.961 98.6633 145.067 95.1349 143.278 91.8917L143.026 92.0307ZM145.673 102.474C145.673 105.498 145.004 108.425 143.666 111.257L143.926 111.38C145.282 108.511 145.961 105.542 145.961 102.474H145.673ZM143.666 111.257C141.669 115.484 138.558 118.692 134.33 120.883L134.462 121.139C138.746 118.919 141.902 115.665 143.926 111.38L143.666 111.257ZM134.33 120.883C131.226 122.493 127.969 123.298 124.556 123.298V123.586C128.016 123.586 131.319 122.77 134.462 121.139L134.33 120.883ZM124.556 123.298C120.951 123.298 117.539 122.387 114.319 120.564L114.177 120.814C117.439 122.662 120.9 123.586 124.556 123.586V123.298ZM114.319 120.564C110.031 118.158 106.979 114.785 105.157 110.442L104.891 110.554C106.739 114.958 109.837 118.379 114.178 120.815L114.319 120.564ZM105.156 110.442C104.031 107.785 103.469 105.041 103.469 102.211H103.181C103.181 105.081 103.752 107.862 104.891 110.554L105.156 110.442ZM103.469 102.211C103.469 98.6631 104.351 95.2801 106.116 92.0597L105.864 91.9213C104.076 95.1825 103.181 98.613 103.181 102.211H103.469ZM106.116 92.0598C108.288 88.1044 111.457 85.1482 115.627 83.1891L115.505 82.9284C111.281 84.9129 108.066 87.9112 105.864 91.9212L106.116 92.0598ZM115.627 83.1892C118.399 81.8903 121.376 81.2308 124.557 81.2114L124.556 80.9234C121.334 80.9431 118.316 81.6112 115.505 82.9284L115.627 83.1892ZM122.099 83.0282L121.923 102.092L122.211 102.095L122.387 83.0308L122.099 83.0282ZM121.923 102.095L122.07 117.938L122.358 117.935L122.211 102.092L121.923 102.095ZM122.07 117.938L122.099 121.51L122.387 121.508L122.358 117.935L122.07 117.938ZM122.218 121.651C122.889 121.769 123.532 121.829 124.147 121.829V121.541C123.551 121.541 122.924 121.483 122.268 121.367L122.218 121.651ZM124.147 121.829C128.489 121.829 132.374 120.629 135.796 118.23L135.631 117.994C132.259 120.358 128.433 121.541 124.147 121.541V121.829ZM135.797 118.23C138.923 116.028 141.186 113.194 142.583 109.732L142.316 109.624C140.94 113.034 138.713 115.823 135.631 117.994L135.797 118.23ZM142.583 109.732C143.566 107.314 144.057 104.806 144.057 102.211H143.769C143.769 104.769 143.285 107.24 142.316 109.624L142.583 109.732ZM144.057 102.211C144.057 98.7894 143.231 95.6024 141.579 92.6522L141.328 92.793C142.956 95.6996 143.769 98.8381 143.769 102.211H144.057ZM141.579 92.6523C139.554 89.0343 136.701 86.3675 133.022 84.656L132.9 84.9171C136.523 86.6025 139.331 89.2265 141.328 92.7929L141.579 92.6523ZM133.022 84.6563C130.27 83.3587 127.369 82.7098 124.322 82.7098V82.9978C127.327 82.9978 130.186 83.6374 132.9 84.9168L133.022 84.6563ZM124.322 82.7098C123.611 82.7098 122.91 82.769 122.219 82.8876L122.267 83.1714C122.943 83.0557 123.627 82.9978 124.322 82.9978V82.7098ZM168.542 82.2681L168.686 82.2695L168.687 82.1241H168.542V82.2681ZM168.395 97.4374L168.251 97.436L168.251 97.4368L168.395 97.4374ZM168.337 113.368L168.193 113.368L168.193 113.37L168.337 113.368ZM168.424 121.48L168.28 121.481L168.282 121.613L168.413 121.623L168.424 121.48ZM184.794 116.824L184.911 116.909L184.911 116.908L184.794 116.824ZM187.137 109.854L186.994 109.835L186.994 109.836L187.137 109.854ZM187.723 93.3961H187.867L187.867 93.3945L187.723 93.3961ZM187.635 85.6358L187.779 85.6342L187.779 85.6288L187.635 85.6358ZM187.518 83.2345H187.374L187.374 83.2415L187.518 83.2345ZM189.802 85.4894L189.658 85.4807L189.658 85.4865L189.802 85.4894ZM189.568 97.1738L189.424 97.1709L189.424 97.1715L189.568 97.1738ZM189.304 107.218L189.448 107.226L189.448 107.226L189.304 107.218ZM188.718 112.167L188.86 112.194L188.86 112.194L188.718 112.167ZM184.531 119.781L184.437 119.672L184.436 119.673L184.531 119.781ZM156.74 121.041L156.807 120.913L156.806 120.913L156.74 121.041ZM151.674 114.803L151.537 114.849L151.537 114.849L151.674 114.803ZM150.737 97.6131L150.881 97.6127L150.881 97.612L150.737 97.6131ZM150.62 82.2681V82.1241H150.474L150.476 82.2692L150.62 82.2681ZM168.398 82.2667L168.251 97.436L168.539 97.4388L168.686 82.2695L168.398 82.2667ZM168.251 97.4368L168.193 113.368L168.481 113.369L168.539 97.4379L168.251 97.4368ZM168.193 113.37L168.28 121.481L168.568 121.478L168.481 113.366L168.193 113.37ZM168.413 121.623C169.411 121.702 170.284 121.741 171.031 121.741V121.453C170.294 121.453 169.429 121.414 168.436 121.336L168.413 121.623ZM171.031 121.741C177.896 121.741 182.545 120.148 184.911 116.909L184.678 116.739C182.397 119.863 177.87 121.453 171.031 121.453V121.741ZM184.911 116.908C186.121 115.241 186.907 112.891 187.28 109.872L186.994 109.836C186.625 112.83 185.849 115.126 184.678 116.739L184.911 116.908ZM187.28 109.872C187.672 106.836 187.867 101.341 187.867 93.3961H187.579C187.579 101.343 187.383 106.82 186.994 109.835L187.28 109.872ZM187.867 93.3945L187.779 85.6342L187.491 85.6374L187.579 93.3978L187.867 93.3945ZM187.779 85.6288L187.662 83.2275L187.374 83.2415L187.491 85.6428L187.779 85.6288ZM187.662 83.2345C187.662 82.7431 187.764 82.4014 187.944 82.1842C188.119 81.9722 188.387 81.8557 188.777 81.8557V81.5677C188.327 81.5677 187.966 81.705 187.722 82.0006C187.482 82.291 187.374 82.7106 187.374 83.2345H187.662ZM188.777 81.8557C189.114 81.8557 189.345 81.9643 189.497 82.1649C189.655 82.3729 189.746 82.702 189.746 83.1759H190.034C190.034 82.6737 189.939 82.2707 189.726 81.9906C189.508 81.7031 189.182 81.5677 188.777 81.5677V81.8557ZM189.746 83.1759C189.746 83.7379 189.717 84.5057 189.658 85.4807L189.946 85.498C190.004 84.5207 190.034 83.7463 190.034 83.1759H189.746ZM189.658 85.4865L189.424 97.1709L189.712 97.1767L189.946 85.4923L189.658 85.4865ZM189.424 97.1715C189.346 102.092 189.258 105.437 189.16 107.21L189.448 107.226C189.546 105.446 189.634 102.096 189.712 97.1761L189.424 97.1715ZM189.16 107.21C189.063 108.962 188.868 110.605 188.577 112.141L188.86 112.194C189.154 110.645 189.35 108.989 189.448 107.226L189.16 107.21ZM188.577 112.14C187.977 115.295 186.596 117.803 184.437 119.672L184.625 119.89C186.839 117.973 188.249 115.404 188.86 112.194L188.577 112.14ZM184.436 119.673C181.685 122.078 176.947 123.298 170.181 123.298V123.586C176.965 123.586 181.793 122.366 184.626 119.89L184.436 119.673ZM170.181 123.298C164.255 123.298 159.803 122.498 156.807 120.913L156.673 121.168C159.729 122.785 164.238 123.586 170.181 123.586V123.298ZM156.806 120.913C154.462 119.702 152.796 117.656 151.81 114.757L151.537 114.849C152.543 117.807 154.254 119.919 156.674 121.168L156.806 120.913ZM151.81 114.757C151.365 113.423 151.104 112.049 151.027 110.637L150.739 110.652C150.818 112.09 151.084 113.489 151.537 114.849L151.81 114.757ZM151.027 110.637C150.949 109.216 150.9 104.877 150.881 97.6127L150.593 97.6135C150.612 104.874 150.661 109.223 150.739 110.652L151.027 110.637ZM150.881 97.612L150.764 82.267L150.476 82.2692L150.593 97.6142L150.881 97.612ZM150.62 82.4121H168.542V82.1241H150.62V82.4121ZM220.111 115.623L220.104 115.479L219.679 115.5L220.03 115.742L220.111 115.623ZM226.173 118.932L226.117 119.065L226.118 119.065L226.173 118.932ZM233.201 121.041L233.173 121.182L233.174 121.182L233.201 121.041ZM224.123 120.191L224.06 120.321L224.06 120.321L224.123 120.191ZM213.522 113.222L213.611 113.109L213.378 112.925V113.222H213.522ZM213.522 114.422H213.378V114.423L213.522 114.422ZM213.552 119.401H213.696V119.4L213.552 119.401ZM213.552 122.241V122.385H213.696V122.241H213.552ZM195.717 122.241H195.573V122.385H195.717V122.241ZM195.717 120.923L195.573 120.923V120.923H195.717ZM195.776 111.377L195.632 111.376V111.376L195.776 111.377ZM195.864 99.9558L196.008 99.9569V99.9553L195.864 99.9558ZM195.805 82.2681V82.1241H195.661L195.661 82.2686L195.805 82.2681ZM226.407 84.3473L226.351 84.4799L226.352 84.4802L226.407 84.3473ZM233.728 90.702L233.852 90.6272L233.851 90.6271L233.728 90.702ZM233.436 108.36L233.556 108.439L233.556 108.439L233.436 108.36ZM217.329 113.807L217.245 113.924L217.281 113.95L217.326 113.951L217.329 113.807ZM218.735 113.837L218.732 113.981H218.735V113.837ZM228.926 110.469L228.836 110.356L228.835 110.357L228.926 110.469ZM232.967 105.198L232.836 105.138L232.835 105.139L232.967 105.198ZM230.946 90.1163L230.835 90.2071L230.835 90.208L230.946 90.1163ZM213.757 84.318L213.758 84.174L213.614 84.1722L213.613 84.3161L213.757 84.318ZM213.493 103.938L213.349 103.937V103.938H213.493ZM213.493 109.239H213.349L213.349 109.242L213.493 109.239ZM213.522 110.615L213.378 110.618L213.38 110.678L213.422 110.719L213.522 110.615ZM220.03 115.742C221.912 117.036 223.941 118.143 226.117 119.065L226.229 118.799C224.071 117.886 222.059 116.787 220.193 115.504L220.03 115.742ZM226.118 119.065C228.314 119.967 230.666 120.672 233.173 121.182L233.23 120.899C230.739 120.393 228.405 119.693 226.228 118.799L226.118 119.065ZM233.174 121.182C233.461 121.238 233.658 121.332 233.782 121.452C233.902 121.568 233.965 121.719 233.965 121.919H234.253C234.253 121.651 234.165 121.421 233.982 121.245C233.804 121.072 233.547 120.961 233.229 120.899L233.174 121.182ZM233.965 121.919C233.965 122.204 233.869 122.398 233.688 122.527C233.499 122.662 233.198 122.741 232.762 122.741V123.029C233.224 123.029 233.596 122.947 233.856 122.761C234.125 122.568 234.253 122.279 234.253 121.919H233.965ZM232.762 122.741C230.746 122.741 227.892 121.856 224.186 120.062L224.06 120.321C227.773 122.119 230.678 123.029 232.762 123.029V122.741ZM224.186 120.062C221.114 118.565 217.589 116.248 213.611 113.109L213.433 113.335C217.42 116.482 220.963 118.811 224.06 120.321L224.186 120.062ZM213.378 113.222V114.422H213.666V113.222H213.378ZM213.378 114.423L213.408 119.401L213.696 119.4L213.666 114.421L213.378 114.423ZM213.408 119.401V122.241H213.696V119.401H213.408ZM213.552 122.097H195.717V122.385H213.552V122.097ZM195.861 122.241V120.923H195.573V122.241H195.861ZM195.861 120.924L195.92 111.378L195.632 111.376L195.573 120.923L195.861 120.924ZM195.92 111.378L196.008 99.9569L195.72 99.9547L195.632 111.376L195.92 111.378ZM196.008 99.9553L195.949 82.2676L195.661 82.2686L195.72 99.9563L196.008 99.9553ZM195.805 82.4121H207.578V82.1241H195.805V82.4121ZM207.578 82.4121C212.847 82.4121 216.824 82.5585 219.51 82.8505L219.541 82.5642C216.839 82.2705 212.85 82.1241 207.578 82.1241V82.4121ZM219.51 82.8505C222.194 83.1423 224.474 83.6864 226.351 84.4799L226.463 84.2146C224.553 83.4073 222.245 82.8581 219.541 82.5642L219.51 82.8505ZM226.352 84.4802C229.407 85.7565 231.825 87.854 233.605 90.7769L233.851 90.6271C232.04 87.6541 229.576 85.515 226.463 84.2144L226.352 84.4802ZM233.605 90.7767C235.252 93.4889 236.074 96.3331 236.074 99.3116H236.362C236.362 96.277 235.524 93.3815 233.852 90.6272L233.605 90.7767ZM236.074 99.3116C236.074 102.484 235.155 105.473 233.315 108.282L233.556 108.439C235.425 105.586 236.362 102.543 236.362 99.3116H236.074ZM233.315 108.281C230.356 112.788 225.959 115.188 220.104 115.479L220.118 115.767C226.056 115.472 230.541 113.03 233.556 108.439L233.315 108.281ZM217.326 113.951L218.732 113.981L218.738 113.693L217.332 113.663L217.326 113.951ZM218.735 113.981C222.785 113.981 226.215 112.849 229.016 110.581L228.835 110.357C226.092 112.579 222.728 113.693 218.735 113.693V113.981ZM229.016 110.581C230.791 109.161 232.152 107.385 233.099 105.256L232.835 105.139C231.907 107.227 230.574 108.966 228.836 110.356L229.016 110.581ZM233.098 105.257C233.985 103.307 234.429 101.315 234.429 99.2823H234.141C234.141 101.271 233.706 103.223 232.836 105.138L233.098 105.257ZM234.429 99.2823C234.429 95.8315 233.304 92.7439 231.057 90.0246L230.835 90.208C233.04 92.877 234.141 95.9001 234.141 99.2823H234.429ZM231.058 90.0254C229.342 87.9153 227.192 86.4255 224.608 85.5579L224.517 85.8309C227.048 86.6812 229.153 88.1394 230.835 90.2071L231.058 90.0254ZM224.608 85.5579C222.03 84.6918 218.411 84.2326 213.758 84.174L213.755 84.462C218.395 84.5205 221.98 84.9789 224.517 85.8309L224.608 85.5579ZM213.613 84.3161L213.349 103.937L213.637 103.94L213.901 84.3199L213.613 84.3161ZM213.349 103.938V109.239H213.637V103.938H213.349ZM213.349 109.242L213.378 110.618L213.666 110.612L213.637 109.236L213.349 109.242ZM213.422 110.719C214.618 111.875 215.892 112.944 217.245 113.924L217.414 113.691C216.072 112.719 214.808 111.659 213.622 110.512L213.422 110.719Z" fill="#0F74BA"/>
<path d="M299.444 47.1024C291.406 58.56 251.808 66.2714 226.814 56.177C193.623 42.7718 169.989 71.2596 169.925 56.736" stroke="#009846" stroke-width="2.00013" stroke-miterlimit="22.9256" stroke-linecap="round"/>
<path d="M4.6405 48.5212C12.678 59.9785 59.8719 65.7539 84.8659 55.6592C118.056 42.2547 141.691 70.7422 141.755 56.2182" stroke="#009846" stroke-width="2.00013" stroke-miterlimit="22.9256" stroke-linecap="round"/>
</g>
<defs>
<clipPath id="clip0_26_86">
<rect width="304.362" height="132.197" fill="white"/>
</clipPath>
</defs>
</svg>
