<svg width="66" height="45" viewBox="0 0 66 45" fill="none" xmlns="http://www.w3.org/2000/svg">
<path fill-rule="evenodd" clip-rule="evenodd" d="M37.4328 13.0837C33.795 9.23225 30.7266 6.73239 25.3109 5.64979C15.7244 3.73359 6.26017 9.68903 4.27272 19.3065C2.43475 28.2004 8.19523 38.0306 17.4129 40.0724C26.4961 42.0846 35.7566 37.0635 38.0957 27.9184C38.6522 25.7431 39.0233 23.4625 38.8655 21.2229C37.2607 23.5835 35.1936 27.114 34.0767 28.7791C33.1244 30.1987 30.3937 35.0292 28.1103 34.0259C25.7246 32.9779 24.9611 26.4653 23.6124 24.1824C21.4941 27.3581 16.8711 46.967 12.7191 20.8676C12.4681 19.2901 12.2649 17.7763 12.1248 16.2296C11.2631 18.4599 10.5839 20.2904 10.2583 23.046L10.0745 22.0761C9.97756 20.7755 11.6229 14.0956 12.1928 13.7412C13.0176 13.2286 12.9743 14.921 12.9952 15.1026C13.2897 17.6515 15.7402 31.1035 17.6342 32.5217C19.164 31.3244 20.7953 24.1725 22.4825 22.5096C25.753 19.2868 27.2083 30.1281 28.8458 31.8766C30.1839 30.7617 33.0521 26.0169 33.8658 24.6869C34.637 23.4262 37.8895 17.3012 39.3471 17.0564C42.8301 16.4716 41.2114 26.6643 40.7586 28.5668C39.0818 35.609 33.7168 40.8852 26.6692 42.6089C14.7842 45.5159 3.96611 37.7941 2.14176 26.0383C0.702309 16.7627 6.25134 7.60835 15.2843 4.84366C23.2659 2.40066 33.5009 5.59064 37.4328 13.0837Z" fill="#FEFEFE"/>
<path d="M39.5139 9.93457V3.15278H40.4411L44.0193 8.47591V3.15278H44.8862V9.93457H43.9589L40.3806 4.61125V9.93457H39.5139ZM46.1261 6.63373C46.1261 5.50954 46.4308 4.62881 47.0389 3.99249C47.6469 3.35636 48.4313 3.03906 49.3934 3.03906C50.0235 3.03906 50.5903 3.18903 51.0967 3.48744C51.6015 3.78585 51.9873 4.20256 52.2525 4.73775C52.5177 5.27123 52.6508 5.8774 52.6508 6.55455C52.6508 7.24143 52.5114 7.85714 52.2318 8.39844C51.9524 8.94165 51.5572 9.35206 51.0458 9.62987C50.5331 9.90939 49.9807 10.0483 49.3886 10.0483C48.7456 10.0483 48.1725 9.89355 47.6659 9.58579C47.1613 9.27803 46.777 8.85808 46.5166 8.32441C46.2562 7.79246 46.1261 7.22884 46.1261 6.63373ZM47.0596 6.64938C47.0596 7.46562 47.2803 8.10805 47.7216 8.57703C48.1629 9.04583 48.7168 9.28108 49.3838 9.28108C50.0632 9.28108 50.6204 9.0443 51.0602 8.57054C51.4984 8.09698 51.7176 7.4246 51.7176 6.55303C51.7176 6.00219 51.6237 5.52061 51.4365 5.1102C51.2492 4.69979 50.9744 4.38096 50.6141 4.15524C50.252 3.92934 49.8474 3.81562 49.398 3.81562C48.7598 3.81562 48.2105 4.03351 47.7502 4.4693C47.2897 4.90509 47.0596 5.63127 47.0596 6.64938ZM54.9879 9.93457L53.1923 3.15278H54.1289L55.1514 7.59975C55.2625 8.0655 55.3609 8.528 55.4449 8.98573C55.6243 8.26278 55.7291 7.84608 55.7592 7.7356L57.0484 3.15278H58.136L59.1138 6.58642C59.3536 7.43872 59.5313 8.23913 59.6457 8.98573C59.736 8.55795 59.8519 8.06702 59.9933 7.51294L61.0586 3.15278H61.965L60.0981 9.93457H59.2203L57.7898 4.76771C57.6692 4.33517 57.5962 4.06995 57.5692 3.97188C57.4915 4.28136 57.4214 4.54657 57.3612 4.76599L55.9308 9.93457H54.9879Z" fill="#FEFEFE"/>
<path d="M54.0573 19.7421V12.9603H54.9621V19.7421H54.0573ZM56.5417 19.7421V12.9603H57.4688L61.0471 18.2834V12.9603H61.914V19.7421H60.9868L57.4084 14.4187V19.7421H56.5417Z" fill="#FEFEFE"/>
<path d="M42.5322 34.6867V23.1091H50.9391V24.4674H44.077V28.0249H50.5V29.383H44.077V33.3286H51.2155V34.6867H42.5322ZM53.2807 34.6867V23.1091H57.6495C58.5385 23.1091 59.2511 23.2251 59.7905 23.4596C60.3271 23.6939 60.7471 24.0551 61.0507 24.5428C61.3569 25.028 61.5087 25.5374 61.5087 26.0709C61.5087 26.5641 61.3732 27.0303 61.105 27.467C60.8366 27.9036 60.4302 28.2565 59.8854 28.5259C60.59 28.7309 61.132 29.0812 61.5087 29.5771C61.888 30.0703 62.0778 30.6551 62.0778 31.3288C62.0778 31.8733 61.9613 32.377 61.7309 32.8434C61.5004 33.3097 61.2161 33.668 60.8772 33.9214C60.5386 34.1719 60.113 34.3633 59.6036 34.4928C59.0913 34.622 58.4652 34.6867 57.7226 34.6867H53.2807ZM54.8255 27.9764H57.3433C58.0262 27.9764 58.5168 27.9305 58.8121 27.8415C59.205 27.7257 59.5005 27.5317 59.6984 27.2623C59.8962 26.9927 59.9965 26.6559 59.9965 26.2487C59.9965 25.8633 59.9042 25.5239 59.7173 25.2327C59.533 24.9391 59.2674 24.737 58.9234 24.629C58.5789 24.5212 57.9882 24.4674 57.1535 24.4674H54.8255V27.9764ZM54.8255 33.3286H57.7253C58.224 33.3286 58.5736 33.3097 58.7768 33.2719C59.1292 33.2099 59.4272 33.1049 59.6659 32.9565C59.9042 32.8083 60.0994 32.5928 60.254 32.3097C60.4085 32.0267 60.4843 31.7007 60.4843 31.3315C60.4843 30.8976 60.3732 30.523 60.1481 30.2023C59.9259 29.8818 59.617 29.658 59.2213 29.5286C58.8284 29.3992 58.2591 29.3346 57.5194 29.3346H54.8255V33.3286Z" fill="#FEFEFE"/>
</svg>
