<svg width="153" height="69" viewBox="0 0 153 69" fill="none" xmlns="http://www.w3.org/2000/svg">
<g clip-path="url(#clip0_27_156)">
<path d="M86.0422 31.8859C86.0422 33.0208 85.6959 34.5354 85.0032 36.4297C84.4942 37.815 83.7515 39.5216 82.7751 41.5494C82.0908 42.9347 81.4107 44.3199 80.7348 45.7052C80.6012 45.9723 80.4761 46.2643 80.3592 46.5814C80.2507 46.9069 80.184 47.0905 80.1589 47.1322C80.1339 47.1823 80.1005 47.2073 80.0588 47.2073C80.0171 47.2073 79.9712 47.1739 79.9211 47.1072C79.8794 47.0488 79.6916 46.6482 79.3578 45.9055C78.9155 44.9375 78.3397 43.6023 77.6304 41.8999C76.9294 40.1975 76.3703 38.8122 75.9531 37.7441C75.5692 38.6036 75.1811 39.4631 74.7889 40.3227C74.3133 41.3575 73.8376 42.3881 73.3619 43.4145C72.8028 44.6412 72.4148 45.5049 72.1978 46.0056C72.1728 46.0724 72.1018 46.281 71.985 46.6315C71.9182 46.8401 71.8557 46.9903 71.7972 47.0821C71.7722 47.1406 71.7347 47.1698 71.6846 47.1698C71.6512 47.1698 71.622 47.1489 71.597 47.1072C71.5803 47.0821 71.5511 47.007 71.5093 46.8819C71.4259 46.6399 71.3466 46.4312 71.2715 46.256C70.7124 44.8791 70.1574 43.498 69.6067 42.1127C68.6971 39.8261 68.0003 37.8984 67.5162 36.3296C66.832 34.1098 66.4898 32.4033 66.4898 31.2099C66.4898 30.4005 66.6692 29.687 67.0281 29.0694C67.4453 28.3434 68.0086 27.9804 68.7179 27.9804C69.1686 27.9804 69.5316 28.1056 69.807 28.3559C70.049 28.5729 70.1533 28.7982 70.1199 29.0319C70.0782 29.1153 70.0531 29.1612 70.0448 29.1696C70.0031 29.2113 69.953 29.2071 69.8946 29.157C69.8278 29.0903 69.7277 29.0319 69.5942 28.9818C69.469 28.9317 69.2937 28.9067 69.0684 28.9067C68.7096 28.9067 68.4342 29.1278 68.2423 29.5701C68.0921 29.9206 68.0169 30.342 68.0169 30.8344C68.0169 31.4853 68.1046 32.1988 68.2798 32.9749C68.4217 33.6008 68.6345 34.3351 68.9182 35.178C69.1769 35.904 69.4356 36.6258 69.6943 37.3435C70.0281 38.2698 70.3786 39.2044 70.7458 40.1474C71.0128 40.8234 71.3091 41.5619 71.6345 42.363C71.8098 42.8053 71.9892 43.2434 72.1728 43.6774L75.3773 36.5424C74.985 35.541 74.7013 34.7107 74.5261 34.0514C74.3091 33.2252 74.2006 32.445 74.2006 31.7106C74.2006 30.8094 74.3884 30.1042 74.7639 29.5952C75.1478 29.0861 75.686 28.8316 76.3787 28.8316C77.0045 28.8316 77.4969 29.0611 77.8557 29.5201C78.2229 29.9707 78.4065 30.5757 78.4065 31.3351C78.4065 31.8024 78.2521 32.4867 77.9433 33.388C77.6429 34.2809 77.3133 35.0653 76.9545 35.7413L80.4343 43.9277C80.91 43.0515 81.419 42.0167 81.9615 40.8234C82.6875 39.2128 83.2633 37.7441 83.6889 36.4172C84.2397 34.6814 84.515 33.2628 84.515 32.1612C84.515 31.4436 84.3732 30.826 84.0895 30.3087C83.764 29.7078 83.3134 29.4074 82.7376 29.4074C82.337 29.4074 82.0449 29.495 81.8613 29.6703C81.6777 29.8455 81.5859 30.1501 81.5859 30.584C81.5859 30.7009 81.5609 30.7593 81.5108 30.7593C81.4942 30.7593 81.4524 30.7426 81.3857 30.7092C81.0018 30.5173 80.8099 30.1751 80.8099 29.6828C80.8099 29.1237 81.0686 28.6939 81.5859 28.3935C82.0032 28.1515 82.4705 28.0305 82.9879 28.0305C83.9142 28.0305 84.6611 28.4102 85.2285 29.1696C85.771 29.8956 86.0422 30.801 86.0422 31.8859ZM77.4552 31.4853C77.4552 31.0681 77.3842 30.7134 77.2424 30.4213C77.0671 30.0625 76.8126 29.8831 76.4788 29.8831C76.1533 29.8831 75.9072 30.0333 75.7403 30.3337C75.5817 30.6341 75.5024 30.9846 75.5024 31.3852C75.5024 31.9526 75.5984 32.5368 75.7903 33.1376C75.9489 33.6216 76.17 34.1223 76.4538 34.6397C76.7375 34.0389 76.9545 33.5257 77.1047 33.1001C77.3383 32.4408 77.4552 31.9026 77.4552 31.4853Z" fill="#009846"/>
<path d="M85.0032 36.4297L85.1717 36.4916L85.1718 36.4914L85.0032 36.4297ZM82.7751 41.5494L82.936 41.6289L82.9368 41.6272L82.7751 41.5494ZM80.7348 45.7052L80.8953 45.7855L80.896 45.7839L80.7348 45.7052ZM80.3592 46.5814L80.1908 46.5194L80.189 46.5247L80.3592 46.5814ZM80.1589 47.1322L80.0046 47.0396L79.9984 47.052L80.1589 47.1322ZM79.9211 47.1072L79.775 47.2115L79.7776 47.2148L79.9211 47.1072ZM79.3578 45.9055L79.5215 45.8319L79.521 45.8309L79.3578 45.9055ZM77.6304 41.8999L77.4645 41.9682L77.4648 41.9689L77.6304 41.8999ZM75.9531 37.7441L76.1202 37.6788L75.9641 37.2792L75.7892 37.6709L75.9531 37.7441ZM74.7889 40.3227L74.952 40.3976L74.9522 40.3972L74.7889 40.3227ZM73.3619 43.4145L73.1991 43.3391L73.1986 43.3401L73.3619 43.4145ZM72.1978 46.0056L72.0329 45.9342L72.0298 45.9426L72.1978 46.0056ZM71.985 46.6315L71.8147 46.5748L71.8141 46.5768L71.985 46.6315ZM71.7972 47.0821L71.6458 46.9858L71.638 46.9981L71.6323 47.0114L71.7972 47.0821ZM71.597 47.1072L71.751 47.0147L71.7463 47.0076L71.597 47.1072ZM71.5093 46.8819L71.6796 46.8251L71.679 46.8234L71.5093 46.8819ZM71.2715 46.256L71.1052 46.3235L71.1066 46.3267L71.2715 46.256ZM69.6067 42.1127L69.7734 42.0464L69.7734 42.0463L69.6067 42.1127ZM67.5162 36.3296L67.3448 36.3825L67.3448 36.3825L67.5162 36.3296ZM67.0281 29.0694L67.1832 29.1596L67.1837 29.1588L67.0281 29.0694ZM69.807 28.3559L69.6862 28.4887L69.6872 28.4895L69.807 28.3559ZM70.1199 29.0319L70.2804 29.1121L70.2934 29.0861L70.2975 29.0572L70.1199 29.0319ZM70.0448 29.1696L70.1717 29.2965L70.0448 29.1696ZM69.8946 29.157L69.7673 29.2843L69.7778 29.2933L69.8946 29.157ZM69.5942 28.9818L69.5275 29.1485L69.5311 29.1498L69.5942 28.9818ZM68.2423 29.5701L68.0776 29.4987L68.0773 29.4994L68.2423 29.5701ZM68.2798 32.9749L68.1048 33.0144L68.1048 33.0146L68.2798 32.9749ZM68.9182 35.178L68.7481 35.2352L68.7492 35.2382L68.9182 35.178ZM69.6943 37.3435L69.8631 37.2827L69.8631 37.2827L69.6943 37.3435ZM70.7458 40.1474L70.5785 40.2125L70.5789 40.2134L70.7458 40.1474ZM71.6345 42.363L71.8014 42.2969L71.8008 42.2955L71.6345 42.363ZM72.1728 43.6774L72.0075 43.7473L72.1679 44.1263L72.3365 43.7509L72.1728 43.6774ZM75.3773 36.5424L75.541 36.6159L75.5718 36.5471L75.5443 36.4769L75.3773 36.5424ZM74.5261 34.0514L74.3525 34.097L74.3526 34.0975L74.5261 34.0514ZM74.7639 29.5952L74.6206 29.4871L74.6195 29.4886L74.7639 29.5952ZM77.8557 29.5201L77.7143 29.6306L77.7166 29.6334L77.8557 29.5201ZM77.9433 33.388L77.7736 33.3298L77.7733 33.3307L77.9433 33.388ZM76.9545 35.7413L76.796 35.6571L76.7558 35.7327L76.7893 35.8115L76.9545 35.7413ZM80.4343 43.9277L80.2692 43.9979L80.4146 44.3401L80.592 44.0133L80.4343 43.9277ZM81.9615 40.8234L82.1248 40.8976L82.1251 40.8971L81.9615 40.8234ZM83.6889 36.4172L83.8598 36.472L83.8599 36.4715L83.6889 36.4172ZM84.0895 30.3087L83.9317 30.3941L83.9321 30.3949L84.0895 30.3087ZM81.3857 30.7092L81.4659 30.5487L81.3857 30.7092ZM81.5859 28.3935L81.4959 28.2382L81.4958 28.2383L81.5859 28.3935ZM85.2285 29.1696L85.3723 29.0622L85.3723 29.0621L85.2285 29.1696ZM77.2424 30.4213L77.4038 30.3429L77.4036 30.3426L77.2424 30.4213ZM75.7403 30.3337L75.5834 30.2465L75.5816 30.2499L75.7403 30.3337ZM75.7903 33.1376L75.6194 33.1922L75.6198 33.1935L75.7903 33.1376ZM76.4538 34.6397L76.2964 34.726L76.4657 35.0347L76.616 34.7163L76.4538 34.6397ZM77.1047 33.1001L76.9355 33.0401L76.9354 33.0403L77.1047 33.1001ZM85.8627 31.8859C85.8627 32.9894 85.5248 34.4806 84.8347 36.3681L85.1718 36.4914C85.8669 34.5902 86.2216 33.0522 86.2216 31.8859H85.8627ZM84.8348 36.3678C84.3285 37.7457 83.5884 39.4465 82.6134 41.4715L82.9368 41.6272C83.9145 39.5966 84.6599 37.8843 85.1717 36.4916L84.8348 36.3678ZM82.6142 41.4699C81.9298 42.8554 81.2495 44.241 80.5735 45.6265L80.896 45.7839C81.5718 44.3989 82.2518 43.0139 82.936 41.6289L82.6142 41.4699ZM80.5742 45.625C80.4374 45.8986 80.3097 46.1969 80.1908 46.5194L80.5276 46.6435C80.6425 46.3318 80.7651 46.0459 80.8953 45.7855L80.5742 45.625ZM80.189 46.5247C80.1349 46.6868 80.0917 46.8123 80.0591 46.9019C80.0428 46.9468 80.0296 46.9814 80.0194 47.0066C80.0077 47.0352 80.0034 47.0427 80.0051 47.0399L80.3128 47.2245C80.3362 47.1855 80.3653 47.1102 80.3964 47.0245C80.4306 46.9305 80.475 46.8015 80.5295 46.6382L80.189 46.5247ZM79.9984 47.052C79.9943 47.0602 79.9956 47.0539 80.0075 47.045C80.0137 47.0403 80.0219 47.0357 80.0318 47.0324C80.0417 47.0291 80.051 47.0279 80.0588 47.0279V47.3868C80.1919 47.3868 80.2761 47.2991 80.3195 47.2125L79.9984 47.052ZM80.0588 47.0279C80.0874 47.0279 80.1018 47.0394 80.0986 47.0371C80.0974 47.0363 80.0936 47.0333 80.0874 47.0268C80.0813 47.0204 80.0737 47.0115 80.0647 46.9995L79.7776 47.2148C79.8088 47.2565 79.8451 47.2965 79.8875 47.3274C79.9303 47.3585 79.9885 47.3868 80.0588 47.3868V47.0279ZM80.0671 47.0029C80.0689 47.0053 80.0659 47.0011 80.0563 46.9835C80.0479 46.968 80.0368 46.9467 80.0229 46.919C79.9953 46.8636 79.9582 46.7864 79.9115 46.6868C79.8182 46.4878 79.6883 46.203 79.5215 45.8319L79.1941 45.9791C79.3612 46.3507 79.492 46.6375 79.5865 46.8391C79.6337 46.9398 79.6723 47.0201 79.7019 47.0795C79.7287 47.1331 79.7548 47.1831 79.7751 47.2115L80.0671 47.0029ZM79.521 45.8309C79.08 44.8656 78.5051 43.5325 77.7961 41.8309L77.4648 41.9689C78.1744 43.672 78.7511 45.0094 79.1946 45.9801L79.521 45.8309ZM77.7963 41.8316C77.0956 40.1297 76.5369 38.7455 76.1202 37.6788L75.7859 37.8094C76.2037 38.879 76.7633 40.2653 77.4645 41.9682L77.7963 41.8316ZM75.7892 37.6709C75.4055 38.53 75.0177 39.3891 74.6257 40.2482L74.9522 40.3972C75.3446 39.5372 75.7328 38.6772 76.1169 37.8172L75.7892 37.6709ZM74.6259 40.2477C74.1503 41.2823 73.6747 42.3128 73.1991 43.3391L73.5248 43.49C74.0005 42.4634 74.4762 41.4326 74.952 40.3976L74.6259 40.2477ZM73.1986 43.3401C72.6395 44.5668 72.2509 45.4319 72.0331 45.9343L72.3625 46.077C72.5787 45.578 72.9661 44.7157 73.5252 43.4889L73.1986 43.3401ZM72.0298 45.9426C72.0033 46.0133 71.931 46.226 71.8148 46.5748L72.1552 46.6883C72.2726 46.3361 72.3423 46.1315 72.3658 46.0686L72.0298 45.9426ZM71.8141 46.5768C71.7483 46.7824 71.6913 46.9143 71.6458 46.9858L71.9486 47.1785C72.02 47.0663 72.0882 46.8978 72.1559 46.6862L71.8141 46.5768ZM71.6323 47.0114C71.6279 47.0218 71.6282 47.0155 71.6401 47.0062C71.6463 47.0014 71.6541 46.997 71.663 46.994C71.6719 46.9911 71.6794 46.9903 71.6846 46.9903V47.3492C71.7473 47.3492 71.8085 47.33 71.8605 47.2895C71.9099 47.251 71.9416 47.2009 71.9622 47.1528L71.6323 47.0114ZM71.6846 46.9903C71.7082 46.9903 71.7285 46.9985 71.7419 47.0081C71.7531 47.0161 71.7549 47.0217 71.7508 47.0148L71.4431 47.1995C71.4843 47.2683 71.562 47.3492 71.6846 47.3492V46.9903ZM71.7463 47.0076C71.75 47.0132 71.7497 47.014 71.7452 47.0042C71.7415 46.996 71.7363 46.9839 71.7298 46.967C71.7167 46.9334 71.7 46.8864 71.6796 46.8251L71.3391 46.9386C71.3604 47.0025 71.3792 47.0557 71.3953 47.0971C71.4093 47.1331 71.427 47.1757 71.4476 47.2067L71.7463 47.0076ZM71.679 46.8234C71.5946 46.5785 71.5137 46.3656 71.4364 46.1853L71.1066 46.3267C71.1795 46.4968 71.2572 46.7012 71.3397 46.9404L71.679 46.8234ZM71.4378 46.1885C70.8788 44.8119 70.324 43.4312 69.7734 42.0464L69.4399 42.179C69.9908 43.5647 70.546 44.9462 71.1052 46.3235L71.4378 46.1885ZM69.7734 42.0463C68.8648 39.7623 68.1698 37.8394 67.6877 36.2767L67.3448 36.3825C67.8307 37.9575 68.5293 39.89 69.4399 42.179L69.7734 42.0463ZM67.6877 36.2767C67.0047 34.0611 66.6693 32.3755 66.6693 31.2099H66.3104C66.3104 32.431 66.6592 34.1585 67.3448 36.3825L67.6877 36.2767ZM66.6693 31.2099C66.6693 30.4278 66.8423 29.7462 67.1832 29.1596L66.8729 28.9793C66.4961 29.6277 66.3104 30.3731 66.3104 31.2099H66.6693ZM67.1837 29.1588C67.5758 28.4766 68.0855 28.1598 68.7179 28.1598V27.8009C67.9317 27.8009 67.3149 28.2102 66.8725 28.98L67.1837 29.1588ZM68.7179 28.1598C69.1338 28.1598 69.4505 28.2744 69.6862 28.4887L69.9277 28.2231C69.6126 27.9367 69.2033 27.8009 68.7179 27.8009V28.1598ZM69.6872 28.4895C69.903 28.683 69.9642 28.8531 69.9422 29.0065L70.2975 29.0572C70.3424 28.7434 70.195 28.4628 69.9267 28.2223L69.6872 28.4895ZM69.9594 28.9516C69.9389 28.9927 69.9233 29.0228 69.9123 29.0429C69.9067 29.0532 69.9032 29.0592 69.9013 29.0622C69.9004 29.0637 69.9007 29.0631 69.9021 29.0612C69.9024 29.0607 69.9081 29.0525 69.9179 29.0427L70.1717 29.2965C70.1907 29.2774 70.2039 29.2554 70.207 29.2503C70.2135 29.2397 70.2204 29.2275 70.2274 29.2148C70.2414 29.1891 70.2592 29.1545 70.2804 29.1121L69.9594 28.9516ZM69.9179 29.0427C69.9212 29.0394 69.9296 29.032 69.944 29.0262C69.9591 29.02 69.9755 29.0176 69.9908 29.0189C70.0186 29.0212 70.0262 29.0335 70.0114 29.0208L69.7778 29.2933C69.8214 29.3306 69.8832 29.3701 69.961 29.3766C70.0481 29.3838 70.1207 29.3474 70.1717 29.2965L69.9179 29.0427ZM70.0215 29.0302C69.9298 28.9384 69.8036 28.8687 69.6572 28.8138L69.5311 29.1498C69.6518 29.1951 69.7259 29.2421 69.7677 29.2839L70.0215 29.0302ZM69.6608 28.8152C69.5049 28.7528 69.3033 28.7272 69.0684 28.7272V29.0861C69.2842 29.0861 69.4331 29.1107 69.5275 29.1484L69.6608 28.8152ZM69.0684 28.7272C68.8489 28.7272 68.6505 28.796 68.4804 28.9326C68.3132 29.0669 68.1812 29.2601 68.0776 29.4987L68.4069 29.6416C68.4953 29.4379 68.5969 29.2994 68.7051 29.2125C68.8104 29.1279 68.9292 29.0861 69.0684 29.0861V28.7272ZM68.0773 29.4994C67.9152 29.8777 67.8375 30.3245 67.8375 30.8344H68.1964C68.1964 30.3596 68.2689 29.9635 68.4072 29.6408L68.0773 29.4994ZM67.8375 30.8344C67.8375 31.5012 67.9272 32.2281 68.1048 33.0144L68.4549 32.9354C68.2819 32.1695 68.1964 31.4695 68.1964 30.8344H67.8375ZM68.1048 33.0146C68.2484 33.6481 68.4631 34.3886 68.7481 35.2352L69.0883 35.1207C68.8058 34.2816 68.5949 33.5534 68.4548 32.9352L68.1048 33.0146ZM68.7492 35.2382C69.0079 35.9644 69.2667 36.6865 69.5255 37.4044L69.8631 37.2827C69.6045 36.5652 69.3459 35.8436 69.0873 35.1177L68.7492 35.2382ZM69.5255 37.4043C69.8598 38.3321 70.2108 39.2682 70.5785 40.2125L70.913 40.0823C70.5463 39.1407 70.1964 38.2075 69.8631 37.2827L69.5255 37.4043ZM70.5789 40.2134C70.8462 40.8899 71.1426 41.629 71.4683 42.4306L71.8008 42.2955C71.4755 41.4948 71.1795 40.7568 70.9127 40.0815L70.5789 40.2134ZM71.4677 42.4291C71.6434 42.8727 71.8234 43.3121 72.0075 43.7473L72.338 43.6075C72.155 43.1748 71.9761 42.7379 71.8013 42.2969L71.4677 42.4291ZM72.3365 43.7509L75.541 36.6159L75.2136 36.4689L72.0091 43.6039L72.3365 43.7509ZM75.5443 36.4769C75.1534 35.4787 74.8723 34.6554 74.6995 34.0053L74.3526 34.0975C74.5303 34.7659 74.8167 35.6033 75.2102 36.6078L75.5443 36.4769ZM74.6996 34.0058C74.4859 33.1922 74.3801 32.4273 74.3801 31.7106H74.0212C74.0212 32.4626 74.1322 33.2583 74.3525 34.097L74.6996 34.0058ZM74.3801 31.7106C74.3801 30.8319 74.5634 30.1692 74.9083 29.7017L74.6195 29.4886C74.2133 30.0392 74.0212 30.7868 74.0212 31.7106H74.3801ZM74.9072 29.7032C75.2539 29.2434 75.7367 29.011 76.3787 29.011V28.6521C75.6353 28.6521 75.0416 28.9288 74.6206 29.4871L74.9072 29.7032ZM76.3787 29.011C76.954 29.011 77.3923 29.2187 77.7143 29.6306L77.9971 29.4095C77.6014 28.9034 77.055 28.6521 76.3787 28.6521V29.011ZM77.7166 29.6334C78.0506 30.0433 78.227 30.6042 78.227 31.3351H78.5859C78.5859 30.5472 78.3952 29.898 77.9948 29.4067L77.7166 29.6334ZM78.227 31.3351C78.227 31.7712 78.0812 32.432 77.7736 33.3298L78.1131 33.4461C78.4231 32.5414 78.5859 31.8336 78.5859 31.3351H78.227ZM77.7733 33.3307C77.4753 34.2164 77.1493 34.9915 76.796 35.6571L77.113 35.8254C77.4773 35.1391 77.8106 34.3454 78.1134 33.4452L77.7733 33.3307ZM76.7893 35.8115L80.2692 43.9979L80.5995 43.8575L77.1196 35.6711L76.7893 35.8115ZM80.592 44.0133C81.0702 43.1325 81.5812 42.0937 82.1248 40.8976L81.7981 40.7491C81.2569 41.9397 80.7498 42.9705 80.2766 43.8421L80.592 44.0133ZM82.1251 40.8971C82.8532 39.2819 83.4316 37.8068 83.8598 36.472L83.518 36.3624C83.0949 37.6814 82.5218 39.1437 81.7979 40.7496L82.1251 40.8971ZM83.8599 36.4715C84.4131 34.728 84.6945 33.2893 84.6945 32.1612H84.3356C84.3356 33.2363 84.0662 34.6348 83.5178 36.3629L83.8599 36.4715ZM84.6945 32.1612C84.6945 31.4199 84.5479 30.7714 84.2468 30.2224L83.9321 30.3949C84.1985 30.8807 84.3356 31.4673 84.3356 32.1612H84.6945ZM84.2472 30.2232C83.8974 29.5774 83.3928 29.2279 82.7376 29.2279V29.5868C83.234 29.5868 83.6305 29.8382 83.9317 30.3941L84.2472 30.2232ZM82.7376 29.2279C82.3165 29.2279 81.9692 29.3192 81.7374 29.5405L81.9852 29.8001C82.1206 29.6708 82.3575 29.5868 82.7376 29.5868V29.2279ZM81.7374 29.5405C81.5001 29.767 81.4065 30.1338 81.4065 30.584H81.7654C81.7654 30.1664 81.8554 29.9241 81.9852 29.8001L81.7374 29.5405ZM81.4065 30.584C81.4065 30.6073 81.4052 30.624 81.4036 30.6353C81.4019 30.6473 81.4004 30.6491 81.4022 30.6448C81.4041 30.6405 81.4122 30.6232 81.4335 30.6067C81.4574 30.5881 81.4857 30.5798 81.5108 30.5798V30.9387C81.561 30.9387 81.6113 30.9231 81.6539 30.89C81.6939 30.8588 81.7178 30.8197 81.7321 30.7862C81.7592 30.723 81.7654 30.6498 81.7654 30.584H81.4065ZM81.5108 30.5798C81.5228 30.5798 81.5316 30.5812 81.5355 30.5819C81.5399 30.5827 81.5425 30.5835 81.5429 30.5836C81.5436 30.5838 81.5408 30.583 81.5337 30.5802C81.5194 30.5745 81.4973 30.5644 81.4659 30.5487L81.3054 30.8697C81.3408 30.8874 81.3729 30.9024 81.4004 30.9134C81.4141 30.9189 81.4291 30.9244 81.4443 30.9287C81.4568 30.9323 81.4816 30.9387 81.5108 30.9387V30.5798ZM81.4659 30.5487C81.3029 30.4672 81.1871 30.3577 81.1103 30.2209C81.0328 30.0826 80.9893 29.9059 80.9893 29.6828H80.6304C80.6304 29.952 80.6829 30.1926 80.7973 30.3965C80.9125 30.6018 81.0845 30.7593 81.3054 30.8697L81.4659 30.5487ZM80.9893 29.6828C80.9893 29.1929 81.2092 28.8197 81.6761 28.5487L81.4958 28.2383C80.9279 28.5681 80.6304 29.0544 80.6304 29.6828H80.9893ZM81.676 28.5487C82.0639 28.3237 82.4998 28.2099 82.9879 28.2099V27.851C82.4413 27.851 81.9425 27.9792 81.4959 28.2382L81.676 28.5487ZM82.9879 28.2099C83.8561 28.2099 84.5503 28.5617 85.0848 29.277L85.3723 29.0621C84.7719 28.2587 83.9723 27.851 82.9879 27.851V28.2099ZM85.0848 29.277C85.5997 29.9662 85.8627 30.8319 85.8627 31.8859H86.2216C86.2216 30.7701 85.9422 29.8249 85.3723 29.0622L85.0848 29.277ZM77.6346 31.4853C77.6346 31.0484 77.5604 30.6654 77.4038 30.3429L77.0809 30.4997C77.2081 30.7614 77.2757 31.0877 77.2757 31.4853H77.6346ZM77.4036 30.3426C77.3064 30.1435 77.1814 29.9823 77.0234 29.8709C76.8637 29.7583 76.6799 29.7036 76.4788 29.7036V30.0625C76.6115 30.0625 76.7219 30.0975 76.8166 30.1643C76.9132 30.2324 77.0031 30.3403 77.0811 30.5001L77.4036 30.3426ZM76.4788 29.7036C76.2874 29.7036 76.1113 29.7481 75.9566 29.8425C75.8024 29.9366 75.679 30.0744 75.5834 30.2465L75.8971 30.4208C75.9684 30.2925 76.0516 30.205 76.1435 30.1489C76.235 30.0931 76.3447 30.0625 76.4788 30.0625V29.7036ZM75.5816 30.2499C75.4071 30.5804 75.323 30.9606 75.323 31.3852H75.6819C75.6819 31.0086 75.7563 30.6878 75.899 30.4175L75.5816 30.2499ZM75.323 31.3852C75.323 31.9731 75.4224 32.5757 75.6194 33.1922L75.9613 33.083C75.7744 32.4979 75.6819 31.9322 75.6819 31.3852H75.323ZM75.6198 33.1935C75.7823 33.6895 76.0082 34.2004 76.2964 34.726L76.6111 34.5534C76.3319 34.0443 76.1155 33.5537 75.9609 33.0818L75.6198 33.1935ZM76.616 34.7163C76.9013 34.1123 77.121 33.5931 77.2739 33.1598L76.9354 33.0403C76.788 33.4582 76.5737 33.9655 76.2915 34.5631L76.616 34.7163ZM77.2738 33.16C77.5103 32.4927 77.6346 31.9322 77.6346 31.4853H77.2757C77.2757 31.8729 77.1663 32.3889 76.9355 33.0401L77.2738 33.16Z" fill="#009846"/>
<path d="M17.6104 1.36355L28.8506 21.6944H19.1138L17.779 19.1232H13.0581L8.89918 19.1091L8.19666 19.0951L7.26934 20.8092C6.9977 21.3244 6.80568 21.6428 6.69328 21.7646C6.59024 21.8958 6.4591 21.9613 6.29987 21.9613C5.98139 21.9613 5.82216 21.8208 5.82216 21.5398C5.82216 21.418 5.91114 21.1932 6.08911 20.8654C6.27645 20.5282 6.91808 19.4323 8.01401 17.5776L16.5144 3.26035L17.6104 1.36355ZM13.2407 10.5665L10.7819 14.7114L8.81487 18.1256L13.03 18.1818L17.2591 18.1396L13.2407 10.5665ZM47.3549 11.8451V9.49869L47.3268 5.77535L47.3128 4.07526L47.2987 3.00744C47.2987 2.50163 47.472 2.24872 47.8186 2.24872C48.0246 2.24872 48.1651 2.30961 48.2401 2.43138C48.3244 2.54378 48.3665 2.7639 48.3665 3.09174V3.28845C48.3572 3.48515 48.3525 3.80831 48.3525 4.25792L48.2963 8.99288L48.2541 13.3344L48.2963 17.9008L48.3525 22.4812C46.4229 21.2729 43.5988 19.6056 39.8801 17.4793C36.1615 15.3436 33.15 13.6669 30.8458 12.4493L30.8598 13.1377L31.0003 20.3877L31.0144 21.3572C31.0144 21.7599 30.827 21.9613 30.4524 21.9613C30.0683 21.9613 29.8763 21.7131 29.8763 21.2167L29.8904 20.2331L29.9044 18.6454L29.9606 11.4376L29.8482 1.72886C33.6418 4.07995 39.4774 7.45202 47.3549 11.8451ZM64.0045 3.45705L63.9343 7.8548L63.8921 12.0277L63.9343 21.6944H55.3636L55.4479 10.4963L55.4057 6.68862L55.3636 3.45705L53.5089 3.4992L50.8534 3.5554L50.46 3.56945C50.0104 3.56945 49.7856 3.40085 49.7856 3.06364C49.7856 2.7639 49.9167 2.5953 50.179 2.55783C50.254 2.5391 50.4834 2.52505 50.8675 2.51568H68.1072C68.7067 2.52505 69.0626 2.55315 69.1751 2.59998C69.3624 2.67492 69.4561 2.83415 69.4561 3.07769C69.4561 3.39617 69.2172 3.5554 68.7395 3.5554L67.5171 3.51325L64.2855 3.45705H64.0045ZM79.1227 1.36355L90.3629 21.6944H80.6261L79.2913 19.1232H74.5704L70.4115 19.1091L69.709 19.0951L68.7816 20.8092C68.51 21.3244 68.318 21.6428 68.2056 21.7646C68.1025 21.8958 67.9714 21.9613 67.8122 21.9613C67.4937 21.9613 67.3345 21.8208 67.3345 21.5398C67.3345 21.418 67.4234 21.1932 67.6014 20.8654C67.7888 20.5282 68.4304 19.4323 69.5263 17.5776L78.0268 3.26035L79.1227 1.36355ZM74.753 10.5665L72.2942 14.7114L70.3272 18.1256L74.5423 18.1818L78.7714 18.1396L74.753 10.5665ZM100.282 2.51568L100.226 5.4522L100.17 10.131L100.184 13.5452L100.24 20.7811L101.252 20.7951L107.265 20.7108L108.361 20.6968C108.914 20.6968 109.19 20.8607 109.19 21.1886C109.19 21.4789 109.04 21.6382 108.741 21.6663C108.675 21.6756 108.46 21.685 108.094 21.6944H91.6415L91.6837 16.3552L91.7118 13.0815L91.7399 9.37224L91.6837 3.72401L91.6977 2.51568H100.282ZM121.765 9.8359L126.233 3.3025C126.533 2.82479 126.739 2.52973 126.852 2.41733C126.964 2.30492 127.109 2.24872 127.287 2.24872C127.446 2.24872 127.578 2.29087 127.681 2.37518C127.793 2.45948 127.849 2.56251 127.849 2.68428C127.849 2.80605 127.793 2.95124 127.681 3.11984C127.606 3.24161 127.512 3.37275 127.4 3.51325L126.95 4.11742L115.527 20.1769L115.063 20.8092C114.661 21.3712 114.403 21.7037 114.291 21.8068C114.188 21.9098 114.042 21.9613 113.855 21.9613C113.555 21.9613 113.405 21.8302 113.405 21.5679C113.405 21.4274 113.541 21.1979 113.813 20.8794L117.016 16.5238L116.623 15.9899C113.775 12.1589 111.762 9.48932 110.581 7.98125C109.41 6.47319 107.921 4.65133 106.113 2.51568H116.3L121.765 9.8359ZM135.352 1.36355L146.592 21.6944H136.855L135.521 19.1232H130.8L126.641 19.1091L125.938 19.0951L125.011 20.8092C124.739 21.3244 124.547 21.6428 124.435 21.7646C124.332 21.8958 124.201 21.9613 124.042 21.9613C123.723 21.9613 123.564 21.8208 123.564 21.5398C123.564 21.418 123.653 21.1932 123.831 20.8654C124.018 20.5282 124.66 19.4323 125.756 17.5776L134.256 3.26035L135.352 1.36355ZM130.982 10.5665L128.524 14.7114L126.557 18.1256L130.772 18.1818L135.001 18.1396L130.982 10.5665Z" fill="#EF7F1A"/>
<path d="M17.6104 1.36355L17.7364 1.29388L17.6131 1.07093L17.4857 1.29151L17.6104 1.36355ZM28.8506 21.6944V21.8384H29.0948L28.9767 21.6247L28.8506 21.6944ZM19.1138 21.6944L18.986 21.7607L19.0263 21.8384H19.1138V21.6944ZM17.779 19.1232L17.9068 19.0568L17.8665 18.9792H17.779V19.1232ZM13.0581 19.1232L13.0576 19.2672H13.0581V19.1232ZM8.89918 19.1091L8.8963 19.2531L8.89869 19.2531L8.89918 19.1091ZM8.19666 19.0951L8.19954 18.9511L8.11177 18.9493L8.07001 19.0265L8.19666 19.0951ZM7.26934 20.8092L7.14268 20.7407L7.14196 20.742L7.26934 20.8092ZM6.69328 21.7646L6.58713 21.6666L6.58005 21.6757L6.69328 21.7646ZM6.08911 20.8654L5.96323 20.7955L5.96256 20.7967L6.08911 20.8654ZM8.01401 17.5776L7.89018 17.5041L7.89003 17.5044L8.01401 17.5776ZM16.5144 3.26035L16.6383 3.33387L16.6391 3.33239L16.5144 3.26035ZM13.2407 10.5665L13.3679 10.499L13.2477 10.2725L13.1169 10.493L13.2407 10.5665ZM10.7819 14.7114L10.6581 14.6379L10.6571 14.6395L10.7819 14.7114ZM8.81487 18.1256L8.6901 18.0537L8.56761 18.2663L8.81295 18.2696L8.81487 18.1256ZM13.03 18.1818L13.028 18.3258L13.0314 18.3258L13.03 18.1818ZM17.2591 18.1396L17.2606 18.2836L17.4973 18.2813L17.3863 18.0721L17.2591 18.1396ZM17.4844 1.43323L28.7246 21.764L28.9767 21.6247L17.7364 1.29388L17.4844 1.43323ZM28.8506 21.5504H19.1138V21.8384H28.8506V21.5504ZM19.2416 21.628L17.9068 19.0568L17.6512 19.1895L18.986 21.7607L19.2416 21.628ZM17.779 18.9792H13.0581V19.2672H17.779V18.9792ZM13.0586 18.9792L8.89966 18.9651L8.89869 19.2531L13.0576 19.2672L13.0586 18.9792ZM8.90206 18.9651L8.19954 18.9511L8.19378 19.239L8.8963 19.2531L8.90206 18.9651ZM8.07001 19.0265L7.14268 20.7407L7.39599 20.8777L8.32331 19.1636L8.07001 19.0265ZM7.14196 20.742C7.0068 20.9984 6.8923 21.2041 6.79827 21.3601C6.70266 21.5187 6.63293 21.6177 6.58746 21.6669L6.79909 21.8623C6.86602 21.7898 6.9485 21.6687 7.04491 21.5088C7.1429 21.3463 7.26024 21.1352 7.39672 20.8764L7.14196 20.742ZM6.58005 21.6757C6.50281 21.774 6.41254 21.8173 6.29987 21.8173V22.1053C6.50566 22.1053 6.67767 22.0176 6.80651 21.8536L6.58005 21.6757ZM6.29987 21.8173C6.1587 21.8173 6.07972 21.7858 6.03686 21.748C5.99743 21.7132 5.96616 21.6531 5.96616 21.5398H5.67816C5.67816 21.7075 5.7265 21.8582 5.84631 21.9639C5.96268 22.0666 6.12256 22.1053 6.29987 22.1053V21.8173ZM5.96616 21.5398C5.96616 21.5073 5.97971 21.4417 6.02279 21.3329C6.06434 21.2279 6.12813 21.0953 6.21567 20.9341L5.96256 20.7967C5.87212 20.9633 5.80244 21.107 5.755 21.2269C5.7091 21.3429 5.67816 21.4505 5.67816 21.5398H5.96616ZM6.21499 20.9353C6.40114 20.6003 7.04148 19.5065 8.13798 17.6509L7.89003 17.5044C6.79468 19.358 6.15175 20.4561 5.96323 20.7955L6.21499 20.9353ZM8.13783 17.6511L16.6383 3.33386L16.3906 3.18683L7.89018 17.5041L8.13783 17.6511ZM16.6391 3.33239L17.7351 1.43559L17.4857 1.29151L16.3898 3.18831L16.6391 3.33239ZM13.1169 10.493L10.6581 14.6379L10.9058 14.7848L13.3646 10.64L13.1169 10.493ZM10.6571 14.6395L8.6901 18.0537L8.93965 18.1975L10.9067 14.7832L10.6571 14.6395ZM8.81295 18.2696L13.028 18.3258L13.0319 18.0378L8.81679 17.9816L8.81295 18.2696ZM13.0314 18.3258L17.2606 18.2836L17.2577 17.9956L13.0285 18.0378L13.0314 18.3258ZM17.3863 18.0721L13.3679 10.499L13.1135 10.634L17.1319 18.2071L17.3863 18.0721ZM47.3549 11.8451L47.2848 11.9709L47.4989 12.0903V11.8451H47.3549ZM47.3549 9.49869H47.4989L47.4989 9.4976L47.3549 9.49869ZM47.3268 5.77535L47.4708 5.77427V5.77416L47.3268 5.77535ZM47.3128 4.07526L47.4567 4.07407L47.4567 4.07337L47.3128 4.07526ZM47.2987 3.00744H47.1547L47.1547 3.00933L47.2987 3.00744ZM48.2401 2.43138L48.1169 2.50717L48.1249 2.51778L48.2401 2.43138ZM48.3665 3.28845L48.5105 3.2953V3.28845H48.3665ZM48.3525 4.25792L48.4965 4.25963V4.25792H48.3525ZM48.2963 8.99288L48.1523 8.99117V8.99148L48.2963 8.99288ZM48.2541 13.3344L48.1101 13.333L48.1101 13.3358L48.2541 13.3344ZM48.2963 17.9008L48.1523 17.9021L48.1523 17.9025L48.2963 17.9008ZM48.3525 22.4812L48.2761 22.6032L48.4997 22.7433L48.4965 22.4794L48.3525 22.4812ZM39.8801 17.4793L39.8084 17.6041L39.8087 17.6043L39.8801 17.4793ZM30.8458 12.4493L30.9131 12.3219L30.6968 12.2077L30.7018 12.4522L30.8458 12.4493ZM30.8598 13.1377L31.0038 13.1349L31.0038 13.1348L30.8598 13.1377ZM31.0003 20.3877L31.1443 20.3856L31.1443 20.3849L31.0003 20.3877ZM31.0144 21.3572H31.1584L31.1584 21.3551L31.0144 21.3572ZM29.8763 21.2167L29.7323 21.2146V21.2167H29.8763ZM29.8904 20.2331L30.0343 20.2352L30.0343 20.2344L29.8904 20.2331ZM29.9044 18.6454L30.0484 18.6467L30.0484 18.6466L29.9044 18.6454ZM29.9606 11.4376L30.1046 11.4388L30.1046 11.436L29.9606 11.4376ZM29.8482 1.72886L29.9241 1.60646L29.7012 1.46833L29.7042 1.73053L29.8482 1.72886ZM47.4989 11.8451V9.49869H47.2109V11.8451H47.4989ZM47.4989 9.4976L47.4708 5.77427L47.1828 5.77644L47.2109 9.49977L47.4989 9.4976ZM47.4708 5.77416L47.4567 4.07407L47.1688 4.07645L47.1828 5.77654L47.4708 5.77416ZM47.4567 4.07337L47.4427 3.00555L47.1547 3.00933L47.1688 4.07716L47.4567 4.07337ZM47.4427 3.00744C47.4427 2.7665 47.4848 2.61126 47.5475 2.5198C47.6034 2.43812 47.6856 2.39272 47.8186 2.39272V2.10472C47.605 2.10472 47.4272 2.18577 47.3099 2.35701C47.1993 2.51845 47.1547 2.74257 47.1547 3.00744H47.4427ZM47.8186 2.39272C47.9987 2.39272 48.0792 2.44479 48.1174 2.50685L48.3627 2.35591C48.251 2.17442 48.0505 2.10472 47.8186 2.10472V2.39272ZM48.1249 2.51778C48.1483 2.54907 48.1743 2.60788 48.1935 2.70785C48.2123 2.80593 48.2225 2.93315 48.2225 3.09174H48.5105C48.5105 2.92249 48.4997 2.77573 48.4763 2.65369C48.4533 2.53354 48.4161 2.42609 48.3553 2.34498L48.1249 2.51778ZM48.2225 3.09174V3.28845H48.5105V3.09174H48.2225ZM48.2227 3.2816C48.2131 3.48202 48.2085 3.80816 48.2085 4.25792H48.4965C48.4965 3.80846 48.5012 3.48828 48.5104 3.2953L48.2227 3.2816ZM48.2085 4.25621L48.1523 8.99117L48.4403 8.99459L48.4965 4.25963L48.2085 4.25621ZM48.1523 8.99148L48.1101 13.333L48.3981 13.3358L48.4403 8.99427L48.1523 8.99148ZM48.1101 13.3358L48.1523 17.9021L48.4403 17.8995L48.3981 13.3331L48.1101 13.3358ZM48.1523 17.9025L48.2085 22.483L48.4965 22.4794L48.4403 17.899L48.1523 17.9025ZM48.4289 22.3591C46.4968 21.1493 43.6708 19.4808 39.9516 17.3543L39.8087 17.6043C43.5268 19.7303 46.3489 21.3965 48.2761 22.6032L48.4289 22.3591ZM39.9518 17.3544C36.2325 15.2184 33.2194 13.5408 30.9131 12.3219L30.7785 12.5766C33.0806 13.7931 36.0904 15.4689 39.8084 17.6041L39.9518 17.3544ZM30.7018 12.4522L30.7159 13.1407L31.0038 13.1348L30.9897 12.4463L30.7018 12.4522ZM30.7159 13.1405L30.8564 20.3905L31.1443 20.3849L31.0038 13.1349L30.7159 13.1405ZM30.8563 20.3898L30.8704 21.3592L31.1584 21.3551L31.1443 20.3856L30.8563 20.3898ZM30.8704 21.3572C30.8704 21.5388 30.8279 21.6483 30.7684 21.7122C30.7108 21.7742 30.6147 21.8173 30.4524 21.8173V22.1053C30.6647 22.1053 30.8496 22.0478 30.9793 21.9084C31.1072 21.7709 31.1584 21.5783 31.1584 21.3572H30.8704ZM30.4524 21.8173C30.2938 21.8173 30.1968 21.768 30.1342 21.687C30.0662 21.5991 30.0203 21.4503 30.0203 21.2167H29.7323C29.7323 21.4794 29.7824 21.703 29.9064 21.8633C30.0358 22.0306 30.2269 22.1053 30.4524 22.1053V21.8173ZM30.0203 21.2187L30.0343 20.2352L29.7464 20.2311L29.7323 21.2146L30.0203 21.2187ZM30.0343 20.2344L30.0484 18.6467L29.7604 18.6442L29.7464 20.2319L30.0343 20.2344ZM30.0484 18.6466L30.1046 11.4388L29.8166 11.4365L29.7604 18.6443L30.0484 18.6466ZM30.1046 11.436L29.9922 1.72719L29.7042 1.73053L29.8166 11.4393L30.1046 11.436ZM29.7723 1.85126C33.5689 4.20417 39.4068 7.57756 47.2848 11.9709L47.425 11.7193C39.5479 7.32648 33.7147 3.95573 29.9241 1.60646L29.7723 1.85126ZM64.0045 3.45705V3.31305H63.8628L63.8605 3.45475L64.0045 3.45705ZM63.9343 7.8548L63.7903 7.8525L63.7903 7.85335L63.9343 7.8548ZM63.8921 12.0277L63.7481 12.0263L63.7481 12.0284L63.8921 12.0277ZM63.9343 21.6944V21.8384H64.0789L64.0783 21.6937L63.9343 21.6944ZM55.3636 21.6944L55.2196 21.6933L55.2185 21.8384H55.3636V21.6944ZM55.4479 10.4963L55.5919 10.4973L55.5919 10.4947L55.4479 10.4963ZM55.4057 6.68862L55.5497 6.68703L55.5497 6.68675L55.4057 6.68862ZM55.3636 3.45705L55.5076 3.45517L55.5057 3.30978L55.3603 3.31309L55.3636 3.45705ZM53.5089 3.4992L53.512 3.64317L53.5122 3.64316L53.5089 3.4992ZM50.8534 3.5554L50.8504 3.41142L50.8483 3.41149L50.8534 3.5554ZM50.46 3.56945V3.71354L50.4652 3.71336L50.46 3.56945ZM50.179 2.55783L50.1994 2.70038L50.2067 2.69933L50.2139 2.69753L50.179 2.55783ZM50.8675 2.51568V2.37164L50.864 2.37172L50.8675 2.51568ZM68.1072 2.51568L68.1095 2.37168H68.1072V2.51568ZM69.175 2.59998L69.1197 2.73292L69.1216 2.73368L69.175 2.59998ZM68.7395 3.5554L68.7345 3.6994H68.7395V3.5554ZM67.5171 3.51325L67.5221 3.36932L67.5196 3.36927L67.5171 3.51325ZM64.2855 3.45705L64.288 3.31305H64.2855V3.45705ZM63.8605 3.45475L63.7903 7.8525L64.0783 7.8571L64.1485 3.45935L63.8605 3.45475ZM63.7903 7.85335L63.7481 12.0263L64.0361 12.0292L64.0783 7.85625L63.7903 7.85335ZM63.7481 12.0284L63.7903 21.695L64.0783 21.6937L64.0361 12.0271L63.7481 12.0284ZM63.9343 21.5504H55.3636V21.8384H63.9343V21.5504ZM55.5076 21.6954L55.5919 10.4973L55.3039 10.4952L55.2196 21.6933L55.5076 21.6954ZM55.5919 10.4947L55.5497 6.68703L55.2617 6.69022L55.3039 10.4979L55.5919 10.4947ZM55.5497 6.68675L55.5076 3.45517L55.2196 3.45893L55.2617 6.6905L55.5497 6.68675ZM55.3603 3.31309L53.5057 3.35524L53.5122 3.64316L55.3669 3.60101L55.3603 3.31309ZM53.5059 3.35523L50.8504 3.41143L50.8565 3.69937L53.512 3.64317L53.5059 3.35523ZM50.8483 3.41149L50.4549 3.42554L50.4652 3.71336L50.8586 3.69931L50.8483 3.41149ZM50.46 3.42545C50.2491 3.42545 50.1171 3.38517 50.0406 3.3278C49.9719 3.27628 49.9296 3.19711 49.9296 3.06364H49.6416C49.6416 3.26738 49.7117 3.44112 49.8678 3.5582C50.0161 3.66944 50.2214 3.71345 50.46 3.71345V3.42545ZM49.9296 3.06364C49.9296 2.93315 49.9583 2.85138 49.9976 2.80079C50.0351 2.75264 50.0958 2.71517 50.1994 2.70038L50.1587 2.41528C49.9999 2.43795 49.864 2.50352 49.7703 2.62398C49.6785 2.74199 49.6416 2.89439 49.6416 3.06364H49.9296ZM50.2139 2.69753C50.2364 2.69191 50.2992 2.68413 50.4161 2.67697C50.5283 2.6701 50.6797 2.6643 50.871 2.65964L50.864 2.37172C50.6712 2.37642 50.5158 2.38233 50.3985 2.38951C50.286 2.3964 50.1966 2.40501 50.1441 2.41813L50.2139 2.69753ZM50.8675 2.65968H68.1072V2.37168H50.8675V2.65968ZM68.105 2.65966C68.4034 2.66432 68.6389 2.67363 68.8125 2.68733C68.8993 2.69419 68.969 2.70202 69.0223 2.71056C69.0781 2.71948 69.1077 2.72794 69.1197 2.7329L69.2304 2.46706C69.1862 2.44861 69.1291 2.43598 69.0678 2.42618C69.0041 2.41598 68.9262 2.40742 68.8351 2.40023C68.6528 2.38583 68.4105 2.3764 68.1095 2.3717L68.105 2.65966ZM69.1216 2.73368C69.1885 2.76046 69.2325 2.79907 69.2617 2.84862C69.292 2.90014 69.3121 2.97365 69.3121 3.07769H69.6001C69.6001 2.93819 69.5733 2.81031 69.5099 2.7026C69.4454 2.59291 69.3489 2.51444 69.2285 2.46628L69.1216 2.73368ZM69.3121 3.07769C69.3121 3.19498 69.2715 3.26651 69.197 3.31616C69.1123 3.37268 68.9669 3.4114 68.7395 3.4114V3.6994C68.9898 3.6994 69.2027 3.65851 69.3568 3.55579C69.5212 3.4462 69.6001 3.27888 69.6001 3.07769H69.3121ZM68.7445 3.41149L67.5221 3.36934L67.5121 3.65717L68.7345 3.69932L68.7445 3.41149ZM67.5196 3.36927L64.288 3.31307L64.283 3.60103L67.5146 3.65723L67.5196 3.36927ZM64.2855 3.31305H64.0045V3.60105H64.2855V3.31305ZM79.1227 1.36355L79.2487 1.29388L79.1254 1.07093L78.998 1.29151L79.1227 1.36355ZM90.3629 21.6944V21.8384H90.6071L90.489 21.6247L90.3629 21.6944ZM80.6261 21.6944L80.4983 21.7607L80.5386 21.8384H80.6261V21.6944ZM79.2913 19.1232L79.4191 19.0568L79.3788 18.9792H79.2913V19.1232ZM74.5704 19.1232L74.5699 19.2672H74.5704V19.1232ZM70.4115 19.1091L70.4086 19.2531L70.411 19.2531L70.4115 19.1091ZM69.709 19.0951L69.7118 18.9511L69.6241 18.9493L69.5823 19.0265L69.709 19.0951ZM68.7816 20.8092L68.655 20.7407L68.6543 20.742L68.7816 20.8092ZM68.2056 21.7646L68.0994 21.6666L68.0923 21.6757L68.2056 21.7646ZM67.6014 20.8654L67.4755 20.7955L67.4749 20.7967L67.6014 20.8654ZM69.5263 17.5776L69.4025 17.5041L69.4023 17.5044L69.5263 17.5776ZM78.0267 3.26035L78.1506 3.33387L78.1514 3.33239L78.0267 3.26035ZM74.753 10.5665L74.8802 10.499L74.76 10.2725L74.6292 10.493L74.753 10.5665ZM72.2942 14.7114L72.1704 14.6379L72.1694 14.6395L72.2942 14.7114ZM70.3272 18.1256L70.2024 18.0537L70.0799 18.2663L70.3253 18.2696L70.3272 18.1256ZM74.5423 18.1818L74.5404 18.3258L74.5437 18.3258L74.5423 18.1818ZM78.7714 18.1396L78.7729 18.2836L79.0096 18.2813L78.8986 18.0721L78.7714 18.1396ZM78.9967 1.43323L90.2369 21.764L90.489 21.6247L79.2487 1.29388L78.9967 1.43323ZM90.3629 21.5504H80.6261V21.8384H90.3629V21.5504ZM80.7539 21.628L79.4191 19.0568L79.1635 19.1895L80.4983 21.7607L80.7539 21.628ZM79.2913 18.9792H74.5704V19.2672H79.2913V18.9792ZM74.5709 18.9792L70.412 18.9651L70.411 19.2531L74.5699 19.2672L74.5709 18.9792ZM70.4144 18.9651L69.7118 18.9511L69.7061 19.239L70.4086 19.2531L70.4144 18.9651ZM69.5823 19.0265L68.655 20.7407L68.9083 20.8777L69.8356 19.1636L69.5823 19.0265ZM68.6543 20.742C68.5191 20.9984 68.4046 21.2041 68.3106 21.3601C68.215 21.5187 68.1452 21.6177 68.0998 21.6669L68.3114 21.8623C68.3783 21.7898 68.4608 21.6687 68.5572 21.5088C68.6552 21.3463 68.7725 21.1352 68.909 20.8764L68.6543 20.742ZM68.0923 21.6757C68.0151 21.774 67.9248 21.8173 67.8122 21.8173V22.1053C68.018 22.1053 68.19 22.0176 68.3188 21.8536L68.0923 21.6757ZM67.8122 21.8173C67.671 21.8173 67.592 21.7858 67.5492 21.748C67.5097 21.7132 67.4785 21.6531 67.4785 21.5398H67.1905C67.1905 21.7075 67.2388 21.8582 67.3586 21.9639C67.475 22.0666 67.6349 22.1053 67.8122 22.1053V21.8173ZM67.4785 21.5398C67.4785 21.5073 67.492 21.4417 67.5351 21.3329C67.5766 21.2279 67.6404 21.0953 67.728 20.9341L67.4749 20.7967C67.3844 20.9633 67.3147 21.107 67.2673 21.2269C67.2214 21.3429 67.1905 21.4505 67.1905 21.5398H67.4785ZM67.7273 20.9353C67.9134 20.6003 68.5538 19.5065 69.6503 17.6509L69.4023 17.5044C68.307 19.358 67.6641 20.4561 67.4755 20.7955L67.7273 20.9353ZM69.6501 17.6511L78.1506 3.33386L77.9029 3.18683L69.4025 17.5041L69.6501 17.6511ZM78.1514 3.33239L79.2474 1.43559L78.998 1.29151L77.9021 3.18831L78.1514 3.33239ZM74.6292 10.493L72.1704 14.6379L72.4181 14.7848L74.8769 10.64L74.6292 10.493ZM72.1694 14.6395L70.2024 18.0537L70.452 18.1975L72.419 14.7832L72.1694 14.6395ZM70.3253 18.2696L74.5404 18.3258L74.5442 18.0378L70.3291 17.9816L70.3253 18.2696ZM74.5437 18.3258L78.7729 18.2836L78.77 17.9956L74.5408 18.0378L74.5437 18.3258ZM78.8986 18.0721L74.8802 10.499L74.6258 10.634L78.6442 18.2071L78.8986 18.0721ZM100.282 2.51568L100.426 2.51843L100.429 2.37168H100.282V2.51568ZM100.226 5.4522L100.082 5.44944L100.082 5.45047L100.226 5.4522ZM100.17 10.131L100.026 10.1292L100.026 10.1315L100.17 10.131ZM100.184 13.5452L100.04 13.5458V13.5463L100.184 13.5452ZM100.24 20.7811L100.096 20.7822L100.097 20.9231L100.238 20.9251L100.24 20.7811ZM101.252 20.7951L101.25 20.9392L101.254 20.9391L101.252 20.7951ZM107.265 20.7108L107.264 20.5669L107.263 20.5669L107.265 20.7108ZM108.361 20.6968V20.5528L108.36 20.5528L108.361 20.6968ZM108.741 21.6663L108.727 21.5227L108.72 21.5237L108.741 21.6663ZM108.094 21.6944V21.8384L108.098 21.8383L108.094 21.6944ZM91.6415 21.6944L91.4975 21.6932L91.4964 21.8384H91.6415V21.6944ZM91.6837 16.3552L91.5397 16.354V16.3541L91.6837 16.3552ZM91.7118 13.0815L91.8558 13.0828V13.0826L91.7118 13.0815ZM91.7399 9.37224L91.8839 9.37333L91.8839 9.3708L91.7399 9.37224ZM91.6837 3.72401L91.5396 3.72233L91.5397 3.72544L91.6837 3.72401ZM91.6977 2.51568V2.37168H91.5554L91.5537 2.514L91.6977 2.51568ZM100.138 2.51292L100.082 5.44944L100.37 5.45495L100.426 2.51843L100.138 2.51292ZM100.082 5.45047L100.026 10.1292L100.314 10.1327L100.37 5.45393L100.082 5.45047ZM100.026 10.1315L100.04 13.5458L100.328 13.5446L100.314 10.1304L100.026 10.1315ZM100.04 13.5463L100.096 20.7822L100.384 20.78L100.328 13.5441L100.04 13.5463ZM100.238 20.9251L101.25 20.9391L101.254 20.6512L100.242 20.6371L100.238 20.9251ZM101.254 20.9391L107.267 20.8548L107.263 20.5669L101.25 20.6512L101.254 20.9391ZM107.267 20.8548L108.363 20.8408L108.36 20.5528L107.264 20.5669L107.267 20.8548ZM108.361 20.8408C108.628 20.8408 108.804 20.8812 108.91 20.9436C109.003 20.999 109.046 21.0742 109.046 21.1886H109.334C109.334 20.9751 109.24 20.8044 109.057 20.6959C108.885 20.5944 108.647 20.5528 108.361 20.5528V20.8408ZM109.046 21.1886C109.046 21.3094 109.016 21.382 108.973 21.4271C108.93 21.4729 108.855 21.5109 108.727 21.5229L108.754 21.8096C108.926 21.7936 109.076 21.7378 109.183 21.6245C109.29 21.5103 109.334 21.3581 109.334 21.1886H109.046ZM108.72 21.5237C108.665 21.5316 108.461 21.5409 108.091 21.5504L108.098 21.8383C108.459 21.8291 108.685 21.8197 108.761 21.8088L108.72 21.5237ZM108.094 21.5504H91.6415V21.8384H108.094V21.5504ZM91.7855 21.6955L91.8277 16.3564L91.5397 16.3541L91.4975 21.6932L91.7855 21.6955ZM91.8277 16.3565L91.8558 13.0828L91.5678 13.0803L91.5397 16.354L91.8277 16.3565ZM91.8558 13.0826L91.8839 9.37333L91.5959 9.37114L91.5678 13.0804L91.8558 13.0826ZM91.8839 9.3708L91.8277 3.72257L91.5397 3.72544L91.5959 9.37367L91.8839 9.3708ZM91.8277 3.72568L91.8417 2.51735L91.5537 2.514L91.5397 3.72233L91.8277 3.72568ZM91.6977 2.65968H100.282V2.37168H91.6977V2.65968ZM121.765 9.8359L121.65 9.92205L121.771 10.0835L121.884 9.91718L121.765 9.8359ZM126.233 3.3025L126.352 3.38385L126.355 3.37903L126.233 3.3025ZM127.681 2.37518L127.589 2.48672L127.594 2.49038L127.681 2.37518ZM127.681 3.11984L127.561 3.03991L127.558 3.04437L127.681 3.11984ZM127.4 3.51325L127.287 3.42324L127.284 3.42728L127.4 3.51325ZM126.95 4.11742L126.834 4.03143L126.833 4.03395L126.95 4.11742ZM115.527 20.1769L115.643 20.2621L115.644 20.2604L115.527 20.1769ZM115.063 20.8092L114.947 20.724L114.946 20.7253L115.063 20.8092ZM114.291 21.8068L114.193 21.7005L114.189 21.7049L114.291 21.8068ZM113.813 20.8794L113.923 20.9731L113.929 20.9648L113.813 20.8794ZM117.016 16.5238L117.132 16.6092L117.195 16.5238L117.132 16.4384L117.016 16.5238ZM116.623 15.9899L116.739 15.9045L116.739 15.904L116.623 15.9899ZM110.581 7.98125L110.468 8.06956L110.468 8.07L110.581 7.98125ZM106.113 2.51568V2.37168H105.803L106.003 2.60872L106.113 2.51568ZM116.3 2.51568L116.415 2.42953L116.372 2.37168H116.3V2.51568ZM121.884 9.91718L126.352 3.38378L126.115 3.22121L121.647 9.75461L121.884 9.91718ZM126.355 3.37903C126.658 2.89725 126.855 2.61769 126.953 2.51915L126.75 2.3155C126.624 2.44177 126.409 2.75233 126.111 3.22596L126.355 3.37903ZM126.953 2.51915C127.035 2.43709 127.142 2.39272 127.287 2.39272V2.10472C127.076 2.10472 126.893 2.17276 126.75 2.3155L126.953 2.51915ZM127.287 2.39272C127.42 2.39272 127.517 2.4273 127.589 2.48663L127.772 2.26373C127.638 2.15444 127.473 2.10472 127.287 2.10472V2.39272ZM127.594 2.49038C127.677 2.55224 127.705 2.61523 127.705 2.68428H127.993C127.993 2.5098 127.909 2.36671 127.767 2.25998L127.594 2.49038ZM127.705 2.68428C127.705 2.7644 127.667 2.88089 127.561 3.03997L127.8 3.19972C127.919 3.02159 127.993 2.8477 127.993 2.68428H127.705ZM127.558 3.04437C127.487 3.16002 127.397 3.28629 127.287 3.4233L127.512 3.60321C127.627 3.45921 127.725 3.3232 127.803 3.19531L127.558 3.04437ZM127.284 3.42728L126.834 4.03145L127.065 4.20338L127.515 3.59922L127.284 3.42728ZM126.833 4.03395L115.41 20.0935L115.644 20.2604L127.067 4.20088L126.833 4.03395ZM115.411 20.0918L114.947 20.724L115.18 20.8944L115.643 20.2621L115.411 20.0918ZM114.946 20.7253C114.745 21.0057 114.582 21.2277 114.454 21.3919C114.325 21.5592 114.239 21.6586 114.193 21.7006L114.388 21.9129C114.454 21.8519 114.554 21.7335 114.682 21.5683C114.812 21.4 114.979 21.1747 115.18 20.8931L114.946 20.7253ZM114.189 21.7049C114.12 21.7739 114.016 21.8173 113.855 21.8173V22.1053C114.069 22.1053 114.255 22.0458 114.392 21.9086L114.189 21.7049ZM113.855 21.8173C113.723 21.8173 113.651 21.788 113.613 21.7546C113.578 21.7244 113.549 21.6715 113.549 21.5679H113.261C113.261 21.7266 113.308 21.8704 113.423 21.9713C113.535 22.0691 113.687 22.1053 113.855 22.1053V21.8173ZM113.549 21.5679C113.549 21.5377 113.567 21.473 113.631 21.3638C113.693 21.2589 113.789 21.129 113.922 20.9729L113.703 20.786C113.565 20.9484 113.457 21.0924 113.383 21.2171C113.312 21.3373 113.261 21.4576 113.261 21.5679H113.549ZM113.929 20.9648L117.132 16.6092L116.9 16.4385L113.697 20.7941L113.929 20.9648ZM117.132 16.4384L116.739 15.9045L116.507 16.0754L116.9 16.6093L117.132 16.4384ZM116.739 15.904C113.891 12.073 111.876 9.40214 110.695 7.8925L110.468 8.07C111.647 9.5765 113.66 12.2447 116.507 16.0758L116.739 15.904ZM110.695 7.89294C109.523 6.38272 108.032 4.5592 106.223 2.42264L106.003 2.60872C107.81 4.74346 109.298 6.56365 110.468 8.06956L110.695 7.89294ZM106.113 2.65968H116.3V2.37168H106.113V2.65968ZM116.184 2.60183L121.65 9.92205L121.881 9.74974L116.415 2.42953L116.184 2.60183ZM135.352 1.36355L135.478 1.29388L135.355 1.07093L135.227 1.29151L135.352 1.36355ZM146.592 21.6944V21.8384H146.836L146.718 21.6247L146.592 21.6944ZM136.855 21.6944L136.728 21.7607L136.768 21.8384H136.855V21.6944ZM135.521 19.1232L135.648 19.0568L135.608 18.9792H135.521V19.1232ZM130.8 19.1232L130.799 19.2672H130.8V19.1232ZM126.641 19.1091L126.638 19.2531L126.64 19.2531L126.641 19.1091ZM125.938 19.0951L125.941 18.9511L125.853 18.9493L125.812 19.0265L125.938 19.0951ZM125.011 20.8092L124.884 20.7407L124.884 20.742L125.011 20.8092ZM124.435 21.7646L124.329 21.6666L124.322 21.6757L124.435 21.7646ZM123.831 20.8654L123.705 20.7955L123.704 20.7967L123.831 20.8654ZM125.756 17.5776L125.632 17.5041L125.632 17.5044L125.756 17.5776ZM134.256 3.26035L134.38 3.33387L134.381 3.33239L134.256 3.26035ZM130.982 10.5665L131.11 10.499L130.989 10.2725L130.859 10.493L130.982 10.5665ZM128.524 14.7114L128.4 14.6379L128.399 14.6395L128.524 14.7114ZM126.557 18.1256L126.432 18.0537L126.309 18.2663L126.555 18.2696L126.557 18.1256ZM130.772 18.1818L130.77 18.3258L130.773 18.3258L130.772 18.1818ZM135.001 18.1396L135.002 18.2836L135.239 18.2813L135.128 18.0721L135.001 18.1396ZM135.226 1.43323L146.466 21.764L146.718 21.6247L135.478 1.29388L135.226 1.43323ZM146.592 21.5504H136.855V21.8384H146.592V21.5504ZM136.983 21.628L135.648 19.0568L135.393 19.1895L136.728 21.7607L136.983 21.628ZM135.521 18.9792H130.8V19.2672H135.521V18.9792ZM130.8 18.9792L126.641 18.9651L126.64 19.2531L130.799 19.2672L130.8 18.9792ZM126.644 18.9651L125.941 18.9511L125.935 19.239L126.638 19.2531L126.644 18.9651ZM125.812 19.0265L124.884 20.7407L125.138 20.8777L126.065 19.1636L125.812 19.0265ZM124.884 20.742C124.748 20.9984 124.634 21.2041 124.54 21.3601C124.444 21.5187 124.375 21.6177 124.329 21.6669L124.541 21.8623C124.608 21.7898 124.69 21.6687 124.787 21.5088C124.885 21.3463 125.002 21.1352 125.138 20.8764L124.884 20.742ZM124.322 21.6757C124.244 21.774 124.154 21.8173 124.042 21.8173V22.1053C124.247 22.1053 124.419 22.0176 124.548 21.8536L124.322 21.6757ZM124.042 21.8173C123.9 21.8173 123.821 21.7858 123.779 21.748C123.739 21.7132 123.708 21.6531 123.708 21.5398H123.42C123.42 21.7075 123.468 21.8582 123.588 21.9639C123.704 22.0666 123.864 22.1053 124.042 22.1053V21.8173ZM123.708 21.5398C123.708 21.5073 123.721 21.4417 123.764 21.3329C123.806 21.2279 123.87 21.0953 123.957 20.9341L123.704 20.7967C123.614 20.9633 123.544 21.107 123.497 21.2269C123.451 21.3429 123.42 21.4505 123.42 21.5398H123.708ZM123.957 20.9353C124.143 20.6003 124.783 19.5065 125.88 17.6509L125.632 17.5044C124.536 19.358 123.893 20.4561 123.705 20.7955L123.957 20.9353ZM125.88 17.6511L134.38 3.33386L134.132 3.18683L125.632 17.5041L125.88 17.6511ZM134.381 3.33239L135.477 1.43559L135.227 1.29151L134.131 3.18831L134.381 3.33239ZM130.859 10.493L128.4 14.6379L128.647 14.7848L131.106 10.64L130.859 10.493ZM128.399 14.6395L126.432 18.0537L126.681 18.1975L128.648 14.7832L128.399 14.6395ZM126.555 18.2696L130.77 18.3258L130.774 18.0378L126.558 17.9816L126.555 18.2696ZM130.773 18.3258L135.002 18.2836L134.999 17.9956L130.77 18.0378L130.773 18.3258ZM135.128 18.0721L131.11 10.499L130.855 10.634L134.874 18.2071L135.128 18.0721Z" fill="#EF7F1A"/>
<path d="M48.1816 43.2866L48.1104 47.7424L48.0677 51.9705L48.1104 61.7649H39.4265L39.5119 50.4188L39.4692 46.5608L39.4265 43.2866L37.5474 43.3293L34.8568 43.3862L34.4581 43.4004C34.0026 43.4004 33.7748 43.2296 33.7748 42.888C33.7748 42.5843 33.9077 42.4134 34.1734 42.3755C34.2494 42.3565 34.4819 42.3422 34.871 42.3327H52.3385C52.9459 42.3422 53.3066 42.3707 53.4205 42.4182C53.6103 42.4941 53.7052 42.6554 53.7052 42.9022C53.7052 43.2249 53.4632 43.3862 52.9792 43.3862L51.7406 43.3435L48.4663 43.2866H48.1816ZM63.0298 41.7491C64.5293 41.7491 65.9766 42.067 67.3717 42.7029C69.4217 43.6425 70.9877 45.0898 72.0696 47.0449C72.9332 48.6108 73.3651 50.3144 73.3651 52.1556C73.3651 53.6361 73.0376 55.0692 72.3828 56.4548C71.4052 58.5238 69.882 60.0945 67.813 61.1669C66.2945 61.9547 64.7001 62.3485 63.0298 62.3485C61.2645 62.3485 59.5941 61.9025 58.0187 61.0103C55.9213 59.8335 54.4265 58.1821 53.5344 56.0562C52.9839 54.756 52.7087 53.4131 52.7087 52.0274C52.7087 50.2907 53.1405 48.6345 54.0041 47.0591C55.0671 45.123 56.6188 43.6757 58.6593 42.7171C60.0165 42.0812 61.4733 41.7586 63.0298 41.7491ZM61.9051 42.7029L61.8197 51.9705L61.8909 59.6722L61.9051 61.409C62.2278 61.4659 62.5362 61.4944 62.8304 61.4944C64.9279 61.4944 66.8023 60.9154 68.4537 59.7576C69.9627 58.6946 71.0541 57.328 71.7279 55.6576C72.2025 54.4903 72.4397 53.2802 72.4397 52.0274C72.4397 50.3761 72.0411 48.8386 71.2439 47.415C70.2664 45.6687 68.8902 44.3827 67.1155 43.557C65.7868 42.9307 64.3869 42.6175 62.9159 42.6175C62.5742 42.6175 62.2373 42.6459 61.9051 42.7029ZM84.4122 42.3327L84.341 49.707L84.3125 57.4514L84.3552 61.3947C84.8393 61.4327 85.2616 61.4517 85.6222 61.4517C88.9535 61.4517 91.1838 60.6782 92.3131 59.1312C92.8921 58.334 93.2717 57.2046 93.452 55.743C93.6418 54.272 93.7367 51.6051 93.7367 47.7424L93.694 43.9699L93.6371 42.8025C93.6371 42.309 93.8411 42.0623 94.2492 42.0623C94.6099 42.0623 94.7902 42.2995 94.7902 42.7741C94.7902 43.0493 94.776 43.4242 94.7475 43.8987L94.6336 49.5789C94.5957 51.9705 94.5529 53.5981 94.5055 54.4618C94.458 55.316 94.3631 56.1179 94.2208 56.8677C93.9266 58.4147 93.248 59.6484 92.185 60.569C90.8279 61.7554 88.5027 62.3485 85.2094 62.3485C82.3242 62.3485 80.1461 61.9594 78.6751 61.1812C77.5172 60.5833 76.6963 59.5725 76.2123 58.1489C75.994 57.4941 75.8659 56.8202 75.8279 56.1274C75.7899 55.4346 75.7662 53.3229 75.7567 49.7924L75.6998 42.3327H84.4122ZM109.482 58.5475C110.393 59.1739 111.375 59.7101 112.429 60.1562C113.492 60.5928 114.63 60.9344 115.845 61.1812C116.139 61.2381 116.287 61.3805 116.287 61.6083C116.287 61.9215 116.068 62.078 115.632 62.078C114.635 62.078 113.235 61.6415 111.432 60.7683C109.933 60.0376 108.215 58.9082 106.279 57.3802V57.9638L106.293 60.384V61.7649H97.6232V61.1242L97.6516 56.4833L97.6944 50.9313L97.6659 42.3327H103.389C105.951 42.3327 107.887 42.4039 109.197 42.5463C110.507 42.6886 111.622 42.9544 112.542 43.3435C114.042 43.9699 115.228 44.9996 116.101 46.4327C116.908 47.7614 117.312 49.1565 117.312 50.6181C117.312 52.1746 116.861 53.6409 115.959 55.017C114.507 57.2283 112.348 58.4052 109.482 58.5475ZM108.129 57.6649L108.813 57.6791C110.768 57.6791 112.419 57.1334 113.767 56.042C114.621 55.3587 115.276 54.5045 115.731 53.4795C116.158 52.5399 116.372 51.5814 116.372 50.6038C116.372 48.943 115.831 47.4577 114.749 46.148C113.923 45.1325 112.889 44.4159 111.646 43.9984C110.402 43.5808 108.651 43.3577 106.393 43.3293L106.264 52.8674V55.4441L106.279 56.1132C106.858 56.6731 107.474 57.1904 108.129 57.6649Z" fill="#0F74BA"/>
<path d="M48.1816 43.2866V43.1426H48.0399L48.0376 43.2843L48.1816 43.2866ZM48.1104 47.7424L47.9665 47.7401L47.9665 47.741L48.1104 47.7424ZM48.0677 51.9705L47.9237 51.969L47.9237 51.9711L48.0677 51.9705ZM48.1104 61.7649V61.9089H48.2551L48.2544 61.7642L48.1104 61.7649ZM39.4265 61.7649L39.2825 61.7638L39.2814 61.9089H39.4265V61.7649ZM39.5119 50.4188L39.6559 50.4199L39.6559 50.4172L39.5119 50.4188ZM39.4692 46.5608L39.6132 46.5592L39.6132 46.559L39.4692 46.5608ZM39.4265 43.2866L39.5705 43.2847L39.5686 43.1393L39.4232 43.1426L39.4265 43.2866ZM37.5474 43.3293L37.5504 43.4732L37.5506 43.4732L37.5474 43.3293ZM34.8568 43.3862L34.8537 43.2422L34.8516 43.2423L34.8568 43.3862ZM34.4581 43.4004V43.5445L34.4633 43.5444L34.4581 43.4004ZM34.1734 42.3755L34.1938 42.518L34.2011 42.517L34.2084 42.5152L34.1734 42.3755ZM34.871 42.3327V42.1887L34.8675 42.1888L34.871 42.3327ZM52.3385 42.3327L52.3408 42.1887H52.3385V42.3327ZM53.4205 42.4182L53.3651 42.5511L53.367 42.5519L53.4205 42.4182ZM52.9792 43.3862L52.9742 43.5302H52.9792V43.3862ZM51.7406 43.3435L51.7456 43.1996L51.7431 43.1995L51.7406 43.3435ZM48.4663 43.2866L48.4689 43.1426H48.4663V43.2866ZM48.0376 43.2843L47.9665 47.7401L48.2544 47.7447L48.3256 43.2889L48.0376 43.2843ZM47.9665 47.741L47.9237 51.969L48.2117 51.972L48.2544 47.7439L47.9665 47.741ZM47.9237 51.9711L47.9665 61.7655L48.2544 61.7642L48.2117 51.9699L47.9237 51.9711ZM48.1104 61.6209H39.4265V61.9089H48.1104V61.6209ZM39.5705 61.7659L39.6559 50.4199L39.3679 50.4177L39.2825 61.7638L39.5705 61.7659ZM39.6559 50.4172L39.6132 46.5592L39.3252 46.5624L39.3679 50.4204L39.6559 50.4172ZM39.6132 46.559L39.5705 43.2847L39.2825 43.2884L39.3252 46.5627L39.6132 46.559ZM39.4232 43.1426L37.5441 43.1853L37.5506 43.4732L39.4298 43.4305L39.4232 43.1426ZM37.5443 43.1853L34.8537 43.2422L34.8598 43.5302L37.5504 43.4732L37.5443 43.1853ZM34.8516 43.2423L34.453 43.2565L34.4633 43.5444L34.8619 43.5301L34.8516 43.2423ZM34.4581 43.2564C34.2442 43.2564 34.11 43.2156 34.0321 43.1571C33.9619 43.1045 33.9188 43.0236 33.9188 42.888H33.6308C33.6308 43.0939 33.7017 43.2693 33.8593 43.3875C34.0091 43.4999 34.2165 43.5444 34.4581 43.5444V43.2564ZM33.9188 42.888C33.9188 42.7555 33.9479 42.6722 33.9881 42.6205C34.0265 42.5712 34.0885 42.533 34.1938 42.518L34.1531 42.2329C33.9926 42.2558 33.8554 42.3221 33.7608 42.4436C33.6682 42.5628 33.6308 42.7167 33.6308 42.888H33.9188ZM34.2084 42.5152C34.2313 42.5094 34.2951 42.5015 34.4136 42.4943C34.5273 42.4873 34.6807 42.4814 34.8745 42.4767L34.8675 42.1888C34.6722 42.1936 34.5148 42.1995 34.396 42.2068C34.2819 42.2138 34.1915 42.2225 34.1385 42.2358L34.2084 42.5152ZM34.871 42.4767H52.3385V42.1887H34.871V42.4767ZM52.3363 42.4767C52.6387 42.4815 52.8773 42.4909 53.0532 42.5048C53.1413 42.5117 53.2119 42.5197 53.266 42.5283C53.3226 42.5374 53.3528 42.546 53.3651 42.5511L53.4759 42.2852C53.4312 42.2666 53.3736 42.2539 53.3115 42.2439C53.2471 42.2336 53.1682 42.225 53.0759 42.2177C52.8912 42.2031 52.6458 42.1935 52.3408 42.1888L52.3363 42.4767ZM53.367 42.5519C53.4352 42.5791 53.4801 42.6185 53.5099 42.6691C53.5408 42.7217 53.5612 42.7965 53.5612 42.9022H53.8492C53.8492 42.7611 53.8221 42.6319 53.7581 42.5231C53.693 42.4124 53.5956 42.3331 53.4739 42.2845L53.367 42.5519ZM53.5612 42.9022C53.5612 43.0216 53.5198 43.0947 53.4438 43.1454C53.3575 43.203 53.2097 43.2422 52.9792 43.2422V43.5302C53.2326 43.5302 53.4479 43.4888 53.6036 43.385C53.7695 43.2744 53.8492 43.1055 53.8492 42.9022H53.5612ZM52.9841 43.2423L51.7456 43.1996L51.7357 43.4874L52.9742 43.5301L52.9841 43.2423ZM51.7431 43.1995L48.4689 43.1426L48.4638 43.4305L51.7381 43.4875L51.7431 43.1995ZM48.4663 43.1426H48.1816V43.4306H48.4663V43.1426ZM63.0298 41.7491V41.6051L63.0289 41.6051L63.0298 41.7491ZM67.3717 42.7029L67.4317 42.572L67.4314 42.5719L67.3717 42.7029ZM72.0696 47.0449L72.1957 46.9753L72.1956 46.9751L72.0696 47.0449ZM72.3828 56.4548L72.2526 56.3933L72.2526 56.3933L72.3828 56.4548ZM67.813 61.1669L67.7468 61.0391L67.7467 61.0391L67.813 61.1669ZM58.0187 61.0103L58.0896 60.885L58.0891 60.8848L58.0187 61.0103ZM53.5344 56.0562L53.6671 56.0005L53.667 56.0001L53.5344 56.0562ZM54.0041 47.0591L53.8779 46.9898L53.8779 46.9899L54.0041 47.0591ZM58.6593 42.7171L58.5982 42.5867L58.5981 42.5868L58.6593 42.7171ZM61.9051 42.7029L61.8808 42.561L61.7622 42.5813L61.7611 42.7016L61.9051 42.7029ZM61.8197 51.9705L61.6757 51.9692L61.6757 51.9718L61.8197 51.9705ZM61.8909 59.6722L62.0349 59.671L62.0349 59.6708L61.8909 59.6722ZM61.9051 61.409L61.7611 61.4101L61.7621 61.5299L61.8801 61.5508L61.9051 61.409ZM68.4537 59.7576L68.5363 59.8755L68.5366 59.8753L68.4537 59.7576ZM71.7279 55.6576L71.5945 55.6034L71.5944 55.6037L71.7279 55.6576ZM71.2439 47.415L71.1183 47.4853L71.1183 47.4854L71.2439 47.415ZM67.1155 43.557L67.0541 43.6873L67.0547 43.6876L67.1155 43.557ZM63.0298 41.8931C64.5082 41.8931 65.9352 42.2064 67.312 42.8339L67.4314 42.5719C66.018 41.9276 64.5504 41.6051 63.0298 41.6051V41.8931ZM67.3117 42.8338C69.334 43.7607 70.8767 45.1867 71.9436 47.1146L72.1956 46.9751C71.0986 44.9929 69.5094 43.5242 67.4317 42.572L67.3117 42.8338ZM71.9435 47.1144C72.795 48.6584 73.2211 50.338 73.2211 52.1556H73.5091C73.5091 50.2908 73.0714 48.5632 72.1957 46.9753L71.9435 47.1144ZM73.2211 52.1556C73.2211 53.6141 72.8987 55.0262 72.2526 56.3933L72.513 56.5164C73.1766 55.1122 73.5091 53.6581 73.5091 52.1556H73.2211ZM72.2526 56.3933C71.2888 58.4332 69.7883 59.9809 67.7468 61.0391L67.8793 61.2948C69.9757 60.2081 71.5217 58.6144 72.513 56.5164L72.2526 56.3933ZM67.7467 61.0391C66.2482 61.8165 64.6765 62.2045 63.0298 62.2045V62.4925C64.7238 62.4925 66.3409 62.0929 67.8793 61.2948L67.7467 61.0391ZM63.0298 62.2045C61.29 62.2045 59.644 61.7652 58.0896 60.885L57.9477 61.1357C59.5442 62.0397 61.239 62.4925 63.0298 62.4925V62.2045ZM58.0891 60.8848C56.0184 59.7229 54.5463 58.0955 53.6671 56.0005L53.4016 56.1119C54.3067 58.2688 55.8241 59.9441 57.9482 61.1359L58.0891 60.8848ZM53.667 56.0001C53.1239 54.7173 52.8527 53.3934 52.8527 52.0274H52.5647C52.5647 53.4327 52.8439 54.7947 53.4017 56.1124L53.667 56.0001ZM52.8527 52.0274C52.8527 50.3157 53.278 48.6833 54.1304 47.1283L53.8779 46.9899C53.003 48.5858 52.5647 50.2656 52.5647 52.0274H52.8527ZM54.1304 47.1284C55.1783 45.2196 56.707 43.7933 58.7205 42.8475L58.5981 42.5868C56.5306 43.558 54.9559 45.0264 53.8779 46.9898L54.1304 47.1284ZM58.7204 42.8475C60.058 42.2208 61.4942 41.9024 63.0306 41.8931L63.0289 41.6051C61.4524 41.6147 59.975 41.9417 58.5982 42.5867L58.7204 42.8475ZM61.7611 42.7016L61.6757 51.9692L61.9637 51.9718L62.0491 42.7042L61.7611 42.7016ZM61.6757 51.9718L61.7469 59.6735L62.0349 59.6708L61.9637 51.9692L61.6757 51.9718ZM61.7469 59.6733L61.7611 61.4101L62.0491 61.4078L62.0349 59.671L61.7469 59.6733ZM61.8801 61.5508C62.2101 61.609 62.527 61.6384 62.8304 61.6384V61.3504C62.5455 61.3504 62.2455 61.3228 61.9301 61.2671L61.8801 61.5508ZM62.8304 61.6384C64.9562 61.6384 66.8597 61.051 68.5363 59.8755L68.371 59.6397C66.7448 60.7798 64.8996 61.3504 62.8304 61.3504V61.6384ZM68.5366 59.8753C70.0677 58.7968 71.177 57.4082 71.8615 55.7115L71.5944 55.6037C70.9312 57.2477 69.8577 58.5925 68.3707 59.6399L68.5366 59.8753ZM71.8613 55.7118C72.3428 54.5274 72.5837 53.2989 72.5837 52.0274H72.2957C72.2957 53.2615 72.0621 54.4532 71.5945 55.6034L71.8613 55.7118ZM72.5837 52.0274C72.5837 50.3517 72.179 48.79 71.3695 47.3446L71.1183 47.4854C71.9033 48.8872 72.2957 50.4004 72.2957 52.0274H72.5837ZM71.3696 47.3447C70.3776 45.5726 68.979 44.2652 67.1762 43.4265L67.0547 43.6876C68.8014 44.5002 70.1551 45.7648 71.1183 47.4853L71.3696 47.3447ZM67.1769 43.4268C65.829 42.7913 64.4081 42.4735 62.9159 42.4735V42.7615C64.3657 42.7615 65.7446 43.07 67.0541 43.6873L67.1769 43.4268ZM62.9159 42.4735C62.5662 42.4735 62.2211 42.5026 61.8808 42.561L61.9294 42.8448C62.2535 42.7893 62.5822 42.7615 62.9159 42.7615V42.4735ZM84.4122 42.3327L84.5562 42.3341L84.5576 42.1887H84.4122V42.3327ZM84.341 49.707L84.197 49.7056L84.197 49.7065L84.341 49.707ZM84.3125 57.4514L84.1685 57.4508L84.1685 57.4529L84.3125 57.4514ZM84.3552 61.3947L84.2112 61.3963L84.2127 61.528L84.344 61.5383L84.3552 61.3947ZM92.3131 59.1312L92.4295 59.2161L92.4297 59.2158L92.3131 59.1312ZM93.452 55.743L93.3092 55.7246L93.3091 55.7254L93.452 55.743ZM93.7367 47.7424H93.8808L93.8807 47.7408L93.7367 47.7424ZM93.694 43.9699L93.8381 43.9683L93.8379 43.9629L93.694 43.9699ZM93.6371 42.8025H93.4929L93.4933 42.8096L93.6371 42.8025ZM94.7475 43.8987L94.6036 43.8901L94.6035 43.8958L94.7475 43.8987ZM94.6336 49.5789L94.4896 49.576L94.4896 49.5766L94.6336 49.5789ZM94.5055 54.4618L94.6493 54.4698L94.6493 54.4697L94.5055 54.4618ZM94.2208 56.8677L94.3622 56.8946L94.3622 56.8945L94.2208 56.8677ZM92.185 60.569L92.0908 60.4602L92.0903 60.4606L92.185 60.569ZM78.6751 61.1812L78.7424 61.0539L78.7412 61.0532L78.6751 61.1812ZM76.2123 58.1489L76.0756 58.1945L76.0759 58.1953L76.2123 58.1489ZM75.7567 49.7924L75.9007 49.792L75.9007 49.7913L75.7567 49.7924ZM75.6998 42.3327V42.1887H75.5547L75.5558 42.3338L75.6998 42.3327ZM84.2682 42.3314L84.197 49.7056L84.485 49.7084L84.5562 42.3341L84.2682 42.3314ZM84.197 49.7065L84.1685 57.4508L84.4565 57.4519L84.485 49.7075L84.197 49.7065ZM84.1685 57.4529L84.2112 61.3963L84.4992 61.3932L84.4565 57.4498L84.1685 57.4529ZM84.344 61.5383C84.8306 61.5764 85.2568 61.5957 85.6222 61.5957V61.3077C85.2664 61.3077 84.848 61.2889 84.3665 61.2512L84.344 61.5383ZM85.6222 61.5957C88.9663 61.5957 91.258 60.8207 92.4295 59.2161L92.1968 59.0463C91.1095 60.5357 88.9407 61.3077 85.6222 61.3077V61.5957ZM92.4297 59.2158C93.0283 58.3915 93.413 57.2354 93.5949 55.7607L93.3091 55.7254C93.1304 57.1738 92.7559 58.2765 92.1966 59.0466L92.4297 59.2158ZM93.5948 55.7615C93.786 54.2801 93.8807 51.6046 93.8807 47.7424H93.5927C93.5927 51.6057 93.4977 54.2639 93.3092 55.7246L93.5948 55.7615ZM93.8807 47.7408L93.838 43.9683L93.55 43.9715L93.5928 47.744L93.8807 47.7408ZM93.8379 43.9629L93.7809 42.7955L93.4933 42.8096L93.5502 43.9769L93.8379 43.9629ZM93.7811 42.8025C93.7811 42.572 93.8293 42.4259 93.9011 42.3391C93.9686 42.2575 94.0754 42.2063 94.2492 42.2063V41.9183C94.015 41.9183 93.8157 41.9904 93.6792 42.1556C93.5469 42.3155 93.4931 42.5395 93.4931 42.8025H93.7811ZM94.2492 42.2063C94.3951 42.2063 94.4832 42.2522 94.5403 42.3273C94.6031 42.41 94.6462 42.5509 94.6462 42.7741H94.9342C94.9342 42.5226 94.8872 42.3077 94.7696 42.1531C94.6464 41.991 94.464 41.9183 94.2492 41.9183V42.2063ZM94.6462 42.7741C94.6462 43.0451 94.6322 43.4167 94.6038 43.8901L94.8912 43.9073C94.9198 43.4317 94.9342 43.0535 94.9342 42.7741H94.6462ZM94.6035 43.8958L94.4896 49.576L94.7776 49.5817L94.8915 43.9016L94.6035 43.8958ZM94.4896 49.5766C94.4517 51.9685 94.409 53.5935 94.3617 54.4539L94.6493 54.4697C94.6969 53.6028 94.7396 51.9725 94.7776 49.5811L94.4896 49.5766ZM94.3617 54.4538C94.3146 55.3024 94.2203 56.098 94.0793 56.8408L94.3622 56.8945C94.5059 56.1379 94.6015 55.3295 94.6493 54.4698L94.3617 54.4538ZM94.0793 56.8408C93.7904 58.3599 93.1263 59.5634 92.0908 60.4602L92.2793 60.6779C93.3697 59.7335 94.0627 58.4694 94.3622 56.8946L94.0793 56.8408ZM92.0903 60.4606C90.7737 61.6114 88.4935 62.2045 85.2094 62.2045V62.4925C88.5119 62.4925 90.882 61.8993 92.2798 60.6775L92.0903 60.4606ZM85.2094 62.2045C82.3328 62.2045 80.1827 61.8158 78.7424 61.0539L78.6077 61.3085C80.1096 62.103 82.3157 62.4925 85.2094 62.4925V62.2045ZM78.7412 61.0532C77.6215 60.475 76.8226 59.4967 76.3486 58.1026L76.0759 58.1953C76.57 59.6483 77.413 60.6915 78.609 61.3091L78.7412 61.0532ZM76.3489 58.1034C76.1347 57.4608 76.0089 56.7996 75.9717 56.1195L75.6841 56.1353C75.7228 56.8409 75.8533 57.5274 76.0756 58.1945L76.3489 58.1034ZM75.9717 56.1195C75.934 55.4314 75.9102 53.3245 75.9007 49.792L75.6127 49.7928C75.6222 53.3213 75.6459 55.4377 75.6841 56.1353L75.9717 56.1195ZM75.9007 49.7913L75.8438 42.3316L75.5558 42.3338L75.6127 49.7935L75.9007 49.7913ZM75.6998 42.4767H84.4122V42.1887H75.6998V42.4767ZM109.482 58.5475L109.475 58.4037L109.049 58.4248L109.4 58.6662L109.482 58.5475ZM112.429 60.1562L112.372 60.2888L112.374 60.2894L112.429 60.1562ZM115.845 61.1812L115.817 61.3223L115.818 61.3226L115.845 61.1812ZM111.432 60.7683L111.369 60.8978L111.369 60.8979L111.432 60.7683ZM106.279 57.3802L106.368 57.2671L106.135 57.0831V57.3802H106.279ZM106.279 57.9638H106.135V57.9647L106.279 57.9638ZM106.293 60.384H106.437L106.437 60.3831L106.293 60.384ZM106.293 61.7649V61.9089H106.437V61.7649H106.293ZM97.6232 61.7649H97.4792V61.9089H97.6232V61.7649ZM97.6232 61.1242L97.4792 61.1234V61.1242H97.6232ZM97.6516 56.4833L97.5076 56.4822L97.5076 56.4824L97.6516 56.4833ZM97.6944 50.9313L97.8384 50.9324L97.8383 50.9308L97.6944 50.9313ZM97.6659 42.3327V42.1887H97.5214L97.5219 42.3332L97.6659 42.3327ZM112.542 43.3435L112.486 43.4761L112.487 43.4764L112.542 43.3435ZM116.101 46.4327L116.225 46.358L116.224 46.3578L116.101 46.4327ZM115.959 55.017L116.079 55.096L116.08 55.0959L115.959 55.017ZM108.129 57.6649L108.045 57.7815L108.081 57.8079L108.126 57.8089L108.129 57.6649ZM108.813 57.6791L108.81 57.8231H108.813V57.6791ZM113.767 56.042L113.677 55.9295L113.676 55.9301L113.767 56.042ZM115.731 53.4795L115.6 53.4199L115.6 53.421L115.731 53.4795ZM114.749 46.148L114.637 46.2388L114.638 46.2397L114.749 46.148ZM106.393 43.3293L106.394 43.1853L106.25 43.1835L106.249 43.3273L106.393 43.3293ZM106.264 52.8674L106.12 52.8654V52.8674H106.264ZM106.264 55.4441H106.12L106.12 55.4471L106.264 55.4441ZM106.279 56.1132L106.135 56.1162L106.136 56.1755L106.179 56.2167L106.279 56.1132ZM109.4 58.6662C110.32 59.2982 111.31 59.8391 112.372 60.2888L112.485 60.0236C111.44 59.5812 110.466 59.0496 109.563 58.4289L109.4 58.6662ZM112.374 60.2894C113.446 60.7297 114.594 61.0739 115.817 61.3223L115.874 61.0401C114.667 60.795 113.537 60.4558 112.483 60.023L112.374 60.2894ZM115.818 61.3226C115.95 61.348 116.03 61.3894 116.076 61.4341C116.118 61.475 116.143 61.5285 116.143 61.6083H116.431C116.431 61.4602 116.381 61.3287 116.276 61.2272C116.175 61.1295 116.035 61.0713 115.873 61.0398L115.818 61.3226ZM116.143 61.6083C116.143 61.7273 116.104 61.7971 116.039 61.8436C115.965 61.8964 115.837 61.934 115.632 61.934V62.222C115.863 62.222 116.062 62.1814 116.207 62.0776C116.36 61.9675 116.431 61.8025 116.431 61.6083H116.143ZM115.632 61.934C114.669 61.934 113.294 61.5101 111.495 60.6387L111.369 60.8979C113.176 61.7729 114.601 62.222 115.632 62.222V61.934ZM111.495 60.6389C110.008 59.9142 108.299 58.7915 106.368 57.2671L106.189 57.4932C108.13 59.0249 109.857 60.1609 111.369 60.8978L111.495 60.6389ZM106.135 57.3802V57.9638H106.423V57.3802H106.135ZM106.135 57.9647L106.149 60.3848L106.437 60.3831L106.423 57.963L106.135 57.9647ZM106.149 60.384V61.7649H106.437V60.384H106.149ZM106.293 61.6209H97.6232V61.9089H106.293V61.6209ZM97.7672 61.7649V61.1242H97.4792V61.7649H97.7672ZM97.7672 61.1251L97.7956 56.4842L97.5076 56.4824L97.4792 61.1234L97.7672 61.1251ZM97.7956 56.4844L97.8383 50.9324L97.5504 50.9302L97.5076 56.4822L97.7956 56.4844ZM97.8383 50.9308L97.8099 42.3323L97.5219 42.3332L97.5504 50.9318L97.8383 50.9308ZM97.6659 42.4767H103.389V42.1887H97.6659V42.4767ZM103.389 42.4767C105.95 42.4767 107.88 42.5479 109.181 42.6894L109.213 42.4031C107.895 42.2599 105.953 42.1887 103.389 42.1887V42.4767ZM109.181 42.6894C110.481 42.8307 111.582 43.0939 112.486 43.4761L112.599 43.2109C111.662 42.8149 110.532 42.5466 109.213 42.4031L109.181 42.6894ZM112.487 43.4764C113.957 44.0906 115.121 45.0996 115.978 46.5076L116.224 46.3578C115.336 44.8997 114.127 43.8491 112.598 43.2106L112.487 43.4764ZM115.978 46.5074C116.772 47.8151 117.168 49.1846 117.168 50.6181H117.456C117.456 49.1285 117.044 47.7077 116.225 46.358L115.978 46.5074ZM117.168 50.6181C117.168 52.1449 116.726 53.584 115.839 54.9381L116.08 55.0959C116.996 53.6977 117.456 52.2042 117.456 50.6181H117.168ZM115.839 54.938C114.414 57.1072 112.299 58.2634 109.475 58.4037L109.489 58.6913C112.396 58.5469 114.6 57.3494 116.079 55.096L115.839 54.938ZM108.126 57.8089L108.81 57.8231L108.816 57.5352L108.132 57.5209L108.126 57.8089ZM108.813 57.8231C110.796 57.8231 112.481 57.2687 113.857 56.1539L113.676 55.9301C112.357 56.9981 110.739 57.5351 108.813 57.5351V57.8231ZM113.857 56.1544C114.729 55.4563 115.398 54.5835 115.863 53.538L115.6 53.421C115.153 54.4255 114.513 55.261 113.677 55.9295L113.857 56.1544ZM115.862 53.5391C116.298 52.5819 116.516 51.6031 116.516 50.6038H116.228C116.228 51.5597 116.019 52.498 115.6 53.4199L115.862 53.5391ZM116.516 50.6038C116.516 48.9087 115.963 47.3912 114.86 46.0563L114.638 46.2397C115.699 47.5242 116.228 48.9773 116.228 50.6038H116.516ZM114.861 46.0571C114.018 45.0205 112.961 44.2881 111.691 43.8619L111.6 44.1349C112.817 44.5438 113.829 45.2445 114.637 46.2388L114.861 46.0571ZM111.691 43.8619C110.427 43.4373 108.659 43.2138 106.394 43.1853L106.391 43.4733C108.644 43.5017 110.377 43.7243 111.6 44.1349L111.691 43.8619ZM106.249 43.3273L106.12 52.8654L106.408 52.8693L106.537 43.3312L106.249 43.3273ZM106.12 52.8674V55.4441H106.408V52.8674H106.12ZM106.12 55.4471L106.135 56.1162L106.423 56.1101L106.408 55.441L106.12 55.4471ZM106.179 56.2167C106.762 56.7814 107.384 57.303 108.045 57.7815L108.214 57.5483C107.564 57.0777 106.953 56.5649 106.379 56.0097L106.179 56.2167Z" fill="#0F74BA"/>
<path d="M148.047 24.9751C144.14 30.545 124.891 34.2935 112.74 29.3866C96.6051 22.8699 85.1161 36.7185 85.0847 29.658" stroke="#009846" stroke-width="2.00013" stroke-miterlimit="22.9256" stroke-linecap="round"/>
<path d="M4.73535 25.6645C8.64263 31.2344 31.5847 34.0418 43.7352 29.1349C59.87 22.6186 71.3593 36.4668 71.3903 29.4066" stroke="#009846" stroke-width="2.00013" stroke-miterlimit="22.9256" stroke-linecap="round"/>
</g>
<defs>
<clipPath id="clip0_27_156">
<rect width="152.871" height="68.3739" fill="white"/>
</clipPath>
</defs>
</svg>
