<svg width="97" height="99" viewBox="0 0 97 99" fill="none" xmlns="http://www.w3.org/2000/svg">
<g clip-path="url(#clip0_25_36)">
<path fill-rule="evenodd" clip-rule="evenodd" d="M46.9472 76.1707C52.6487 82.4061 60.1784 80.6398 68.3103 70.5026C76.4422 60.3654 79.7279 51.8906 79.0945 40.2585C81.9568 41.4166 90.2536 45.3543 96.1452 53.5113C96.8224 53.3448 97.0531 43.0245 91.6714 38.9569C85.7605 34.4892 79.1696 38.4046 79.6613 37.7706C87.4432 27.7382 93.9193 28.3681 94.3711 29.9475C94.3711 29.9475 94.6604 24.1207 89.029 23.066C83.0624 21.9481 77.8301 32.3615 77.8301 34.8304C78.5705 14.6707 60.5198 15.6961 60.8608 15.6918C61.1659 15.6193 67.1982 20.2161 70.5357 25.6461C74.0375 31.3428 76.62 37.3082 74.7782 35.0733C69.4094 28.5594 65.9552 28.4133 62.7718 28.7215C58.274 29.1569 53.4428 32.8901 50.2561 35.5038C49.7576 35.9129 57.7599 34.0075 63.9216 34.5022C69.2428 34.9293 74.7423 37.8858 73.9615 37.8368C68.3015 37.4816 58.073 37.2583 58.5468 48.433C58.5706 49.0002 61.578 45.633 65.8 43.4066C69.3447 41.5376 74.3515 39.6008 75.9244 40.6995C77.9287 42.0998 66.6618 66.7878 60.4886 70.7033C51.673 76.2948 46.9399 76.1629 46.9472 76.1707Z" fill="url(#paint0_linear_25_36)"/>
<path fill-rule="evenodd" clip-rule="evenodd" d="M94.8373 67.804C82.7253 98.4669 51.6361 103.661 29.2434 94.3854C5.38272 84.5012 -3.32197 56.7026 2.37317 36.3012C5.70204 24.3766 17.2734 14.3536 22.0659 16.4324C27.1881 18.6542 14.7361 47.2153 19.8139 47.3904C27.5224 47.6564 32.952 29.3601 28.9963 60.366C25.6845 86.3241 33.9025 39.2689 46.1759 72.1962C49.1948 80.2953 58.9598 81.5204 66.5129 81.5915C78.4108 81.7038 88.2376 77.017 94.8373 67.804Z" fill="url(#paint1_linear_25_36)"/>
<path fill-rule="evenodd" clip-rule="evenodd" d="M5.6539 28.7364C6.65079 33.4379 1.18516 64.0606 13.2931 51.1867C19.7385 44.3334 16.7714 48.8948 19.6177 62.2775C21.6944 72.0425 27.8584 92.2464 37.4524 96.9965C28.888 95.5918 20.118 90.576 13.1566 83.3071C0.344141 69.9282 -3.80048 46.0123 5.6539 28.7364Z" fill="#25AAE2" stroke="#25AAE2" stroke-width="0.755906" stroke-miterlimit="22.9256"/>
<path d="M40.3508 53.5476C43.3505 53.5476 45.7823 51.117 45.7823 48.1188C45.7823 45.1205 43.3505 42.6899 40.3508 42.6899C37.3511 42.6899 34.9194 45.1205 34.9194 48.1188C34.9194 51.117 37.3511 53.5476 40.3508 53.5476Z" fill="url(#paint2_linear_25_36)"/>
<path d="M29.9222 31.3169C31.7444 31.3169 33.2215 29.8404 33.2215 28.0191C33.2215 26.1978 31.7444 24.7214 29.9222 24.7214C28.1 24.7214 26.6229 26.1978 26.6229 28.0191C26.6229 29.8404 28.1 31.3169 29.9222 31.3169Z" fill="url(#paint3_linear_25_36)"/>
<path d="M44.9403 22.303C50.9674 22.303 55.8532 17.4194 55.8532 11.3952C55.8532 5.37103 50.9674 0.487464 44.9403 0.487464C38.9133 0.487464 34.0275 5.37103 34.0275 11.3952C34.0275 17.4194 38.9133 22.303 44.9403 22.303Z" fill="url(#paint4_linear_25_36)"/>
<path d="M52.0315 68.483C53.8537 68.483 55.3309 67.0066 55.3309 65.1853C55.3309 63.364 53.8537 61.8875 52.0315 61.8875C50.2094 61.8875 48.7322 63.364 48.7322 65.1853C48.7322 67.0066 50.2094 68.483 52.0315 68.483Z" fill="url(#paint5_linear_25_36)"/>
<path fill-rule="evenodd" clip-rule="evenodd" d="M64.448 78.4448C73.6908 77.8279 83.9964 76.4672 92.5253 64.3818C100.528 53.0421 89.0111 50.0013 79.7855 66.979C75.7762 74.357 64.3054 78.4543 64.448 78.4448Z" fill="url(#paint6_linear_25_36)"/>
</g>
<defs>
<linearGradient id="paint0_linear_25_36" x1="52.0584" y1="79.0038" x2="113.156" y2="1.13797" gradientUnits="userSpaceOnUse">
<stop stop-color="#8FBF2D"/>
<stop offset="0.301961" stop-color="#578F17"/>
<stop offset="1" stop-color="#1E5F00"/>
</linearGradient>
<linearGradient id="paint1_linear_25_36" x1="15.6677" y1="23.0061" x2="75.1115" y2="97.3458" gradientUnits="userSpaceOnUse">
<stop stop-color="#0F74BA" stop-opacity="0.886275"/>
<stop offset="0.470588" stop-color="#2453A0" stop-opacity="0.945098"/>
<stop offset="1" stop-color="#393185"/>
</linearGradient>
<linearGradient id="paint2_linear_25_36" x1="38.0783" y1="52.2909" x2="49.417" y2="40.0547" gradientUnits="userSpaceOnUse">
<stop stop-color="#0F74BA"/>
<stop offset="1" stop-color="#FEFEFE"/>
</linearGradient>
<linearGradient id="paint3_linear_25_36" x1="29.9222" y1="24.7214" x2="29.9222" y2="31.3169" gradientUnits="userSpaceOnUse">
<stop stop-color="white"/>
<stop offset="1" stop-color="white" stop-opacity="0"/>
</linearGradient>
<linearGradient id="paint4_linear_25_36" x1="35.0248" y1="19.967" x2="57.182" y2="2.23161" gradientUnits="userSpaceOnUse">
<stop stop-color="#EF7F1A"/>
<stop offset="1" stop-color="#D22D2D"/>
</linearGradient>
<linearGradient id="paint5_linear_25_36" x1="52.0315" y1="61.8875" x2="52.0315" y2="68.483" gradientUnits="userSpaceOnUse">
<stop stop-color="white"/>
<stop offset="1" stop-color="white" stop-opacity="0"/>
</linearGradient>
<linearGradient id="paint6_linear_25_36" x1="98.1327" y1="58.358" x2="52.9276" y2="88.6022" gradientUnits="userSpaceOnUse">
<stop stop-color="#25AAE2"/>
<stop offset="0.411765" stop-color="#306EB4"/>
<stop offset="1" stop-color="#3B3185"/>
</linearGradient>
<clipPath id="clip0_25_36">
<rect width="97" height="99" fill="white"/>
</clipPath>
</defs>
</svg>
