<svg width="123" height="87" viewBox="0 0 123 87" fill="none" xmlns="http://www.w3.org/2000/svg">
<path fill-rule="evenodd" clip-rule="evenodd" d="M71.7171 23.8833C64.7383 16.4506 58.8519 11.6262 48.4627 9.53701C30.0723 5.83876 11.9163 17.3322 8.1035 35.8925C4.57767 53.0564 15.6286 72.0272 33.3115 75.9676C50.7363 79.8507 68.5014 70.1606 72.9887 52.5122C74.0562 48.314 74.7679 43.913 74.4655 39.5909C71.3867 44.1464 67.4212 50.9599 65.2787 54.1733C63.4521 56.9127 58.2134 66.2349 53.8329 64.2989C49.2563 62.2762 47.7918 49.7079 45.2043 45.302C41.1407 51.4308 32.272 89.2729 24.307 38.9051C23.8256 35.8606 23.4357 32.9392 23.1668 29.9546C21.5139 34.2588 20.2107 37.7912 19.5861 43.1089L19.2336 41.2374C19.0477 38.7274 22.2041 25.8359 23.2973 25.1523C24.8795 24.163 24.7963 27.4289 24.8366 27.7793C25.4017 32.6984 30.1024 58.6587 33.7358 61.3956C36.6705 59.0853 39.7999 45.2831 43.0367 42.0742C49.3109 35.8545 52.1027 56.7766 55.244 60.1509C57.811 57.9995 63.3132 48.8426 64.8742 46.2756C66.3535 43.843 72.5931 32.0223 75.3892 31.55C82.0708 30.4213 78.9657 50.0921 78.0969 53.7633C74.8804 67.3538 64.5884 77.536 51.0682 80.8628C28.2687 86.4727 7.51559 71.5708 4.01564 48.8836C1.25414 30.9833 11.8995 13.3167 29.2279 7.98124C44.5395 3.26671 64.174 9.42295 71.7171 23.8833Z" fill="#FEFEFE" stroke="#FEFEFE" stroke-width="1.87767" stroke-miterlimit="22.9256"/>
<path d="M75.7093 17.8061V4.71806H77.4877L84.3524 14.991V4.71806H86.0152V17.8061H84.2365L77.3719 7.53293V17.8061H75.7093ZM88.3939 11.4357C88.3939 9.26642 88.9786 7.56657 90.1449 6.33867C91.3115 5.11101 92.816 4.49866 94.6616 4.49866C95.8705 4.49866 96.9578 4.78812 97.9294 5.36381C98.8977 5.93979 99.6378 6.744 100.146 7.77682C100.655 8.80636 100.911 9.97634 100.911 11.2832C100.911 12.6087 100.643 13.7967 100.107 14.8417C99.5709 15.8898 98.8125 16.6819 97.8318 17.218C96.8482 17.7573 95.7883 18.0255 94.6524 18.0255C93.419 18.0255 92.3195 17.7268 91.3479 17.1328C90.3796 16.5388 89.6424 15.7284 89.1429 14.6985C88.6434 13.6719 88.3939 12.5842 88.3939 11.4357ZM90.1846 11.4662C90.1846 13.0413 90.6078 14.2811 91.4546 15.1861C92.3011 16.0909 93.364 16.5447 94.6432 16.5447C95.9467 16.5447 97.0157 16.0879 97.8593 15.1737C98.6999 14.2598 99.1202 12.9621 99.1202 11.2803C99.1202 10.217 98.9405 9.28772 98.5811 8.4956C98.2217 7.70353 97.6947 7.08819 97.0033 6.65265C96.309 6.21687 95.5326 5.99746 94.6707 5.99746C93.4464 5.99746 92.3925 6.41792 91.5093 7.25879C90.6261 8.09967 90.1846 9.50116 90.1846 11.4662ZM105.394 17.8061L101.949 4.71806H103.746L105.708 13.3003C105.921 14.1989 106.11 15.0915 106.271 15.975C106.615 14.5797 106.816 13.7754 106.874 13.5622L109.347 4.71806H111.433L113.309 11.3444C113.769 12.9895 114.11 14.5341 114.329 15.975C114.503 15.1494 114.725 14.2021 114.996 13.1327L117.04 4.71806H118.779L115.197 17.8061H113.513L110.769 7.83473C110.538 6.99978 110.398 6.48797 110.346 6.29906C110.197 6.89629 110.063 7.4081 109.947 7.83154L107.203 17.8061H105.394Z" fill="#FEFEFE" stroke="#FEFEFE" stroke-width="1.44567" stroke-miterlimit="22.9256"/>
<path d="M103.609 36.733V23.645H105.345V36.733H103.609ZM108.375 36.733V23.645H110.153L117.018 33.9179V23.645H118.681V36.733H116.902L110.038 26.4599V36.733H108.375Z" fill="#FEFEFE" stroke="#FEFEFE" stroke-width="1.44567" stroke-miterlimit="22.9256"/>
<path d="M81.4996 65.5741V43.2311H97.6271V45.8523H84.463V52.7176H96.7848V55.3388H84.463V62.9529H98.1573V65.5741H81.4996ZM102.119 65.5741V43.2311H110.5C112.205 43.2311 113.573 43.4547 114.607 43.9073C115.637 44.3597 116.443 45.0567 117.025 45.9979C117.612 46.9341 117.903 47.9171 117.903 48.9469C117.903 49.8985 117.644 50.7983 117.129 51.641C116.614 52.4836 115.834 53.1648 114.789 53.6847C116.141 54.0802 117.181 54.7562 117.903 55.7132C118.631 56.665 118.995 57.7936 118.995 59.0938C118.995 60.1445 118.772 61.1168 118.33 62.0166C117.888 62.9164 117.342 63.6081 116.692 64.0971C116.042 64.5807 115.226 64.9498 114.249 65.1997C113.266 65.4493 112.065 65.5741 110.641 65.5741H102.119ZM105.083 52.624H109.913C111.223 52.624 112.164 52.5356 112.73 52.3638C113.484 52.1402 114.051 51.7658 114.431 51.2458C114.81 50.7255 115.002 50.0756 115.002 49.2901C115.002 48.5463 114.826 47.8911 114.467 47.3293C114.113 46.7625 113.604 46.3725 112.944 46.1643C112.283 45.9563 111.15 45.8523 109.549 45.8523H105.083V52.624ZM105.083 62.9529H110.646C111.602 62.9529 112.273 62.9164 112.663 62.8437C113.339 62.7241 113.911 62.5213 114.368 62.235C114.826 61.949 115.2 61.5331 115.496 60.9868C115.793 60.4408 115.938 59.8114 115.938 59.099C115.938 58.2616 115.725 57.5388 115.293 56.9198C114.867 56.301 114.275 55.8692 113.516 55.6196C112.762 55.37 111.67 55.2452 110.25 55.2452H105.083V62.9529Z" fill="#FEFEFE" stroke="#FEFEFE" stroke-width="1.44567" stroke-miterlimit="22.9256"/>
</svg>
