<svg width="76" height="78" viewBox="0 0 76 78" fill="none" xmlns="http://www.w3.org/2000/svg">
<g clip-path="url(#clip0_26_96)">
<path fill-rule="evenodd" clip-rule="evenodd" d="M36.7833 60.0133C41.2505 64.926 47.15 63.5344 53.5214 55.5475C59.8928 47.5606 62.4672 40.8835 61.9709 31.7188C64.2135 32.6313 70.7141 35.7337 75.3302 42.1604C75.8608 42.0292 76.0415 33.8981 71.825 30.6933C67.1937 27.1733 62.0297 30.2582 62.415 29.7587C68.5121 21.8544 73.5862 22.3507 73.9402 23.595C73.9402 23.595 74.1669 19.0042 69.7547 18.1732C65.0798 17.2924 60.9803 25.4969 60.9803 27.4421C61.5603 11.5588 47.4176 12.3667 47.6847 12.3633C47.9238 12.3061 52.6501 15.9278 55.2651 20.206C58.0087 24.6944 60.0321 29.3943 58.5891 27.6335C54.3826 22.5013 51.6762 22.3862 49.182 22.629C45.6579 22.9721 41.8727 25.9134 39.3759 27.9727C38.9853 28.295 45.2551 26.7938 50.0829 27.1836C54.252 27.5201 58.561 29.8494 57.9492 29.8108C53.5145 29.5309 45.5005 29.355 45.8716 38.1593C45.8903 38.6062 48.2466 35.9533 51.5546 34.1991C54.3319 32.7266 58.2547 31.2006 59.4871 32.0663C61.0575 33.1696 52.2298 52.6207 47.3931 55.7056C40.486 60.111 36.7776 60.0071 36.7833 60.0133Z" fill="url(#paint0_linear_26_96)"/>
<path fill-rule="evenodd" clip-rule="evenodd" d="M74.3055 53.4213C64.8157 77.58 40.4571 81.6727 22.9124 74.3643C4.21739 66.5767 -2.60278 44.6748 1.85939 28.6009C4.46757 19.2058 13.5338 11.3089 17.2887 12.9467C21.302 14.6973 11.5458 37.1999 15.5243 37.3379C21.5639 37.5475 25.818 23.1322 22.7187 47.5611C20.1239 68.0129 26.5628 30.9391 36.1791 56.8819C38.5444 63.263 46.1953 64.2282 52.1132 64.2842C61.4352 64.3727 69.1346 60.68 74.3055 53.4213Z" fill="url(#paint1_linear_26_96)"/>
<path fill-rule="evenodd" clip-rule="evenodd" d="M4.42985 22.6408C5.21092 26.345 0.928575 50.472 10.4152 40.3289C15.4653 34.9294 13.1405 38.5232 15.3706 49.0672C16.9977 56.7608 21.8272 72.679 29.3442 76.4215C22.6339 75.3148 15.7626 71.3629 10.3083 65.6359C0.269634 55.095 -2.9777 36.2521 4.42985 22.6408Z" fill="#25AAE2" stroke="#25AAE2" stroke-width="0.755906" stroke-miterlimit="22.9256"/>
<path d="M31.615 42.189C33.9653 42.189 35.8706 40.274 35.8706 37.9118C35.8706 35.5495 33.9653 33.6345 31.615 33.6345C29.2648 33.6345 27.3595 35.5495 27.3595 37.9118C27.3595 40.274 29.2648 42.189 31.615 42.189Z" fill="url(#paint2_linear_26_96)"/>
<path d="M23.4442 24.6739C24.8718 24.6739 26.0292 23.5106 26.0292 22.0757C26.0292 20.6407 24.8718 19.4774 23.4442 19.4774C22.0165 19.4774 20.8591 20.6407 20.8591 22.0757C20.8591 23.5106 22.0165 24.6739 23.4442 24.6739Z" fill="url(#paint3_linear_26_96)"/>
<path d="M35.211 17.572C39.9332 17.572 43.7613 13.7244 43.7613 8.97804C43.7613 4.23172 39.9332 0.384062 35.211 0.384062C30.4887 0.384062 26.6606 4.23172 26.6606 8.97804C26.6606 13.7244 30.4887 17.572 35.211 17.572Z" fill="url(#paint4_linear_26_96)"/>
<path d="M40.7669 53.9563C42.1946 53.9563 43.352 52.7931 43.352 51.3581C43.352 49.9231 42.1946 48.7598 40.7669 48.7598C39.3392 48.7598 38.1819 49.9231 38.1819 51.3581C38.1819 52.7931 39.3392 53.9563 40.7669 53.9563Z" fill="url(#paint5_linear_26_96)"/>
<path fill-rule="evenodd" clip-rule="evenodd" d="M50.4953 61.805C57.7371 61.319 65.8115 60.2469 72.494 50.725C78.7641 41.7907 69.7406 39.3949 62.5123 52.7714C59.371 58.5843 50.3835 61.8124 50.4953 61.805Z" fill="url(#paint6_linear_26_96)"/>
</g>
<defs>
<linearGradient id="paint0_linear_26_96" x1="40.788" y1="62.2454" x2="88.9888" y2="1.1572" gradientUnits="userSpaceOnUse">
<stop stop-color="#8FBF2D"/>
<stop offset="0.301961" stop-color="#578F17"/>
<stop offset="1" stop-color="#1E5F00"/>
</linearGradient>
<linearGradient id="paint1_linear_26_96" x1="12.2757" y1="18.126" x2="59.167" y2="76.442" gradientUnits="userSpaceOnUse">
<stop stop-color="#0F74BA" stop-opacity="0.886275"/>
<stop offset="0.470588" stop-color="#2453A0" stop-opacity="0.945098"/>
<stop offset="1" stop-color="#393185"/>
</linearGradient>
<linearGradient id="paint2_linear_26_96" x1="29.8345" y1="41.1989" x2="38.7716" y2="31.6079" gradientUnits="userSpaceOnUse">
<stop stop-color="#0F74BA"/>
<stop offset="1" stop-color="#FEFEFE"/>
</linearGradient>
<linearGradient id="paint3_linear_26_96" x1="23.4442" y1="19.4774" x2="23.4442" y2="24.6739" gradientUnits="userSpaceOnUse">
<stop stop-color="white"/>
<stop offset="1" stop-color="white" stop-opacity="0"/>
</linearGradient>
<linearGradient id="paint4_linear_26_96" x1="27.442" y1="15.7316" x2="44.8777" y2="1.85294" gradientUnits="userSpaceOnUse">
<stop stop-color="#EF7F1A"/>
<stop offset="1" stop-color="#D22D2D"/>
</linearGradient>
<linearGradient id="paint5_linear_26_96" x1="40.7669" y1="48.7598" x2="40.7669" y2="53.9563" gradientUnits="userSpaceOnUse">
<stop stop-color="white"/>
<stop offset="1" stop-color="white" stop-opacity="0"/>
</linearGradient>
<linearGradient id="paint6_linear_26_96" x1="76.8875" y1="45.9791" x2="41.3473" y2="69.6249" gradientUnits="userSpaceOnUse">
<stop stop-color="#25AAE2"/>
<stop offset="0.411765" stop-color="#306EB4"/>
<stop offset="1" stop-color="#3B3185"/>
</linearGradient>
<clipPath id="clip0_26_96">
<rect width="76" height="78" fill="white"/>
</clipPath>
</defs>
</svg>
